<svg width="20" height="20" viewBox="0 0 20 20" fill="none" xmlns="http://www.w3.org/2000/svg">
<path d="M0.718896 0.718652C1.07051 0.367144 1.54734 0.169678 2.04452 0.169678C2.5417 0.169678 3.01853 0.367144 3.37015 0.718652L10.0001 7.34865L16.6301 0.718652C16.9838 0.377106 17.4574 0.188116 17.949 0.192388C18.4406 0.19666 18.9109 0.393852 19.2586 0.741493C19.6062 1.08913 19.8034 1.55941 19.8077 2.05103C19.8119 2.54264 19.6229 3.01627 19.2814 3.3699L12.6514 9.9999L19.2814 16.6299C19.6229 16.9835 19.8119 17.4572 19.8077 17.9488C19.8034 18.4404 19.6062 18.9107 19.2586 19.2583C18.9109 19.606 18.4406 19.8031 17.949 19.8074C17.4574 19.8117 16.9838 19.6227 16.6301 19.2812L10.0001 12.6512L3.37015 19.2812C3.01652 19.6227 2.54289 19.8117 2.05127 19.8074C1.55965 19.8031 1.08938 19.606 0.741737 19.2583C0.394096 18.9107 0.196905 18.4404 0.192633 17.9488C0.188361 17.4572 0.37735 16.9835 0.718896 16.6299L7.3489 9.9999L0.718896 3.3699C0.367388 3.01829 0.169922 2.54146 0.169922 2.04428C0.169922 1.54709 0.367388 1.07027 0.718896 0.718652Z" fill="#A606A9"/>
</svg>
