<svg width="20" height="15" viewBox="0 0 20 15" fill="none" xmlns="http://www.w3.org/2000/svg">
<path d="M1.09043 4.13848C1.07692 7.02412 1.29812 10.3352 1.68478 13.5147C1.71517 13.7696 1.91441 13.9739 2.16938 14.0111C6.93261 14.7068 11.9069 14.5936 17.045 14.3589C17.3219 14.3471 17.5515 14.1377 17.587 13.8625C18.0834 10.1478 18.3266 6.49393 18.2252 2.92108C18.2117 2.42297 17.6089 2.17983 17.2527 2.52766C16.1146 3.64038 14.9513 4.90506 13.7727 6.26429C13.5059 6.5716 13.0095 6.5125 12.8305 6.1461C12.2176 4.89661 11.2366 3.52387 10.1255 2.10723C9.88578 1.80161 9.41807 1.81849 9.20025 2.14099C8.16859 3.67414 7.22978 5.14144 6.63037 6.37235C6.45645 6.72694 5.98706 6.79617 5.70845 6.51588C4.80173 5.59903 3.47121 4.63827 1.9752 3.66064C1.59529 3.41074 1.09212 3.68259 1.09043 4.13848Z" fill="url(#paint0_linear_730_374)"/>
<path opacity="0.3" d="M17.8662 2.40796C17.7244 2.69838 17.7227 3.03608 17.6906 3.37884C17.6247 4.08801 17.5099 4.7938 17.309 5.47764C16.8565 7.0091 15.8991 8.46457 14.4554 9.14672C13.5774 9.56041 12.5896 9.6634 11.6221 9.73263C8.2688 9.9724 4.89181 9.87953 1.55704 9.45741C1.46755 9.44559 1.37806 9.43377 1.28857 9.42364C1.3882 10.7829 1.52158 12.1607 1.68706 13.5132C1.71745 13.7681 1.91669 13.9724 2.17165 14.0096C6.93489 14.7052 11.9092 14.5921 17.0473 14.3574C17.3242 14.3456 17.5538 14.1362 17.5893 13.861C18.0857 10.1463 18.3288 6.49242 18.2275 2.91957C18.2174 2.67136 18.062 2.48732 17.8662 2.40796Z" fill="#E58E0E"/>
<path d="M9.3356 6.13603C8.85438 6.63414 8.47784 7.12718 8.14521 7.61177C8.06247 7.73166 8.06078 7.89037 8.14521 8.00857C8.43394 8.41718 8.83918 8.84775 9.29169 9.28507C9.41833 9.40833 9.62095 9.41846 9.75434 9.30364C10.1967 8.92542 10.6138 8.50498 11.0156 8.05416C11.1119 7.94609 11.1305 7.78907 11.0612 7.66074C10.7877 7.15588 10.3335 6.64596 9.83708 6.13434C9.69862 5.99251 9.47068 5.9942 9.3356 6.13603Z" fill="url(#paint1_linear_730_374)"/>
<path d="M15.4335 7.06968C15.084 7.43271 14.8088 7.79067 14.5656 8.14356C14.5048 8.23137 14.5048 8.34618 14.5656 8.43229C14.775 8.72947 15.0705 9.04352 15.3997 9.36265C15.4926 9.45214 15.6395 9.4589 15.7374 9.37616C16.0582 9.10094 16.3638 8.79532 16.656 8.46606C16.7252 8.3867 16.7387 8.27357 16.6897 8.18071C16.4905 7.81261 16.1595 7.44115 15.7982 7.06968C15.6986 6.96668 15.5331 6.96668 15.4335 7.06968Z" fill="url(#paint2_linear_730_374)"/>
<path d="M3.225 7.06968C2.87548 7.43271 2.60026 7.79067 2.35711 8.14356C2.29633 8.23137 2.29633 8.34618 2.35711 8.43229C2.56649 8.72947 2.86197 9.04352 3.19123 9.36265C3.2841 9.45214 3.43099 9.4589 3.52893 9.37616C3.84974 9.10094 4.15536 8.79532 4.44747 8.46606C4.51669 8.3867 4.5302 8.27357 4.48124 8.18071C4.282 7.81261 3.95105 7.44115 3.58971 7.06968C3.48841 6.96668 3.32462 6.96668 3.225 7.06968Z" fill="url(#paint3_linear_730_374)"/>
<path d="M1.09118 11.2503C1.07936 12.0675 1.14691 13.0654 1.24653 14.1342C1.26679 14.347 1.412 14.5142 1.59098 14.5327C6.97727 15.0798 12.3686 15.1457 17.7701 14.7337C17.9558 14.7202 18.1078 14.5462 18.1247 14.3267C18.2057 13.2782 18.2581 12.2853 18.2463 11.4259C18.2429 11.1895 18.0842 10.9987 17.8849 10.9869C12.6033 10.688 7.12417 10.6357 1.46265 10.8147C1.26004 10.8197 1.09456 11.0105 1.09118 11.2503Z" fill="url(#paint4_linear_730_374)"/>
<path opacity="0.3" d="M17.7692 14.7321C17.9549 14.7185 18.1069 14.5446 18.1238 14.3251C18.2048 13.2766 18.2571 12.2837 18.2453 11.4243C18.242 11.1879 18.0832 10.9971 17.884 10.9853C17.8502 10.9836 17.8148 10.9819 17.781 10.9802C17.781 11.0106 17.7793 11.0393 17.7742 11.068C17.6999 11.5526 17.45 12.022 17.0887 12.353C16.3593 13.0199 15.331 13.2361 14.35 13.361C11.7294 13.6953 9.05149 13.5754 6.46979 13.0098C5.47864 12.792 4.49932 12.51 3.49129 12.3918C2.70107 12.2989 1.88216 12.3175 1.12402 12.537C1.15104 13.0402 1.19494 13.5771 1.2456 14.1343C1.26586 14.3471 1.41107 14.5142 1.59005 14.5328C6.97634 15.0782 12.3694 15.144 17.7692 14.7321Z" fill="#5C3600"/>
<path d="M19.5606 2.48534C19.5606 3.43258 18.9223 3.78041 17.9734 3.78041C17.0262 3.78041 16.3862 3.28737 16.3862 2.34013C16.3862 1.39288 17.1545 0.915039 18.1017 0.915039C19.0507 0.915039 19.5606 1.5381 19.5606 2.48534Z" fill="url(#paint5_linear_730_374)"/>
<path d="M3.17436 3.45946C3.17436 4.4067 2.53611 4.75453 1.58718 4.75453C0.639937 4.75453 0 4.26149 0 3.31425C0 2.367 0.768264 1.88916 1.71551 1.88916C2.66444 1.88916 3.17436 2.51052 3.17436 3.45946Z" fill="url(#paint6_linear_730_374)"/>
<path d="M0.908602 2.37393C0.699229 2.50225 0.530378 2.69812 0.437511 2.92606C0.390233 3.04257 0.361528 3.16921 0.378413 3.29247C0.395298 3.41573 0.464526 3.5373 0.574278 3.5964C0.709358 3.669 0.876521 3.6403 1.02004 3.58289C1.41853 3.42248 1.72245 3.04595 1.79674 2.62383C1.81194 2.53603 1.81701 2.44316 1.7883 2.35704C1.72414 2.16624 1.57555 2.19326 1.41346 2.20846C1.23448 2.22365 1.06057 2.28106 0.908602 2.37393Z" fill="white"/>
<path d="M11.397 1.5703C11.397 2.51754 10.7588 2.86537 9.80984 2.86537C8.86091 2.86537 8.22266 2.37233 8.22266 1.42509C8.22266 0.477844 8.99092 0 9.93816 0C10.8888 0 11.397 0.623051 11.397 1.5703Z" fill="url(#paint7_linear_730_374)"/>
<path d="M9.03518 0.381394C8.90516 0.460753 8.80216 0.582322 8.74307 0.722467C8.71436 0.793384 8.69579 0.872742 8.70592 0.948724C8.71605 1.02471 8.75826 1.10069 8.82749 1.13783C8.91023 1.18342 9.01491 1.16485 9.10272 1.12939C9.34924 1.02977 9.53835 0.796758 9.58394 0.535042C9.59407 0.48101 9.59744 0.423605 9.57887 0.369573C9.53835 0.251378 9.44717 0.268262 9.34586 0.278393C9.23611 0.288524 9.12973 0.323985 9.03518 0.381394Z" fill="white"/>
<defs>
<linearGradient id="paint0_linear_730_374" x1="7.93017" y1="-9.38642" x2="15.2248" y2="54.0512" gradientUnits="userSpaceOnUse">
<stop stop-color="#FFD188"/>
<stop offset="0.5" stop-color="#E58E0E"/>
<stop offset="1" stop-color="#5C3600"/>
</linearGradient>
<linearGradient id="paint1_linear_730_374" x1="8.83192" y1="2.95687" x2="12.2065" y2="24.5598" gradientUnits="userSpaceOnUse">
<stop stop-color="#AEF4E9"/>
<stop offset="0.5" stop-color="#27BA9E"/>
<stop offset="1" stop-color="#114939"/>
</linearGradient>
<linearGradient id="paint2_linear_730_374" x1="15.0674" y1="4.7563" x2="17.5242" y2="20.4841" gradientUnits="userSpaceOnUse">
<stop stop-color="#AEF4E9"/>
<stop offset="0.5" stop-color="#27BA9E"/>
<stop offset="1" stop-color="#114939"/>
</linearGradient>
<linearGradient id="paint3_linear_730_374" x1="2.85822" y1="4.7563" x2="5.31504" y2="20.4841" gradientUnits="userSpaceOnUse">
<stop stop-color="#AEF4E9"/>
<stop offset="0.5" stop-color="#27BA9E"/>
<stop offset="1" stop-color="#114939"/>
</linearGradient>
<linearGradient id="paint4_linear_730_374" x1="4.64303" y1="-19.9052" x2="11.151" y2="21.7567" gradientUnits="userSpaceOnUse">
<stop stop-color="#FFD188"/>
<stop offset="0.5" stop-color="#E58E0E"/>
<stop offset="1" stop-color="#5C3600"/>
</linearGradient>
<linearGradient id="paint5_linear_730_374" x1="16.3215" y1="-8.18208" x2="19.256" y2="10.6036" gradientUnits="userSpaceOnUse">
<stop stop-color="#FFD188"/>
<stop offset="0.5" stop-color="#E58E0E"/>
<stop offset="1" stop-color="#5C3600"/>
</linearGradient>
<linearGradient id="paint6_linear_730_374" x1="-0.0648216" y1="-7.20884" x2="2.86964" y2="11.5769" gradientUnits="userSpaceOnUse">
<stop stop-color="#FFD188"/>
<stop offset="0.5" stop-color="#E58E0E"/>
<stop offset="1" stop-color="#5C3600"/>
</linearGradient>
<linearGradient id="paint7_linear_730_374" x1="8.15868" y1="-9.09738" x2="11.0932" y2="9.68833" gradientUnits="userSpaceOnUse">
<stop stop-color="#FFD188"/>
<stop offset="0.5" stop-color="#E58E0E"/>
<stop offset="1" stop-color="#5C3600"/>
</linearGradient>
</defs>
</svg>
