<svg width="100" height="100" viewBox="0 0 100 100" fill="none" xmlns="http://www.w3.org/2000/svg">
<path d="M95 0H5C2.23858 0 0 2.23858 0 5V94.9463C0 97.7077 2.23858 99.9463 5 99.9463H95C97.7614 99.9463 100 97.7077 100 94.9463V5C100 2.23858 97.7614 0 95 0Z" fill="#C95C82"/>
<path d="M51.4235 62.4486V100H31.1406C30.8048 99.8704 30.6436 99.8078 30.6436 99.8078C30.6436 96.2676 31.0286 93.3041 31.66 90.8189C31.8793 89.9428 32.1346 89.1158 32.4077 88.356C34.9912 81.3248 39.7194 79.0854 41.8999 78.415C42.6074 78.1959 43.0462 78.1423 43.0462 78.1423C43.1268 78.1423 43.1895 78.1333 43.2656 78.1199H43.2746C43.9148 78.0171 44.4298 77.4629 44.8506 76.5779C45.1596 75.9208 45.4193 75.0804 45.6252 74.106C45.7058 73.7305 45.7775 73.3461 45.8446 72.9349C45.9387 72.2421 46.0372 71.5135 46.1177 70.7536C46.1536 70.2887 46.1983 69.8417 46.2565 69.359C46.4356 67.0615 46.4849 64.5494 46.4849 62.167C46.4894 62.167 49.2162 62.4486 51.4235 62.4486Z" fill="#E5C69F"/>
<path d="M72.2889 99.8034C72.2889 99.8034 72.1098 99.866 71.8098 99.9956H51.4238V62.4442H51.4731C53.6715 62.4442 56.4297 62.1626 56.4297 62.1626C56.4297 64.5227 56.4789 67.0079 56.6625 69.3054C56.7118 69.7524 56.7565 70.2128 56.7923 70.6643C56.8729 71.4555 56.9714 72.2019 57.0878 72.8948V72.9082C57.1237 73.2255 57.1819 73.5071 57.2401 73.8022C57.4416 74.7855 57.6789 75.6392 57.9744 76.3321C58.3371 77.1903 58.7803 77.7848 59.3221 78.0217C59.4923 78.0977 59.6713 78.1379 59.8639 78.1379C59.8639 78.1379 59.9758 78.1513 60.1728 78.1915H60.1818C60.5131 78.2586 61.0818 78.4061 61.8116 78.6922C64.2026 79.6264 68.2189 82.0803 70.5203 88.3516C70.8024 89.1114 71.0576 89.9384 71.277 90.8145C71.9038 93.2997 72.2889 96.2632 72.2889 99.8034Z" fill="#F2DAB5"/>
<mask id="mask0_732_8199" style="mask-type:luminance" maskUnits="userSpaceOnUse" x="45" y="69" width="13" height="7">
<path d="M57.0886 69.2607H45.8457V75.8985H57.0886V69.2607Z" fill="white"/>
</mask>
<g mask="url(#mask0_732_8199)">
<path d="M57.0881 72.8279V72.8458C56.5776 73.6324 54.8583 75.9031 51.4598 75.9031H51.4285C48.2092 75.8852 46.3287 73.552 45.8496 72.8636C45.9481 72.1753 46.0466 71.4511 46.1317 70.6957C46.163 70.2532 46.2123 69.7928 46.266 69.3145C47.8331 69.7079 49.5525 69.9537 51.3658 69.9895H51.433C53.3136 69.9582 55.0463 69.6945 56.6672 69.2654C56.7164 69.7079 56.7657 70.1683 56.797 70.6108C56.8731 71.3975 56.9717 72.135 57.0881 72.8279Z" fill="#C69F82"/>
</g>
<path d="M51.1948 19.6451C29.7029 19.6451 29.5865 37.6363 30.5447 49.4144C29.0761 46.6208 24.7016 47.4745 25.0642 51.8773C25.409 56.1148 31.6596 58.2782 31.4849 57.8089C34.7401 66.5206 43.3547 73.0869 51.1948 73.0869H51.3605V19.6406H51.1948" fill="#D7AE89"/>
<path d="M26.4352 50.0224C27.4919 48.3149 29.1441 49.0524 29.5381 49.4324C29.9679 49.8436 30.3127 50.3665 30.0485 51.3723C29.9008 51.9489 29.3053 51.9981 29.4396 52.8518C29.6053 53.8218 30.0485 53.8709 30.3127 54.0989C30.559 54.3134 30.8724 54.4788 31.0247 54.8856C31.1903 55.2968 31.2082 55.7215 31.1231 56.1014C30.9575 56.7898 29.95 56.2311 29.2739 55.936C28.8262 55.7215 27.4068 54.5235 27.0442 54.1302C26.1532 53.1111 25.7233 51.1398 26.4352 50.0224Z" fill="#B48E76"/>
<path d="M51.3078 19.6451C72.7997 19.6451 72.9162 37.6363 71.9714 49.4144C73.44 46.6208 77.7966 47.4745 77.4339 51.8773C77.1026 56.1148 70.8431 58.2782 71.0132 57.8089C67.8432 66.5206 59.1434 73.0869 51.3034 73.0869C51.2541 73.0869 51.1869 73.0869 51.1869 73.0869L51.1377 19.6406C51.1422 19.6451 51.2586 19.6451 51.3078 19.6451Z" fill="#E1BE9D"/>
<path d="M76.0682 50.0224C75.0115 48.3149 73.3772 49.0524 72.9653 49.4324C72.5354 49.8436 72.2041 50.3665 72.4548 51.3723C72.6026 51.9489 73.1981 51.9981 73.0637 52.8518C72.8981 53.8218 72.4548 53.8709 72.2041 54.0989C71.9578 54.3134 71.6265 54.4788 71.4788 54.8856C71.331 55.2968 71.2952 55.7215 71.3803 56.1014C71.5459 56.7898 72.5534 56.2311 73.2295 55.936C73.6906 55.7215 75.0966 54.5235 75.4592 54.1302C76.3637 53.1111 76.7801 51.1398 76.0682 50.0224Z" fill="#B48E76"/>
<path d="M51.0258 24.7229C43.9603 24.7229 38.7799 26.7746 35.6591 30.8198C31.2846 36.4876 31.4502 45.1279 33.0531 51.341C33.5501 53.2452 33.8143 58.3542 34.1412 60.2271C35.677 68.6215 44.9364 73.0914 51.0258 73.0914C51.0258 73.0914 51.1422 73.0914 51.1914 73.0914V24.7229C51.1422 24.7229 51.0929 24.7229 51.0929 24.7229" fill="#E5C69F"/>
<path d="M66.3742 30.8332C63.2713 26.8059 58.1535 24.7542 51.1865 24.7229V73.0914C58.1535 73.0109 66.4861 68.112 67.9055 60.2271C68.2502 58.3542 68.5009 53.2452 68.9935 51.341C70.6188 45.1413 70.7845 36.5189 66.3742 30.8332Z" fill="#F2DAB5"/>
<path d="M50.0629 64.5139C50.0271 64.5049 49.9958 64.5004 49.96 64.4915C49.9958 64.5004 50.0226 64.5094 50.0629 64.5139Z" fill="#C3987D"/>
<path d="M49.7981 64.4555C49.7668 64.4466 49.7399 64.4377 49.7086 64.4287H49.7041C49.7041 64.4332 49.7399 64.4421 49.7981 64.4555Z" fill="#C3987D"/>
<path d="M47.0904 58.5823C47.0098 56.9106 50.1574 57.97 51.1917 58.0236C52.0111 58.0638 54.5051 57.4962 54.72 57.6437C56.1886 58.636 53.1663 60.6296 51.138 60.6296C50.6007 60.634 47.1396 59.5925 47.0904 58.5823Z" fill="#E1BE9D"/>
<path d="M45.1911 24.8435L45.1016 24.933L45.115 24.9644C45.1464 24.9152 45.1597 24.8704 45.1911 24.8435Z" fill="#473217"/>
<path d="M50.1215 63.5349C50.0857 63.5259 50.0544 63.5214 50.0186 63.5125C50.0499 63.5214 50.0812 63.5259 50.1215 63.5349Z" fill="#C1977D"/>
<path d="M49.8524 63.4722C49.8211 63.4632 49.7897 63.4543 49.7584 63.4453H49.7539C49.7539 63.4498 49.7897 63.4588 49.8524 63.4722Z" fill="#C1977D"/>
<path d="M35.7705 43.5993C35.7705 43.5993 37.4092 50.3354 40.2256 50.8852C43.0419 51.435 46.0866 50.3443 46.0866 50.3443C46.0866 50.3443 46.3776 42.4282 44.9359 41.3956C43.4986 40.3542 40.1763 38.8523 35.7705 43.5993Z" fill="white"/>
<path d="M46.0915 50.3217C46.0915 50.3217 46.0288 50.3396 45.881 50.4022C45.8452 47.975 45.6214 44.6405 44.7214 44.0013C43.3826 43.0179 40.3603 41.6412 36.3261 45.4182C35.959 44.3768 35.7754 43.5856 35.7754 43.5856C40.1902 38.8297 43.5125 40.327 44.9408 41.3685C46.3825 42.3966 46.0915 50.3217 46.0915 50.3217Z" fill="#DCBC9B"/>
<path d="M44.4259 46.8934C44.4259 48.4266 43.1857 49.6693 41.6544 49.6693C40.1231 49.6693 38.8828 48.4266 38.8828 46.8934C38.8828 45.3603 40.1231 44.1177 41.6544 44.1177C43.1857 44.1177 44.4259 45.3603 44.4259 46.8934Z" fill="#4D2A12"/>
<path d="M41.5237 48.7395C40.7223 48.6724 40.1089 47.8634 40.1805 46.9739C40.2521 46.0844 40.9909 45.3915 41.7924 45.4586C42.5938 45.5256 43.2073 46.3302 43.1356 47.2197C43.064 48.1093 42.3252 48.8065 41.5237 48.7395Z" fill="#80401C"/>
<path d="M41.5953 48.4175C41.0401 48.3683 40.4625 47.7604 40.5207 47.005C40.5833 46.2496 41.2505 45.74 41.8102 45.7847C42.3654 45.8339 42.943 46.4463 42.8803 47.2017C42.8221 47.9571 42.1505 48.4622 41.5953 48.4175Z" fill="#241C09"/>
<path d="M41.1431 46.5581C41.1207 46.8308 40.8386 47.0275 40.5207 47.0051C40.1984 46.9783 39.9566 46.7325 39.979 46.4643C40.0014 46.1916 40.2789 45.9905 40.6013 46.0173C40.9237 46.0441 41.1655 46.2855 41.1431 46.5581Z" fill="white"/>
<path d="M42.939 48.1359C42.9256 48.27 42.7867 48.3728 42.63 48.3594C42.4688 48.346 42.348 48.2253 42.3569 48.0867C42.3703 47.9526 42.5092 47.8498 42.6659 47.8632C42.8316 47.8766 42.9524 47.9973 42.939 48.1359Z" fill="white"/>
<path d="M50.1665 64.3305C50.1307 64.3215 50.0993 64.3171 50.0635 64.3081C50.0948 64.3126 50.1262 64.3215 50.1665 64.3305Z" fill="#C1977D"/>
<path d="M49.8973 64.2678C49.866 64.2588 49.8347 64.2499 49.8033 64.241H49.7988C49.7988 64.2454 49.8346 64.2544 49.8973 64.2678Z" fill="#C1977D"/>
<path d="M50.0406 64.1381C50.0048 64.1292 49.9645 64.1247 49.9287 64.1157C49.9645 64.1202 49.9959 64.1292 50.0406 64.1381Z" fill="#C3987D"/>
<path d="M49.7485 64.0757C49.7127 64.0668 49.6813 64.0578 49.65 64.0488H49.6455C49.6455 64.0488 49.6858 64.0578 49.7485 64.0757Z" fill="#C3987D"/>
<path d="M49.9557 63.8566C49.9199 63.8477 49.8796 63.8432 49.8438 63.8342C49.8796 63.8387 49.9154 63.8477 49.9557 63.8566Z" fill="#C3987D"/>
<path d="M49.6694 63.7942C49.6336 63.7853 49.6022 63.7763 49.5709 63.7673H49.5664C49.5664 63.7673 49.6022 63.7763 49.6694 63.7942Z" fill="#C3987D"/>
<path d="M50.2159 63.8165C50.18 63.8076 50.1442 63.8031 50.1084 63.7942C50.1397 63.8031 50.1711 63.8076 50.2159 63.8165Z" fill="#C3987D"/>
<path d="M49.9325 63.7539C49.9011 63.745 49.8698 63.736 49.8384 63.7271H49.834C49.834 63.7315 49.8698 63.7405 49.9325 63.7539Z" fill="#C3987D"/>
<path d="M66.7767 43.3712C66.7767 43.3712 65.1379 50.1073 62.3216 50.6571C59.5053 51.2069 56.4606 50.1118 56.4606 50.1118C56.4606 50.1118 56.1696 42.1956 57.6113 41.1631C59.0486 40.1261 62.3709 38.6242 66.7767 43.3712Z" fill="white"/>
<path d="M56.4567 50.0937C56.4567 50.0937 56.5194 50.1116 56.6671 50.1742C56.7029 47.7471 56.9268 44.4125 57.8268 43.7733C59.1656 42.79 62.1879 41.4132 66.2221 45.1858C66.5892 44.1443 66.7728 43.3532 66.7728 43.3532C62.358 38.5972 59.0357 40.0946 57.6074 41.1361C56.1657 42.1686 56.4567 50.0937 56.4567 50.0937Z" fill="#DCBC9B"/>
<path d="M58.123 46.6611C58.123 48.1942 59.3633 49.4369 60.8946 49.4369C62.4259 49.4369 63.6662 48.1942 63.6662 46.6611C63.6662 45.1279 62.4259 43.8853 60.8946 43.8853C59.3633 43.8897 58.123 45.1279 58.123 46.6611Z" fill="#4D2A12"/>
<path d="M61.0239 48.5114C61.8253 48.4444 62.4388 47.6354 62.3671 46.7459C62.2955 45.8563 61.5567 45.1635 60.7552 45.2306C59.9537 45.2976 59.3403 46.1022 59.4119 46.9917C59.4836 47.8812 60.2224 48.5785 61.0239 48.5114Z" fill="#80401C"/>
<path d="M60.9518 48.1897C61.507 48.1405 62.0846 47.5326 62.0264 46.7772C61.9637 46.0218 61.2966 45.5122 60.7369 45.5569C60.1817 45.6061 59.6041 46.2185 59.6668 46.9739C59.725 47.7248 60.3966 48.2344 60.9518 48.1897Z" fill="#241C09"/>
<path d="M61.4038 46.3301C61.4262 46.6028 61.7083 46.7994 62.0262 46.7771C62.3485 46.7503 62.5903 46.5044 62.5679 46.2363C62.5455 45.9636 62.2679 45.7624 61.9455 45.7893C61.6232 45.8116 61.3814 46.0574 61.4038 46.3301Z" fill="white"/>
<path d="M59.6084 47.9037C59.6219 48.0378 59.7606 48.1406 59.9174 48.1272C60.0785 48.1138 60.1994 47.9931 60.1905 47.8546C60.177 47.7205 60.0383 47.6177 59.8816 47.6311C59.7159 47.6489 59.595 47.7696 59.6084 47.9037Z" fill="white"/>
<path d="M47.7787 43.4919C47.7563 43.4606 47.2459 42.6828 46.2027 41.8783C45.5489 41.3776 44.9087 40.9932 44.2415 40.7072C43.4311 40.3674 42.5625 40.1261 41.7207 40.0099C40.9595 39.925 40.1133 39.9473 39.1238 40.0814C38.3716 40.2244 37.6373 40.4479 37.0149 40.7251C36.5716 40.877 36.2179 41.0916 35.9358 41.2659C35.8284 41.3329 35.7298 41.3911 35.6313 41.4447L34.2881 42.2895L35.8373 41.9229C35.909 41.9051 35.9895 41.8827 36.0701 41.8604C36.3925 41.7754 36.791 41.6682 37.2567 41.6011C37.3641 41.5832 37.4761 41.5609 37.5925 41.5385C37.7895 41.4983 37.991 41.4581 38.2014 41.4492C38.4342 41.4313 38.6805 41.4179 38.9312 41.4L39.2581 41.3776C40.1178 41.3687 40.8431 41.4313 41.4834 41.5788C42.1864 41.6994 42.9117 41.9274 43.5744 42.2359C44.2012 42.5354 44.8012 42.8348 45.2714 43.179C46.2161 43.8137 46.7445 44.3412 46.7489 44.3456C46.8788 44.4753 47.0534 44.5423 47.228 44.5423C47.3534 44.5423 47.4833 44.5065 47.5952 44.4305C47.9086 44.2249 47.9937 43.8048 47.7967 43.5008L47.7787 43.4919Z" fill="black"/>
<path d="M67.0504 41.4446C66.9608 41.3954 66.8623 41.3373 66.7548 41.2703C66.4728 41.0959 66.1235 40.8814 65.6892 40.7339C65.0534 40.4523 64.3191 40.2288 63.5579 40.0857C62.5818 39.9561 61.7356 39.9338 60.97 40.0187C60.1327 40.1349 59.2596 40.3763 58.4491 40.716C57.7954 40.9976 57.1328 41.391 56.488 41.8871C55.4627 42.6738 54.9522 43.4381 54.9164 43.4963L54.9074 43.5097C54.7328 43.7779 54.7731 44.1355 54.997 44.359C55.1223 44.4886 55.2925 44.5601 55.4716 44.5601C55.6507 44.5601 55.8208 44.4886 55.9462 44.359L55.9507 44.3545C55.9999 44.3053 56.5104 43.8047 57.4283 43.1923C57.8895 42.8526 58.4894 42.5531 59.1163 42.2536C59.7834 41.9452 60.5043 41.7172 61.2207 41.5921C61.8565 41.4446 62.5819 41.382 63.4281 41.391L63.7684 41.4133C64.0147 41.4312 64.2564 41.4491 64.4937 41.4625C64.6997 41.4714 64.9012 41.5116 65.0982 41.5519C65.2101 41.5742 65.3221 41.5966 65.434 41.6145C65.9041 41.6815 66.3026 41.7888 66.6205 41.8737C66.7056 41.896 66.7817 41.9184 66.8578 41.9363L68.4071 42.3028L67.0504 41.4446Z" fill="black"/>
<path d="M49.6778 65.1259C49.6419 65.117 49.6061 65.1125 49.5703 65.1035C49.6061 65.1125 49.6375 65.117 49.6778 65.1259Z" fill="#C5997D"/>
<path d="M49.395 65.0635C49.3636 65.0545 49.3323 65.0456 49.2965 65.0366H49.292C49.2965 65.0366 49.3323 65.0455 49.395 65.0635Z" fill="#C5997D"/>
<path d="M47.2193 66.5161C47.1387 65.4344 50.2327 66.7441 51.2491 66.7754C52.0595 66.8022 54.4952 66.6145 54.7191 66.5295C56.4205 65.8903 54.6251 68.3398 51.1998 68.4694C49.6237 68.5275 47.2641 67.1732 47.2193 66.5161Z" fill="#F3DBB5"/>
<path d="M57.2891 64.4289C56.4473 64.3887 55.5877 65.0905 54.5758 64.9832C54.5355 64.9609 54.5131 64.9608 54.4728 64.9608C54.24 64.9206 54.0116 64.9608 53.7564 65.0234C53.443 65.0905 53.1251 65.2156 52.8296 65.3184C52.3236 65.4838 51.755 65.6134 51.1729 65.5687V65.5732C51.1595 65.5732 51.1505 65.5687 51.1415 65.5687C51.1281 65.5687 51.1192 65.5732 51.1102 65.5732V65.5687C50.5237 65.6134 49.955 65.4838 49.4535 65.3184C49.158 65.2156 48.8401 65.086 48.5267 65.0234C48.276 64.9608 48.0432 64.9206 47.8103 64.9608C47.7655 64.9608 47.7476 64.9609 47.7074 64.9832C46.6954 65.0905 45.8357 64.3887 44.994 64.4289C44.7611 64.4513 44.4254 64.3887 44.2373 64.3887C44.2776 64.411 44.3223 64.4289 44.3626 64.4513C46.7581 65.6179 48.8222 67.8081 51.1102 67.7366C51.1237 67.7366 51.1326 67.7366 51.1415 67.7366C51.155 67.7366 51.164 67.7366 51.1729 67.7366C53.4609 67.8081 55.525 65.6179 57.9205 64.4513C57.9652 64.4289 58.0055 64.411 58.0458 64.3887C57.8578 64.3887 57.5219 64.4468 57.2891 64.4289Z" fill="#E2C8A4"/>
<path d="M57.9921 64.3619C57.9921 64.3619 55.5563 63.4232 53.828 63.973C53.828 63.973 53.1833 64.2233 52.5162 64.3797C52.1087 64.5362 51.6162 64.5853 51.1415 64.563C50.7789 64.5496 50.4296 64.5004 50.1476 64.4512C50.0535 64.4378 49.9595 64.4155 49.861 64.3976C49.8207 64.3887 49.7894 64.3842 49.7535 64.3752C49.6953 64.3618 49.6371 64.3484 49.5789 64.335C49.5162 64.3216 49.4804 64.3082 49.4804 64.3082H49.4849C48.9297 64.1563 48.4551 63.973 48.4551 63.973C46.7223 63.4232 44.291 64.3619 44.291 64.3619C44.2597 64.3753 44.2373 64.3887 44.2373 64.3887C44.4254 64.3887 44.7611 64.4513 44.994 64.4289C45.8357 64.3887 46.6954 65.0905 47.7074 64.9832C47.7476 64.9608 47.77 64.9608 47.8103 64.9608C48.0432 64.9206 48.2715 64.9608 48.5267 65.0234C48.8401 65.0905 49.158 65.2156 49.4535 65.3184C49.9595 65.4838 50.5282 65.6134 51.1102 65.5687V65.5732C51.1237 65.5732 51.1326 65.5687 51.1415 65.5687C51.155 65.5687 51.164 65.5732 51.1729 65.5732V65.5687C51.7595 65.6134 52.3281 65.4838 52.8296 65.3184C53.1251 65.2156 53.443 65.086 53.7564 65.0234C54.0071 64.9608 54.24 64.9206 54.4728 64.9608C54.5176 64.9608 54.5355 64.9608 54.5758 64.9832C55.5877 65.0905 56.4473 64.3887 57.2891 64.4289C57.5219 64.4513 57.8578 64.3887 58.0458 64.3887C58.0458 64.3887 58.0234 64.3753 57.9921 64.3619Z" fill="#CCA686"/>
<path d="M47.0537 64.934C47.0985 64.9429 51.6163 66.3241 55.149 64.9653L54.7416 64.6926H49.9686L47.0537 64.934Z" fill="#CCA686"/>
<path d="M69.1238 96.8442C69.1596 98.1673 69.2044 99.2311 69.2537 99.9999H34.298C34.4099 98.2701 34.5263 95.1009 34.4681 90.8188H31.6562C31.8756 89.9427 32.1309 89.1158 32.404 88.3559C32.9055 86.9926 33.492 85.8036 34.1144 84.78C34.7994 83.6625 35.5427 82.7283 36.2949 81.9551C38.3993 79.7648 40.5978 78.8127 41.8962 78.4149C42.6037 78.1959 43.0425 78.1422 43.0425 78.1422C43.1231 78.1422 43.1858 78.1333 43.2619 78.1199C44.8021 80.1939 47.6588 83.1709 51.4109 83.2469C52.2437 83.2692 53.1168 83.144 54.0213 82.8401C55.9108 82.2009 57.9749 80.7839 60.1599 78.1959H60.1689C60.5002 78.2629 61.0688 78.4104 61.7987 78.6965C63.1509 79.2239 65.0269 80.2476 66.8179 82.1696C67.194 82.5764 67.5656 83.0189 67.9328 83.5061C68.8955 84.7979 69.7865 86.3891 70.5118 88.3559C70.7939 89.1158 71.0492 89.9427 71.2685 90.8188H69.088C69.0567 93.1878 69.079 95.2127 69.1238 96.8442Z" fill="#816290"/>
<path d="M67.937 83.5061L51.4196 99.9999L34.123 84.78C34.8081 83.6625 35.5514 82.7283 36.3036 81.9551C38.408 79.7648 40.6064 78.8127 41.9049 78.4149C42.6123 78.1959 43.0512 78.1422 43.0512 78.1422C43.1318 78.1422 43.1944 78.1333 43.2706 78.1199C44.8108 80.1939 47.6674 83.1709 51.4196 83.2469C52.2524 83.2692 53.1255 83.144 54.03 82.8401C55.9195 82.2009 57.9836 80.7839 60.1686 78.1959H60.1775C60.5089 78.2629 61.0775 78.4104 61.8073 78.6965C63.1595 79.2239 65.0356 80.2476 66.8266 82.1696C67.2027 82.5719 67.5743 83.0189 67.937 83.5061Z" fill="#9B372E"/>
<path d="M70.2652 23.1718C68.2637 21.3078 65.7251 20.6418 65.7251 20.6418C65.7251 20.6418 60.1192 17.8437 55.8432 15.8457C51.5762 13.8476 44.6316 15.4434 41.0228 16.3776C37.4184 17.3118 33.1245 22.4253 31.7902 25.2234C30.4559 28.026 27.1381 34.1051 26.0725 38.5035C25.0024 42.9018 28.5933 47.1705 30.832 48.0779C32.2872 48.6724 32.3768 52.0873 32.3768 52.0873L33.9708 52.7892C33.9708 52.7892 32.9902 50.4022 33.1335 47.993C33.2275 46.3883 32.9678 41.5653 32.9678 41.5653C32.9678 41.5653 35.9319 40.9797 39.3975 40.1886C39.3975 40.1886 57.7104 33.8503 45.5764 46.5805C55.0955 43.3488 58.4626 33.153 58.8969 31.6958C58.9238 31.669 58.9506 31.6467 58.973 31.6243C60.1864 31.9059 62.1878 32.6211 64.6728 34.4627C67.1981 36.3356 70.31 38.9281 70.31 44.5288C70.31 46.4062 69.4682 51.855 69.4682 51.855L70.31 51.2604C70.31 51.2604 70.31 49.1462 72.7054 47.8231C74.6128 46.7638 75.1009 43.1744 75.1009 41.6904C75.1009 31.7628 72.2666 25.0402 70.2652 23.1718Z" fill="#393B36"/>
</svg>
