<svg width="100" height="100" viewBox="0 0 100 100" fill="none" xmlns="http://www.w3.org/2000/svg">
<path d="M95 0H5C2.23858 0 0 2.23857 0 5V94.9999C0 97.7613 2.23858 99.9999 5 99.9999H95C97.7614 99.9999 100 97.7613 100 94.9999V5C100 2.23858 97.7614 0 95 0Z" fill="#6F393C"/>
<path d="M51.3955 62.5046V99.9598H30.9377C30.6036 99.8301 30.4365 99.763 30.4365 99.763C30.4365 97.3748 30.6171 95.2371 30.9287 93.3498C31.0731 92.4777 31.2492 91.6548 31.4479 90.8856C31.6691 89.9732 31.9311 89.1279 32.2245 88.3453C32.2877 88.1888 32.3419 88.0278 32.4051 87.8802C32.4728 87.7103 32.5451 87.5448 32.6128 87.3793C32.6805 87.2139 32.7528 87.0573 32.8295 86.9008C32.9695 86.5788 33.1185 86.2747 33.272 85.9795C33.5339 85.4697 33.8138 84.9911 34.1028 84.5439C34.1795 84.4186 34.2563 84.3024 34.333 84.1951C34.7078 83.645 35.0961 83.1396 35.4889 82.679C35.6018 82.5537 35.7102 82.424 35.823 82.3077C35.9359 82.1825 36.0443 82.0663 36.1571 81.95C36.27 81.8382 36.3874 81.7219 36.4958 81.619C36.6087 81.5072 36.717 81.4043 36.8299 81.3104C37.0511 81.1047 37.2814 80.9124 37.5026 80.7424C38.5908 79.8793 39.6382 79.2934 40.5232 78.9088C40.6361 78.8596 40.7445 78.8149 40.8574 78.7657C41.205 78.6271 41.5165 78.5198 41.792 78.4348C42.5144 78.2067 42.9568 78.1619 42.9568 78.1619C43.0381 78.1619 43.1103 78.153 43.1871 78.1396C43.8328 78.0367 44.352 77.4822 44.7764 76.6011C45.088 75.9437 45.3453 75.1029 45.5575 74.1369C45.6388 73.7523 45.711 73.3766 45.7742 72.9652C45.8781 72.272 45.9774 71.543 46.0587 70.7872C46.0948 70.3265 46.14 69.8793 46.1896 69.4008C46.3748 67.1065 46.4244 64.6021 46.4244 62.2273C46.4199 62.2273 49.1606 62.5046 51.3955 62.5046Z" fill="#E5C69F"/>
<path d="M72.4348 99.7629C72.4348 99.7629 72.2542 99.83 71.9517 99.9597H51.3945V62.5044H51.4442C53.6611 62.5044 56.4424 62.2227 56.4424 62.2227C56.4424 64.5751 56.492 67.0571 56.6726 69.3469C56.7268 69.7942 56.7765 70.2548 56.8126 70.6976C56.8939 71.4892 56.9932 72.2271 57.1106 72.9203V72.9337C57.1468 73.2512 57.2054 73.533 57.2641 73.8282C57.4673 74.8031 57.7066 75.6618 58.0046 76.3461C58.3703 77.2047 58.8173 77.7996 59.3637 78.0366C59.5307 78.1126 59.7158 78.1529 59.91 78.1529C59.91 78.1529 60.6911 78.2423 61.8695 78.703C62.4926 78.9445 63.2285 79.2844 64.0096 79.7718C64.1677 79.8658 64.3347 79.9775 64.4928 80.0893C64.6237 80.1698 64.7546 80.2682 64.8856 80.3621C64.9985 80.4426 65.1204 80.5321 65.2333 80.6215C65.4771 80.8049 65.7254 81.0106 65.9737 81.2387C66.0686 81.3192 66.1588 81.4087 66.2581 81.4981C66.371 81.592 66.4749 81.6994 66.5833 81.8156C66.66 81.8827 66.7277 81.9543 66.8 82.0303C66.9445 82.1824 67.098 82.3479 67.2424 82.5178C67.3192 82.5983 67.396 82.6833 67.4637 82.7727C67.7978 83.1573 68.1229 83.5777 68.4344 84.0339C68.5744 84.2262 68.6963 84.423 68.8272 84.6332C69.0891 85.0536 69.3465 85.4963 69.5948 85.9704C69.9018 86.5607 70.1908 87.1913 70.4617 87.8711C70.5249 88.0232 70.5881 88.1797 70.6423 88.3362C70.9313 89.1188 71.1977 89.9641 71.4234 90.8765C71.6266 91.6457 71.7982 92.4686 71.9381 93.3407C72.2542 95.2369 72.4348 97.3747 72.4348 99.7629Z" fill="#F2DAB5"/>
<mask id="mask0_732_8197" style="mask-type:luminance" maskUnits="userSpaceOnUse" x="45" y="69" width="13" height="7">
<path d="M57.1059 69.302H45.7686V75.921H57.1059V69.302Z" fill="white"/>
</mask>
<g mask="url(#mask0_732_8197)">
<path d="M57.1014 72.8575V72.8754C56.5867 73.6625 54.8528 75.9211 51.4259 75.9211H51.3943C48.148 75.9032 46.2517 73.5776 45.7686 72.8889C45.8679 72.2001 45.9672 71.4801 46.053 70.7243C46.0846 70.2815 46.1342 69.8209 46.1839 69.3468C47.7642 69.7404 49.498 69.9863 51.3266 70.0176H51.3943C53.2907 69.9863 55.038 69.7225 56.6724 69.2976C56.7221 69.7404 56.7718 70.201 56.8034 70.6393C56.8847 71.4309 56.9885 72.1688 57.1014 72.8575Z" fill="#C69F82"/>
</g>
<path d="M51.5219 19.8479C29.8495 19.8479 29.7321 37.7906 30.6983 49.5392C29.2174 46.753 24.8061 47.6072 25.1718 51.999C25.5195 56.2253 31.8226 58.381 31.6465 57.9159C34.929 66.6055 43.616 73.1573 51.5219 73.1573H51.6889V19.8479H51.5219Z" fill="#D7AE89"/>
<path d="M26.5533 50.1475C27.6189 48.4436 29.285 49.1815 29.6823 49.5572C30.1158 49.9686 30.4634 50.4919 30.197 51.4892C30.048 52.0617 29.4475 52.1108 29.5829 52.965C29.75 53.931 30.197 53.9803 30.4634 54.2083C30.7117 54.423 31.0278 54.584 31.1813 54.9955C31.3483 55.4069 31.3664 55.8318 31.2806 56.2074C31.1135 56.8962 30.0977 56.3371 29.4159 56.042C28.9644 55.8273 27.5331 54.6332 27.1674 54.2396C26.2734 53.2289 25.8399 51.2611 26.5533 50.1475Z" fill="#B48E76"/>
<path d="M51.6393 19.8479C73.3117 19.8479 73.4291 37.7906 72.4764 49.5392C73.9573 46.753 78.3505 47.6072 77.9848 51.999C77.6507 56.2253 71.3386 58.381 71.5102 57.9159C68.3135 66.6055 59.5407 73.1573 51.6348 73.1573C51.5852 73.1573 51.5174 73.1573 51.5174 73.1573L51.4678 19.8524C51.4723 19.8479 51.5897 19.8479 51.6393 19.8479Z" fill="#E1BE9D"/>
<path d="M76.6079 50.1475C75.5424 48.4436 73.8944 49.1815 73.479 49.5572C73.0456 49.9686 72.7114 50.4919 72.9643 51.4892C73.1133 52.0617 73.7138 52.1108 73.5783 52.965C73.4113 53.931 72.9642 53.9803 72.7114 54.2083C72.4631 54.423 72.129 54.584 71.98 54.9955C71.831 55.4069 71.7949 55.8318 71.8806 56.2074C72.0477 56.8962 73.0636 56.3371 73.7454 56.042C74.2104 55.8273 75.6282 54.6332 75.9939 54.2396C76.9059 53.2289 77.3213 51.2611 76.6079 50.1475Z" fill="#B48E76"/>
<path d="M51.3504 24.9151C44.2256 24.9151 39.0017 26.9634 35.8547 30.9929C31.4434 36.6459 31.6105 45.2639 33.2269 51.458C33.7281 53.3587 33.9944 58.4572 34.324 60.3221C35.8727 68.6942 45.2099 73.153 51.3504 73.153C51.3504 73.153 51.4678 73.153 51.5175 73.153V24.9106C51.4678 24.9106 51.4181 24.9106 51.4181 24.9106" fill="#E5C69F"/>
<path d="M66.8327 31.0107C63.7037 26.9946 58.543 24.9463 51.5176 24.915V73.1574C58.543 73.0769 66.9456 68.1932 68.3769 60.3265C68.7245 58.4571 68.9774 53.3631 69.4741 51.4624C71.1085 45.2817 71.2755 36.6771 66.8327 31.0107Z" fill="#F2DAB5"/>
<path d="M50.3792 64.602C50.3431 64.593 50.3115 64.5885 50.2754 64.5796C50.3115 64.5885 50.3431 64.5975 50.3792 64.602Z" fill="#C3987D"/>
<path d="M50.1182 64.5439C50.0866 64.535 50.0596 64.526 50.028 64.5171H50.0234C50.0234 64.5216 50.0595 64.5305 50.1182 64.5439Z" fill="#C3987D"/>
<path d="M45.4655 25.0315L45.376 25.1209L45.3894 25.1523C45.4207 25.1075 45.4341 25.0628 45.4655 25.0315Z" fill="#473217"/>
<path d="M50.4378 63.6271C50.4017 63.6181 50.3701 63.6137 50.334 63.6047C50.3701 63.6092 50.4017 63.6181 50.4378 63.6271Z" fill="#C1977D"/>
<path d="M50.1677 63.5645C50.1361 63.5555 50.1045 63.5465 50.0729 63.5376H50.0684C50.0729 63.5421 50.109 63.551 50.1677 63.5645Z" fill="#C1977D"/>
<path d="M47.2819 58.3005C47.1961 56.5877 50.456 57.6744 51.5306 57.7281C52.3794 57.7728 54.9621 57.1869 55.1833 57.339C56.7049 58.3542 53.5714 60.398 51.4764 60.398C50.9211 60.398 47.3316 59.3336 47.2819 58.3005Z" fill="#E1BD9C"/>
<path d="M35.9717 43.7432C35.9717 43.7432 37.6242 50.4606 40.4642 51.0107C43.3042 51.5608 46.3744 50.4695 46.3744 50.4695C46.3744 50.4695 46.6679 42.576 45.214 41.5429C43.7602 40.5053 40.4145 39.0071 35.9717 43.7432Z" fill="white"/>
<path d="M46.3793 50.4472C46.3793 50.4472 46.3161 50.4651 46.1671 50.5277C46.1309 48.1083 45.9052 44.7809 44.9977 44.1413C43.6477 43.1619 40.6 41.7845 36.5319 45.5546C36.1617 44.5125 35.9766 43.7254 35.9766 43.7254C40.4284 38.9803 43.7786 40.4741 45.2189 41.5116C46.6728 42.5447 46.3793 50.4472 46.3793 50.4472Z" fill="#DCBC9B"/>
<path d="M41.9052 49.7942C43.4487 49.7942 44.7 48.5548 44.7 47.0259C44.7 45.497 43.4487 44.2576 41.9052 44.2576C40.3616 44.2576 39.1104 45.497 39.1104 47.0259C39.1104 48.5548 40.3616 49.7942 41.9052 49.7942Z" fill="#4D2A12"/>
<path d="M41.7733 48.8687C40.9652 48.8016 40.3466 47.9966 40.4188 47.1111C40.4911 46.2256 41.2361 45.5324 42.0443 45.5995C42.8525 45.6665 43.4711 46.4716 43.3988 47.3571C43.3221 48.2426 42.5815 48.9357 41.7733 48.8687Z" fill="#80401C"/>
<path d="M41.8416 48.5464C41.2818 48.4972 40.6993 47.889 40.758 47.1376C40.8212 46.3818 41.494 45.8765 42.0583 45.9212C42.6182 45.9704 43.2007 46.5831 43.1375 47.3345C43.0788 48.0858 42.4015 48.5956 41.8416 48.5464Z" fill="#241C09"/>
<path d="M41.3902 46.6948C41.3676 46.9676 41.0832 47.1644 40.7626 47.1375C40.4375 47.1107 40.1937 46.8692 40.2163 46.5964C40.2389 46.3236 40.5188 46.1268 40.8439 46.1492C41.1645 46.1805 41.4083 46.422 41.3902 46.6948Z" fill="white"/>
<path d="M43.1998 48.2646C43.1862 48.3988 43.0463 48.5017 42.8882 48.4882C42.7257 48.4748 42.6037 48.3541 42.6128 48.2199C42.6263 48.0857 42.7663 47.9829 42.9243 47.9963C43.0869 48.0097 43.2088 48.1305 43.1998 48.2646Z" fill="white"/>
<path d="M50.4827 64.4186C50.4466 64.4096 50.415 64.4052 50.3789 64.3962C50.415 64.4052 50.4421 64.4096 50.4827 64.4186Z" fill="#C1977D"/>
<path d="M50.2126 64.3559C50.181 64.347 50.1494 64.338 50.1177 64.3291H50.1133C50.1178 64.3336 50.1539 64.3425 50.2126 64.3559Z" fill="#C1977D"/>
<path d="M50.357 64.2262C50.3209 64.2173 50.2803 64.2128 50.2441 64.2039C50.2803 64.2128 50.3164 64.2173 50.357 64.2262Z" fill="#C3987D"/>
<path d="M50.0687 64.1638C50.0326 64.1549 50.001 64.1459 49.9694 64.137H49.9648C49.9648 64.137 50.001 64.1459 50.0687 64.1638Z" fill="#C3987D"/>
<path d="M50.276 63.9489C50.2398 63.94 50.1992 63.9355 50.1631 63.9265C50.1992 63.931 50.2308 63.94 50.276 63.9489Z" fill="#C3987D"/>
<path d="M49.9818 63.8818C49.9456 63.8729 49.9141 63.8639 49.8824 63.855H49.8779C49.8779 63.855 49.9186 63.8684 49.9818 63.8818Z" fill="#C3987D"/>
<path d="M50.5332 63.9088C50.497 63.8999 50.4609 63.8954 50.4248 63.8865C50.4609 63.8954 50.4925 63.8999 50.5332 63.9088Z" fill="#C3987D"/>
<path d="M50.2536 63.8462C50.222 63.8373 50.1904 63.8283 50.1588 63.8193H50.1543C50.1543 63.8193 50.1904 63.8328 50.2536 63.8462Z" fill="#C3987D"/>
<path d="M67.2346 43.5152C67.2346 43.5152 65.5821 50.2325 62.7421 50.7826C59.9021 51.3327 56.8319 50.2415 56.8319 50.2415C56.8319 50.2415 56.5384 42.348 57.9922 41.3149C59.4461 40.2773 62.7918 38.7791 67.2346 43.5152Z" fill="white"/>
<path d="M56.827 50.2192C56.827 50.2192 56.8902 50.2371 57.0392 50.2997C57.0753 47.8802 57.3011 44.5528 58.2086 43.9133C59.5586 42.9339 62.6063 41.5564 66.6744 45.3265C67.0446 44.2845 67.2297 43.4974 67.2297 43.4974C62.7779 38.7523 59.4277 40.246 57.9874 41.2836C56.5335 42.3167 56.827 50.2192 56.827 50.2192Z" fill="#DCBC9B"/>
<path d="M58.5117 46.7979C58.5117 48.3274 59.7624 49.5662 61.3065 49.5662C62.8507 49.5662 64.1014 48.3274 64.1014 46.7979C64.1014 45.2684 62.8507 44.0295 61.3065 44.0295C59.7624 44.0295 58.5117 45.2684 58.5117 46.7979Z" fill="#4D2A12"/>
<path d="M61.4319 48.6404C62.2401 48.5734 62.8587 47.7683 62.7865 46.8828C62.7142 45.9973 61.9692 45.3041 61.161 45.3712C60.3528 45.4383 59.7343 46.2433 59.8065 47.1288C59.8788 48.0099 60.6237 48.7075 61.4319 48.6404Z" fill="#80401C"/>
<path d="M61.365 48.3184C61.9249 48.2692 62.5073 47.661 62.4486 46.9097C62.3854 46.1539 61.7127 45.6485 61.1483 45.6932C60.5884 45.7424 60.006 46.3551 60.0692 47.1064C60.1279 47.8578 60.8006 48.3676 61.365 48.3184Z" fill="#241C09"/>
<path d="M61.8159 46.467C61.8385 46.7398 62.1229 46.9367 62.4435 46.9098C62.7686 46.883 63.0124 46.6414 62.9898 46.3686C62.9672 46.0958 62.6873 45.899 62.3623 45.9214C62.0372 45.9482 61.7933 46.1942 61.8159 46.467Z" fill="white"/>
<path d="M60.0054 48.0367C60.0189 48.1709 60.1589 48.2737 60.3169 48.2558C60.4795 48.2424 60.6014 48.1217 60.5923 47.9875C60.5788 47.8534 60.4388 47.7505 60.2808 47.7684C60.1182 47.7773 59.9963 47.9025 60.0054 48.0367Z" fill="white"/>
<path d="M48.0776 43.6361C48.055 43.6048 47.5403 42.8267 46.4882 42.0261C45.829 41.5252 45.1834 41.1451 44.5106 40.8589C43.6934 40.519 42.8175 40.2775 41.9687 40.1657C41.2011 40.0807 40.3477 40.1031 39.3499 40.2372C38.5914 40.3803 37.8509 40.6039 37.2233 40.8767C36.7763 41.0288 36.4196 41.2435 36.1352 41.4179C36.0268 41.485 35.9275 41.5431 35.8282 41.5968L34.4736 42.442L36.0358 42.0798C36.1081 42.0619 36.1894 42.0395 36.2706 42.0172C36.5957 41.9322 36.9976 41.8249 37.4671 41.7578C37.5755 41.7399 37.6884 41.722 37.8058 41.6952C38.0044 41.6549 38.2076 41.6147 38.4198 41.6057C38.6546 41.5878 38.9029 41.5744 39.1558 41.5565L39.4854 41.5342C40.3523 41.5252 41.0837 41.5878 41.7293 41.7354C42.4382 41.8562 43.1697 42.0842 43.8379 42.3884C44.47 42.688 45.075 42.9832 45.5491 43.3276C46.5018 43.9582 47.0346 44.4859 47.0391 44.4904C47.17 44.6201 47.3461 44.6871 47.5222 44.6871C47.6486 44.6871 47.7796 44.6513 47.8924 44.5798C48.2085 44.3741 48.2943 43.9537 48.0956 43.654L48.0776 43.6361Z" fill="black"/>
<path d="M67.5152 41.5924C67.4249 41.5432 67.3256 41.485 67.2172 41.4179C66.9328 41.2435 66.5806 41.0288 66.1426 40.8812C65.5015 40.5995 64.761 40.3759 63.9934 40.2328C63.0092 40.1031 62.1558 40.0807 61.3837 40.1657C60.5394 40.282 59.659 40.519 58.8417 40.8589C58.1825 41.1407 57.5143 41.5297 56.8641 42.0262C55.8302 42.8133 55.3154 43.5736 55.2748 43.6317L55.2658 43.6451C55.0897 43.9135 55.1303 44.2668 55.3561 44.4904C55.4825 44.6201 55.6541 44.6871 55.8392 44.6871C56.0198 44.6871 56.1914 44.6156 56.3178 44.4904L56.3223 44.4859C56.372 44.4367 56.8867 43.9358 57.8123 43.3231C58.2773 42.9832 58.8824 42.688 59.5145 42.3884C60.1872 42.0798 60.9141 41.8517 61.6365 41.731C62.2777 41.5834 63.0091 41.5208 63.8625 41.5297L64.2056 41.5521C64.454 41.57 64.6978 41.5878 64.9371 41.6013C65.1448 41.6102 65.3479 41.6505 65.5466 41.6907C65.6595 41.7131 65.7724 41.7355 65.8852 41.7534C66.3593 41.8204 66.7612 41.9278 67.0817 42.0127C67.1675 42.0351 67.2443 42.0575 67.3211 42.0754L68.8833 42.4376L67.5152 41.5924Z" fill="black"/>
<path d="M49.4808 66.7621C49.4447 66.7531 49.4131 66.7487 49.377 66.7397C49.4131 66.7487 49.4402 66.7531 49.4808 66.7621Z" fill="#C5997D"/>
<path d="M49.2146 66.7041C49.1829 66.6951 49.1514 66.6862 49.1198 66.6772H49.1152C49.1152 66.6772 49.1513 66.6862 49.2146 66.7041Z" fill="#C5997D"/>
<path d="M49.4036 66.5026C49.3675 66.4937 49.3359 66.4892 49.2998 66.4802C49.3359 66.4892 49.363 66.4937 49.4036 66.5026Z" fill="#C5997D"/>
<path d="M49.1335 66.4445C49.1019 66.4356 49.0703 66.4267 49.0387 66.4177H49.0342C49.0387 66.4177 49.0748 66.4266 49.1335 66.4445Z" fill="#C5997D"/>
<path d="M49.6433 66.467C49.6117 66.458 49.5756 66.4535 49.5439 66.4446C49.5756 66.4535 49.6071 66.458 49.6433 66.467Z" fill="#C5997D"/>
<path d="M49.3868 66.4089C49.3552 66.4 49.3281 66.391 49.2965 66.3821H49.292C49.292 66.3866 49.3281 66.3955 49.3868 66.4089Z" fill="#C5997D"/>
<path d="M47.3766 67.2675C47.2953 66.1986 50.3791 67.4911 51.3905 67.5224C52.1987 67.5493 54.6233 67.3659 54.8491 67.2809C56.5467 66.6548 54.7542 69.0653 51.3408 69.1906C49.7741 69.2532 47.4217 67.9115 47.3766 67.2675Z" fill="#F3DBB5"/>
<path d="M57.5369 64.7006C55.5819 64.3383 51.4642 64.7229 51.4642 64.7229C48.0689 65.282 45.4094 64.6872 45.3914 64.7095C45.3101 64.7185 48.1049 68.3857 51.419 68.2202C54.7331 68.3902 57.6182 64.714 57.5369 64.7006Z" fill="#C56B70"/>
<path d="M53.4265 63.9266C52.5461 63.8282 51.9185 64.4588 51.467 64.4141C51.0064 64.4543 50.4104 64.0519 49.5255 64.0429C48.2793 64.0295 47.6698 63.9222 45.3896 64.7138C45.4709 64.8658 46.9293 65.7066 49.6654 65.7513C49.7061 65.7513 50.4375 66.1628 51.4805 66.1583C52.1352 66.1538 53.0292 65.7245 53.0653 65.7245C55.8059 65.6842 57.4765 64.8748 57.5533 64.7272C54.5417 63.797 54.781 63.9132 53.4265 63.9266Z" fill="#D87A77"/>
<path d="M44.6818 78.1754C44.6818 78.8775 44.1084 79.4455 43.3995 79.4455C42.6906 79.4455 42.1172 78.8775 42.1172 78.1754C42.1172 77.4732 42.6906 76.9053 43.3995 76.9053C44.1084 76.9053 44.6818 77.4732 44.6818 78.1754Z" fill="#FDFEFE"/>
<path d="M45.9191 80.3847C45.9191 81.0868 45.3457 81.6548 44.6368 81.6548C43.9325 81.6548 43.3545 81.0868 43.3545 80.3847C43.3545 79.6825 43.9279 79.1145 44.6368 79.1145C45.3457 79.1145 45.9191 79.6825 45.9191 80.3847Z" fill="#BC0C24"/>
<path d="M46.1905 83.6807C46.8987 83.6807 47.4727 83.112 47.4727 82.4105C47.4727 81.709 46.8987 81.1404 46.1905 81.1404C45.4823 81.1404 44.9082 81.709 44.9082 82.4105C44.9082 83.112 45.4823 83.6807 46.1905 83.6807Z" fill="#FDFEFE"/>
<path d="M49.4181 84.0518C49.4181 84.754 48.8447 85.322 48.1358 85.322C47.427 85.322 46.8535 84.754 46.8535 84.0518C46.8535 83.3497 47.427 82.7817 48.1358 82.7817C48.8447 82.7817 49.4181 83.3542 49.4181 84.0518Z" fill="#BC0C24"/>
<path d="M51.8068 84.9957C51.8068 85.6978 51.2333 86.2659 50.5245 86.2659C49.8156 86.2659 49.2422 85.6978 49.2422 84.9957C49.2422 84.2935 49.8156 83.7256 50.5245 83.7256C51.2333 83.7256 51.8068 84.298 51.8068 84.9957Z" fill="#FDFEFE"/>
<path d="M53.0889 83.2468C53.7978 83.2468 54.3712 83.8148 54.3712 84.5169C54.3712 85.2191 53.7978 85.787 53.0889 85.787C52.3846 85.787 51.8066 85.2191 51.8066 84.5169C51.8066 83.8148 52.3846 83.2468 53.0889 83.2468Z" fill="#BC0C24"/>
<path d="M55.3194 82.0215C56.0282 82.0215 56.6017 82.5895 56.6017 83.2916C56.6017 83.9938 56.0282 84.5618 55.3194 84.5618C54.615 84.5618 54.0371 83.9938 54.0371 83.2916C54.0371 82.5895 54.615 82.0215 55.3194 82.0215Z" fill="#FDFEFE"/>
<path d="M57.3643 80.4832C58.0732 80.4832 58.6466 81.0511 58.6466 81.7533C58.6466 82.4554 58.0732 83.0234 57.3643 83.0234C56.6554 83.0234 56.082 82.4554 56.082 81.7533C56.082 81.0511 56.6599 80.4832 57.3643 80.4832Z" fill="#BC0C24"/>
<path d="M59.0206 78.5554C59.7295 78.5554 60.3029 79.1234 60.3029 79.8256C60.3029 80.5277 59.7295 81.0957 59.0206 81.0957C58.3163 81.0957 57.7383 80.5277 57.7383 79.8256C57.7428 79.1234 58.3163 78.5554 59.0206 78.5554Z" fill="#FDFEFE"/>
<path d="M59.9746 76.1853C60.6835 76.1853 61.2569 76.7533 61.2569 77.4554C61.2569 78.1576 60.6835 78.7255 59.9746 78.7255C59.2703 78.7255 58.6924 78.1576 58.6924 77.4554C58.6969 76.7577 59.2703 76.1853 59.9746 76.1853Z" fill="#BC0C24"/>
<path d="M58.1993 99.9956H45.1553V87.8848L46.6362 88.5645C49.8374 90.0359 53.6617 90.018 56.8493 88.5198L58.1993 87.8848V99.9956Z" fill="#FDFEFE"/>
<path d="M39.4627 81.6816C38.1082 80.5724 36.1215 80.5724 34.7896 81.7084C32.3424 83.7924 29.9675 87.1198 28.771 92.4373C28.771 92.4463 28.7665 92.4552 28.7665 92.4642C28.5498 93.4257 29.1954 94.3738 30.2158 94.6153L34.4464 95.6082V100H50.3666V95.0626C50.3666 90.5724 47.7569 86.5429 43.7249 84.4901C42.0318 83.627 40.6005 82.6118 39.4627 81.6816Z" fill="#BC0C24"/>
<path d="M74.9046 92.4507C74.9046 92.4462 74.9001 92.4373 74.9001 92.4328C74.1235 88.846 72.4258 84.7047 68.8092 81.7396C67.4457 80.6215 65.4862 80.6126 64.1091 81.7128C62.6643 82.8666 61.2465 83.7789 59.8649 84.4856C55.9097 86.507 53.4219 90.5455 53.4219 94.9552V99.9954H69.1344V95.6036L73.4553 94.5885C74.4667 94.3514 75.1123 93.4122 74.9046 92.4507Z" fill="#BC0C24"/>
<path d="M76.9316 28.1753C75.9157 25.4562 73.1074 22.2987 69.1296 19.2129C64.0772 15.2996 60.8986 16.1047 56.7176 16.2165C56.7176 16.2165 56.704 16.2433 56.686 16.279C54.8484 15.9391 44.9739 14.2442 39.0953 16.118C32.6026 18.1932 27.2838 21.7531 23.5318 31.3193C19.7798 40.881 22.8591 48.712 23.586 52.0528C25.8932 62.6342 36.9506 69.3291 36.9506 69.3291C36.9506 69.3291 34.1602 66.5071 32.9096 63.6896C31.9433 61.5026 30.494 57.746 30.494 52.2182C30.494 50.0089 31.5009 47.5939 32.7109 45.483C33.5869 43.39 34.9143 41.4848 36.7384 39.915C36.7836 39.8658 36.8061 39.839 36.8061 39.839C36.8061 39.839 36.7926 39.8568 36.779 39.8792C36.9416 39.7406 37.0951 39.5975 37.2621 39.4633C42.8924 35.0537 50.6132 32.9203 57.6071 35.0044C57.7335 34.7093 57.8509 34.4052 57.9637 34.0832C58.1127 33.6583 58.1985 33.2737 58.2572 32.8935L65.4317 41.8381C65.7703 42.2272 66.3166 42.8846 66.9533 43.7388C68.8135 46.2164 71.3871 50.2817 71.3871 53.8148C71.3871 59.3425 69.9422 63.0948 68.9715 65.2817C67.7253 68.0992 64.9305 70.9257 64.9305 70.9257C64.9305 70.9257 65.0795 70.8363 65.3369 70.6619C88.3909 56.1046 81.3518 36.4132 76.9316 28.1753Z" fill="#9A6443"/>
<path d="M55.4191 93.108H48.213C47.8383 93.108 47.5312 92.8038 47.5312 92.4326C47.5312 92.0614 47.8383 91.7573 48.213 91.7573H55.4191C55.7939 91.7573 56.1009 92.0614 56.1009 92.4326C56.0963 92.8038 55.7894 93.108 55.4191 93.108Z" fill="#F8BF00"/>
<path d="M55.4191 95.8453H48.213C47.8383 95.8453 47.5312 95.5411 47.5312 95.1699C47.5312 94.7987 47.8383 94.4946 48.213 94.4946H55.4191C55.7939 94.4946 56.1009 94.7987 56.1009 95.1699C56.0963 95.5411 55.7894 95.8453 55.4191 95.8453Z" fill="#F8BF00"/>
<path d="M55.4191 98.5777H48.213C47.8383 98.5777 47.5312 98.2736 47.5312 97.9024C47.5312 97.5312 47.8383 97.2271 48.213 97.2271H55.4191C55.7939 97.2271 56.1009 97.5312 56.1009 97.9024C56.0963 98.2736 55.7894 98.5777 55.4191 98.5777Z" fill="#F8BF00"/>
</svg>
