<svg width="100" height="100" viewBox="0 0 100 100" fill="none" xmlns="http://www.w3.org/2000/svg">
<path d="M95 0H5C2.23858 0 0 2.23857 0 5V94.9999C0 97.7613 2.23858 99.9999 5 99.9999H95C97.7614 99.9999 100 97.7613 100 94.9999V5C100 2.23858 97.7614 0 95 0Z" fill="#8E6D47"/>
<path d="M47.6006 62.5403V100H27.1428C26.8087 99.8703 26.6416 99.8032 26.6416 99.8032C26.6416 95.0224 27.3505 91.2925 28.4296 88.3855C31.0348 81.3685 35.7982 79.1414 37.9925 78.4705C38.7104 78.2514 39.1574 78.1977 39.1574 78.1977C39.2342 78.1977 39.3064 78.1888 39.3832 78.1798C40.0288 78.0769 40.5526 77.5224 40.968 76.6369C41.2795 75.9794 41.5414 75.1431 41.7536 74.1726C41.8394 73.7925 41.9026 73.4124 41.9703 73.0009C42.0696 72.3077 42.169 71.5832 42.2547 70.8229C42.2864 70.3623 42.336 69.9151 42.3857 69.4365C42.5663 67.1467 42.6205 64.6378 42.6205 62.2585C42.625 62.2585 45.3702 62.5403 47.6006 62.5403Z" fill="#E5C69F"/>
<path d="M68.6428 99.7986C68.6428 99.7986 68.4577 99.8657 68.1597 99.9953H47.6025V62.5357H47.6522C49.8646 62.5357 52.6459 62.2539 52.6459 62.2539C52.6459 64.6108 52.6955 67.0884 52.8762 69.3782C52.9258 69.8255 52.9755 70.2861 53.0071 70.7289C53.0929 71.5204 53.1922 72.2628 53.3096 72.956V72.9694C53.3412 73.2825 53.4089 73.5643 53.4586 73.8594C53.6618 74.8344 53.9056 75.6931 54.1991 76.3773C54.5648 77.2315 55.0118 77.8308 55.5581 78.0634C55.7297 78.1394 55.9148 78.1796 56.1044 78.1796C56.1044 78.1796 56.8901 78.2736 58.073 78.7342C60.4795 79.6689 64.5251 82.1197 66.8503 88.3719C67.9339 91.2923 68.6428 95.0177 68.6428 99.7986Z" fill="#F2DAB5"/>
<mask id="mask0_732_8190" style="mask-type:luminance" maskUnits="userSpaceOnUse" x="41" y="69" width="13" height="7">
<path d="M53.313 69.3379H41.9756V75.9568H53.313V69.3379Z" fill="white"/>
</mask>
<g mask="url(#mask0_732_8190)">
<path d="M53.3143 72.8933V72.9112C52.7996 73.6983 51.0658 75.9613 47.6388 75.9613H47.6072C44.3609 75.9434 42.4646 73.6179 41.9814 72.9291C42.0808 72.2404 42.1801 71.5204 42.2659 70.7645C42.2975 70.3218 42.3472 69.8612 42.3968 69.3871C43.9771 69.7807 45.7109 70.0266 47.5395 70.0579H47.6072C49.5036 70.0266 51.2509 69.7628 52.8854 69.3379C52.935 69.7806 52.9847 70.2413 53.0163 70.6796C53.0976 71.4667 53.1969 72.2046 53.3143 72.8933Z" fill="#C69F82"/>
</g>
<path d="M62.8636 88.3857C63.5364 91.4044 63.9518 95.1388 63.9518 99.7676C63.9518 99.7676 63.8254 99.8302 63.5725 100H31.7638C31.5064 99.8302 31.3755 99.7676 31.3755 99.7676C31.3755 95.1477 31.7909 91.4134 32.4636 88.3857H28.4316C29.8313 84.6245 31.8496 82.2363 33.7594 80.7336C34.238 80.3579 34.7076 80.0314 35.1591 79.7586C36.2698 79.0878 37.2722 78.6942 37.9946 78.4751C37.9946 78.5422 37.9855 78.6137 37.9855 78.6808C37.9855 80.1298 38.8524 81.4626 40.3018 82.4957C41.3357 83.2291 42.6587 83.8195 44.1757 84.1907C45.2368 84.459 46.3926 84.6111 47.5982 84.6424C47.7426 84.6513 47.8871 84.6513 48.0406 84.6513C48.9707 84.6513 49.8647 84.5753 50.7136 84.4322C52.1629 84.1996 53.4768 83.7747 54.5875 83.2023C56.687 82.1155 58.0325 80.5234 58.0686 78.7479C58.9355 79.0833 60.0101 79.6111 61.1298 80.4429C61.5091 80.7247 61.8974 81.0332 62.2857 81.3821C63.9563 82.8982 65.6314 85.1254 66.8459 88.3857H62.8636Z" fill="#8FBDE4"/>
<path d="M47.3715 19.8523C25.6991 19.8523 25.5817 37.795 26.5479 49.5437C25.067 46.7574 20.6557 47.6117 21.0215 52.0034C21.3691 56.2297 27.6722 58.3854 27.4961 57.9202C30.7785 66.6099 39.4656 73.1617 47.3715 73.1617H47.5385V19.8523H47.3715Z" fill="#D7AE89"/>
<path d="M47.485 19.8523C69.1574 19.8523 69.2748 37.795 68.3221 49.5437C69.8031 46.7574 74.1963 47.6117 73.8305 52.0034C73.4964 56.2297 67.1843 58.3854 67.3559 57.9202C64.1592 66.6099 55.3864 73.1617 47.4805 73.1617C47.4309 73.1617 47.3631 73.1617 47.3631 73.1617L47.3135 19.8568C47.318 19.8523 47.4354 19.8523 47.485 19.8523Z" fill="#E1BE9D"/>
<path d="M47.2 24.915C40.0752 24.915 34.8513 26.9633 31.7043 30.9928C27.293 36.6458 27.4601 45.2639 29.0765 51.458C29.5777 53.3587 29.8441 58.4571 30.1737 60.322C31.7223 68.6941 41.0595 73.1529 47.2 73.1529C47.2 73.1529 47.3174 73.1529 47.3671 73.1529V24.915C47.3174 24.915 47.2678 24.915 47.2678 24.915" fill="#E5C69F"/>
<path d="M62.6784 31.0107C59.5495 26.9946 54.3887 24.9463 47.3633 24.915V73.1574C54.3887 73.0769 62.7913 68.1932 64.2226 60.3265C64.5702 58.4571 64.8231 53.3631 65.3198 51.4624C66.9587 45.2818 67.1258 36.6816 62.6784 31.0107Z" fill="#F2DAB5"/>
<path d="M42.4859 23.8103L42.3965 23.8998L42.4099 23.9311C42.4412 23.8863 42.4546 23.8416 42.4859 23.8103Z" fill="#473217"/>
<path d="M31.8174 43.7432C31.8174 43.7432 33.4699 50.4606 36.3099 51.0107C39.1499 51.5608 42.2201 50.4695 42.2201 50.4695C42.2201 50.4695 42.5136 42.576 41.0598 41.5429C39.6104 40.5053 36.2602 39.0071 31.8174 43.7432Z" fill="white"/>
<path d="M63.0852 43.5152C63.0852 43.5152 61.4327 50.2326 58.5927 50.7826C55.7527 51.3327 52.6825 50.2415 52.6825 50.2415C52.6825 50.2415 52.389 42.348 53.8429 41.3149C55.2922 40.2773 58.6424 38.7791 63.0852 43.5152Z" fill="white"/>
<path d="M22.4041 50.1519C23.4696 48.448 25.1357 49.1859 25.533 49.5616C25.9665 49.973 26.3141 50.4963 26.0477 51.4936C25.8987 52.066 25.2982 52.1152 25.4337 52.9694C25.6007 53.9355 26.0477 53.9846 26.3141 54.2127C26.5624 54.4274 26.8785 54.5884 27.032 54.9998C27.1991 55.4113 27.2171 55.8362 27.1313 56.2118C26.9643 56.9006 25.9484 56.3415 25.2666 56.0464C24.8151 55.8317 23.3838 54.6376 23.0181 54.244C22.1196 53.2288 21.6862 51.2655 22.4041 50.1519Z" fill="#B48E76"/>
<path d="M72.4527 50.1519C71.3871 48.448 69.7391 49.1859 69.3237 49.5616C68.8903 49.973 68.5561 50.4963 68.809 51.4936C68.958 52.066 69.5585 52.1152 69.423 52.9694C69.256 53.9355 68.809 53.9846 68.5561 54.2127C68.3078 54.4274 67.9737 54.5884 67.8247 54.9998C67.6757 55.4113 67.6396 55.8362 67.7254 56.2118C67.8924 56.9006 68.9083 56.3415 69.5901 56.0464C70.0551 55.8317 71.4729 54.6376 71.8386 54.244C72.7506 53.2288 73.1706 51.2655 72.4527 50.1519Z" fill="#B48E76"/>
<path d="M46.2298 64.6066C46.1937 64.5977 46.1621 64.5932 46.126 64.5842C46.1621 64.5932 46.1892 64.5977 46.2298 64.6066Z" fill="#C3987D"/>
<path d="M45.964 64.5483C45.9324 64.5394 45.9053 64.5304 45.8737 64.5215H45.8691C45.8691 64.5215 45.9053 64.5304 45.964 64.5483Z" fill="#C3987D"/>
<path d="M43.2086 57.4193C43.1273 55.7512 46.3014 56.8111 47.3444 56.8603C48.1706 56.9005 50.6855 56.337 50.9023 56.4801C52.3832 57.4685 49.3355 59.4587 47.2902 59.4587C46.7484 59.4587 43.2582 58.4211 43.2086 57.4193Z" fill="#E1BE9D"/>
<path d="M46.2884 63.6269C46.2523 63.6179 46.2207 63.6134 46.1846 63.6045C46.2162 63.6134 46.2478 63.6179 46.2884 63.6269Z" fill="#C1977D"/>
<path d="M46.0183 63.5644C45.9867 63.5555 45.9551 63.5465 45.9235 63.5376H45.9189C45.9189 63.5421 45.9551 63.551 46.0183 63.5644Z" fill="#C1977D"/>
<path d="M42.225 50.4472C42.225 50.4472 42.1618 50.4651 42.0128 50.5277C41.9767 48.1082 41.7509 44.7809 40.8434 44.1413C39.4934 43.1619 36.4457 41.7844 32.3776 45.5545C32.0074 44.5125 31.8223 43.7254 31.8223 43.7254C36.2741 38.9803 39.6243 40.4741 41.0646 41.5116C42.5185 42.5447 42.225 50.4472 42.225 50.4472Z" fill="#DCBC9B"/>
<path d="M37.7509 49.7942C39.2944 49.7942 40.5457 48.5548 40.5457 47.0259C40.5457 45.497 39.2944 44.2576 37.7509 44.2576C36.2073 44.2576 34.9561 45.497 34.9561 47.0259C34.9561 48.5548 36.2073 49.7942 37.7509 49.7942Z" fill="#4D2A12"/>
<path d="M37.6191 48.8684C36.8109 48.8014 36.1923 47.9963 36.2645 47.1108C36.3368 46.2253 37.0818 45.5321 37.89 45.5992C38.6982 45.6663 39.3167 46.4713 39.2445 47.3568C39.1722 48.2423 38.4273 48.9355 37.6191 48.8684Z" fill="#80401C"/>
<path d="M37.6912 48.5508C37.1314 48.5016 36.5489 47.8934 36.6076 47.142C36.6708 46.3862 37.3436 45.8809 37.908 45.9256C38.4678 45.9748 39.0503 46.5875 38.9871 47.3388C38.9284 48.0857 38.2511 48.5955 37.6912 48.5508Z" fill="#241C09"/>
<path d="M46.3333 64.4186C46.2972 64.4097 46.2656 64.4052 46.2295 64.3962C46.2611 64.4052 46.2927 64.4097 46.3333 64.4186Z" fill="#C1977D"/>
<path d="M46.0632 64.3603C46.0316 64.3514 46 64.3424 45.9684 64.3335H45.9639C45.9639 64.3335 46 64.3424 46.0632 64.3603Z" fill="#C1977D"/>
<path d="M46.2076 64.2306C46.1715 64.2217 46.1308 64.2172 46.0947 64.2083C46.1308 64.2127 46.1625 64.2217 46.2076 64.2306Z" fill="#C3987D"/>
<path d="M45.9144 64.1636C45.8783 64.1546 45.8467 64.1457 45.8151 64.1367H45.8105C45.8105 64.1367 45.8512 64.1501 45.9144 64.1636Z" fill="#C3987D"/>
<path d="M46.1217 63.9489C46.0855 63.9399 46.0449 63.9355 46.0088 63.9265C46.0449 63.931 46.081 63.9399 46.1217 63.9489Z" fill="#C3987D"/>
<path d="M45.8324 63.8818C45.7962 63.8729 45.7646 63.8639 45.733 63.855H45.7285C45.7285 63.8595 45.7646 63.8684 45.8324 63.8818Z" fill="#C3987D"/>
<path d="M46.3838 63.9086C46.3476 63.8997 46.3115 63.8952 46.2754 63.8862C46.307 63.8952 46.3386 63.8997 46.3838 63.9086Z" fill="#C3987D"/>
<path d="M46.0993 63.8462C46.0677 63.8372 46.0361 63.8283 46.0045 63.8193H46C46 63.8238 46.0361 63.8328 46.0993 63.8462Z" fill="#C3987D"/>
<path d="M52.6776 50.2189C52.6776 50.2189 52.7408 50.2368 52.8898 50.2994C52.9259 47.8799 53.1517 44.5526 54.0592 43.9131C55.4092 42.9336 58.4569 41.5562 62.525 45.3263C62.8952 44.2842 63.0803 43.4971 63.0803 43.4971C58.6285 38.7521 55.2783 40.2458 53.838 41.2834C52.3841 42.3164 52.6776 50.2189 52.6776 50.2189Z" fill="#DCBC9B"/>
<path d="M54.3574 46.7979C54.3574 48.3274 55.6081 49.5662 57.1523 49.5662C58.6964 49.5662 59.9471 48.3274 59.9471 46.7979C59.9471 45.2684 58.6964 44.0295 57.1523 44.0295C55.6081 44.0295 54.3574 45.2684 54.3574 46.7979Z" fill="#4D2A12"/>
<path d="M57.2777 48.6404C58.0859 48.5733 58.7044 47.7683 58.6322 46.8828C58.5599 45.9973 57.8149 45.3041 57.0067 45.3712C56.1985 45.4383 55.58 46.2433 55.6522 47.1288C55.729 48.0143 56.474 48.7075 57.2777 48.6404Z" fill="#80401C"/>
<path d="M57.2097 48.3228C57.7696 48.2736 58.352 47.6654 58.2933 46.914C58.2301 46.1582 57.5574 45.6528 56.993 45.6976C56.4331 45.7468 55.8507 46.3595 55.9139 47.1108C55.9726 47.8577 56.6499 48.3675 57.2097 48.3228Z" fill="#241C09"/>
<path d="M43.9282 43.6361C43.9056 43.6048 43.3909 42.8266 42.3388 42.0261C41.6796 41.5252 41.034 41.1451 40.3612 40.8589C39.544 40.519 38.6681 40.2775 37.8193 40.1657C37.0517 40.0807 36.1983 40.103 35.2005 40.2372C34.442 40.3803 33.7015 40.604 33.0739 40.8768C32.6269 41.0288 32.2702 41.2435 31.9858 41.4179C31.8774 41.485 31.7781 41.5431 31.6787 41.5968L30.3242 42.4421L31.8864 42.0798C31.9587 42.0619 32.04 42.0395 32.1212 42.0172C32.4463 41.9322 32.8482 41.8249 33.3177 41.7578C33.4261 41.7399 33.539 41.7175 33.6564 41.6952C33.855 41.6549 34.0582 41.6147 34.2704 41.6057C34.5052 41.5878 34.7535 41.5744 35.0064 41.5565L35.336 41.5342C36.2029 41.5252 36.9343 41.5878 37.58 41.7354C38.2888 41.8562 39.0203 42.0843 39.6885 42.3884C40.3206 42.688 40.9256 42.9832 41.3997 43.3276C42.3524 43.9581 42.8852 44.4859 42.8897 44.4903C43.0206 44.62 43.1967 44.6871 43.3728 44.6871C43.4992 44.6871 43.6302 44.6513 43.743 44.5798C44.0591 44.3741 44.1449 43.9537 43.9462 43.654L43.9282 43.6361Z" fill="black"/>
<path d="M63.3599 41.5923C63.2696 41.5431 63.1703 41.485 63.0619 41.4179C62.7775 41.2435 62.4253 41.0288 61.9873 40.8812C61.3462 40.5995 60.6057 40.3759 59.8382 40.2328C58.8539 40.1031 58.0005 40.0807 57.2284 40.1657C56.3841 40.282 55.5037 40.519 54.6864 40.8589C54.0272 41.1406 53.359 41.5297 52.7088 42.0261C51.6749 42.8133 51.1602 43.5736 51.1195 43.6317L51.1105 43.6451C50.9344 43.909 50.975 44.2667 51.2008 44.4904C51.3272 44.6201 51.4988 44.6871 51.6839 44.6871C51.8645 44.6871 52.0361 44.6156 52.1625 44.4859L52.167 44.4814C52.2167 44.4322 52.7314 43.9313 53.657 43.3186C54.1221 42.9787 54.7271 42.6836 55.3592 42.3839C56.0319 42.0754 56.7589 41.8473 57.4813 41.7265C58.1224 41.5789 58.8539 41.5163 59.7072 41.5252L60.0504 41.5476C60.2987 41.5655 60.5425 41.5834 60.7818 41.5968C60.9895 41.6058 61.1927 41.646 61.3913 41.6863C61.5042 41.7086 61.6171 41.731 61.73 41.7489C62.204 41.8159 62.6059 41.9233 62.9265 42.0083C63.0123 42.0306 63.089 42.053 63.1658 42.0709L64.728 42.4331L63.3599 41.5923Z" fill="black"/>
<path d="M54.3658 63.9936C52.3972 63.4257 47.3178 62.3926 47.3178 62.3926C43.6244 62.9516 40.7529 63.9668 40.7303 63.9936C40.64 64.0026 44.0398 67.5089 47.6429 67.3389C51.2459 67.5044 54.4561 64.0026 54.3658 63.9936Z" fill="#C56B70"/>
<path d="M37.2359 46.6948C37.2133 46.9676 36.9289 47.1644 36.6083 47.1376C36.2832 47.1107 36.0394 46.8692 36.062 46.5964C36.0846 46.3236 36.3645 46.1268 36.6896 46.1492C37.0147 46.1805 37.2585 46.422 37.2359 46.6948Z" fill="white"/>
<path d="M39.0454 48.2647C39.0319 48.3989 38.8919 48.5017 38.7339 48.4838C38.5714 48.4704 38.4494 48.3497 38.4585 48.2155C38.472 48.0813 38.612 47.9785 38.77 47.9919C38.9371 48.0098 39.059 48.1305 39.0454 48.2647Z" fill="white"/>
<path d="M47.4754 62.594C47.4619 62.5984 47.4529 62.594 47.4393 62.594C47.4258 62.594 47.4167 62.5984 47.4032 62.5984V62.594C46.8659 62.6342 46.3422 62.5447 45.859 62.4106C44.2155 61.9007 42.6262 63.3095 42.4276 63.4973C42.3057 63.6181 42.1612 63.712 41.958 63.7523L42.0393 63.9177C42.3463 64.5349 43.0461 64.8614 43.7189 64.6959C44.6174 64.4723 45.9855 64.2084 47.5522 64.1369V62.6029C47.5251 62.5939 47.498 62.594 47.4754 62.594Z" fill="white"/>
<path d="M47.6246 62.594C47.6382 62.5984 47.6472 62.594 47.6607 62.594C47.6743 62.594 47.6833 62.5984 47.6969 62.5984V62.594C48.2341 62.6342 48.7579 62.5447 49.241 62.4106C50.8845 61.9007 52.4738 63.3095 52.6725 63.4973C52.7944 63.6181 52.9389 63.712 53.142 63.7523L53.0608 63.9177C52.7537 64.5349 52.0539 64.8614 51.3812 64.6959C50.4827 64.4723 49.1146 64.2084 47.5479 64.1369V62.6029C47.5749 62.5939 47.602 62.594 47.6246 62.594Z" fill="white"/>
<path d="M50.6766 60.8228C50.6766 60.8228 50.1438 61.0285 49.5252 61.194H49.5297C49.5297 61.194 49.4891 61.2074 49.4169 61.2208C49.3537 61.2387 49.2905 61.2477 49.2227 61.2656C49.1821 61.2745 49.146 61.2834 49.1008 61.2924C48.9925 61.3148 48.8886 61.3371 48.7802 61.3505C48.4597 61.4042 48.0714 61.4579 47.665 61.4713C47.6289 61.4713 47.5883 61.4713 47.5521 61.4758C47.516 61.4758 47.4754 61.4758 47.4393 61.4713C47.0284 61.4534 46.6446 61.4042 46.324 61.3505C46.2202 61.3326 46.1118 61.3148 46.0035 61.2924C45.9583 61.2834 45.9222 61.2745 45.8816 61.2656C45.8138 61.2521 45.7506 61.2387 45.6874 61.2208C45.6152 61.203 45.5745 61.194 45.5745 61.194H45.5791C44.956 61.0285 44.4277 60.8228 44.4277 60.8228C42.4862 60.2101 40.7344 63.9892 40.7344 63.9892L40.9376 64.016C40.8789 64.338 41.0233 63.9042 41.0233 63.9042C41.2355 63.9042 41.529 63.7924 41.7864 63.77C41.8451 63.7655 41.9038 63.7611 41.9534 63.7477C42.1476 63.7074 42.2876 63.6225 42.405 63.5106C42.405 63.5106 42.414 63.5017 42.4275 63.4883C42.6262 63.3005 44.2155 61.8917 45.859 62.4015C46.3421 62.5357 46.8659 62.6251 47.4031 62.5849V62.5894C47.4167 62.5894 47.4257 62.5849 47.4393 62.5849C47.4528 62.5849 47.4618 62.5894 47.4754 62.5894V62.5849C47.5025 62.5849 47.5251 62.5849 47.5521 62.5894C47.5792 62.5894 47.6018 62.5894 47.6289 62.5849V62.5894C47.6424 62.5894 47.6515 62.5849 47.665 62.5849C47.6786 62.5849 47.6876 62.5894 47.7011 62.5894V62.5849C48.2384 62.6251 48.7622 62.5357 49.2453 62.4015C50.8888 61.8917 52.4781 63.3005 52.6768 63.4883C52.6903 63.5017 52.6993 63.5106 52.6993 63.5106C52.8167 63.6225 52.9567 63.7074 53.1508 63.7477C53.205 63.7566 53.2592 63.7655 53.3179 63.77C53.5798 63.7924 53.8733 63.9042 54.081 63.9042C54.081 63.9042 54.2254 64.3425 54.1667 64.016L54.3699 63.9892C54.3654 63.9937 52.6181 60.2146 50.6766 60.8228Z" fill="#D77A76"/>
<path d="M57.6665 46.467C57.6891 46.7398 57.9735 46.9366 58.2941 46.9098C58.6192 46.883 58.863 46.6414 58.8404 46.3686C58.8178 46.0958 58.5379 45.899 58.2128 45.9214C57.8877 45.9527 57.6439 46.1942 57.6665 46.467Z" fill="white"/>
<path d="M55.8565 48.0366C55.87 48.1708 56.01 48.2737 56.168 48.2602C56.3306 48.2468 56.4525 48.1261 56.4435 47.9919C56.4299 47.8577 56.2899 47.7549 56.1319 47.7728C55.9649 47.7817 55.843 47.9025 55.8565 48.0366Z" fill="white"/>
<path d="M47.6881 66.476C47.6971 66.4715 47.7016 66.476 47.7107 66.476C47.7197 66.476 47.7242 66.4715 47.7332 66.4715V66.476C48.0538 66.4492 48.3699 66.5073 48.6588 66.5878C49.6476 66.8964 50.6003 66.0467 50.7222 65.9348C50.7945 65.8633 50.8803 65.8051 51.0067 65.7828L50.957 65.6844C50.7719 65.3132 50.352 65.1164 49.9502 65.2193C49.4083 65.3535 48.5911 65.5145 47.6475 65.5547V66.476C47.661 66.4715 47.6746 66.4715 47.6881 66.476Z" fill="white"/>
<path d="M47.5979 66.476C47.5889 66.4715 47.5843 66.476 47.5753 66.476C47.5663 66.476 47.5618 66.4715 47.5527 66.4715V66.476C47.2322 66.4492 46.9161 66.5073 46.6271 66.5878C45.6383 66.8964 44.6857 66.0467 44.5637 65.9348C44.4915 65.8633 44.4057 65.8051 44.2793 65.7828L44.329 65.6844C44.5141 65.3132 44.934 65.1164 45.3358 65.2193C45.8776 65.3535 46.6949 65.5145 47.6385 65.5547V66.476C47.6295 66.4715 47.6159 66.4715 47.5979 66.476Z" fill="white"/>
<path d="M61.1341 80.4427V84.7182C59.8248 86.5787 57.495 88.0948 54.5918 88.9803C53.3862 89.3515 52.0814 89.6064 50.7178 89.7406C50.0315 89.8032 49.3407 89.8345 48.6228 89.8345C47.0651 89.8345 45.5661 89.669 44.1755 89.3694C42.7623 89.0653 41.4574 88.6225 40.3015 88.059C37.0507 86.4848 34.9512 84.016 34.9512 81.2432C34.9512 80.7334 35.0189 80.2325 35.1589 79.754C36.2696 79.0832 37.2719 78.6896 37.9943 78.4705C37.9943 78.5375 37.9853 78.6091 37.9853 78.6762C37.9853 80.1252 38.8522 81.4579 40.3015 82.491C41.3355 83.2245 42.6584 83.8148 44.1755 84.186C45.2365 84.4543 46.3924 84.6064 47.5979 84.6377C47.7424 84.6467 47.8869 84.6467 48.0404 84.6467C48.9705 84.6467 49.8645 84.5706 50.7133 84.4275C52.1627 84.1949 53.4765 83.7701 54.5873 83.1976C56.6868 82.1109 58.0323 80.5188 58.0684 78.7433C58.9398 79.0832 60.0144 79.6109 61.1341 80.4427Z" fill="#135977"/>
<path d="M23.203 29.8525C23.6635 28.2067 24.1331 26.9366 24.1331 26.9276C24.1286 26.9321 24.0608 26.9455 23.4242 26.9455C19.4826 26.9366 17.2611 23.1978 17.2611 23.1978C17.2611 23.1978 18.7466 25.331 23.8622 23.6673C28.8604 22.0439 28.7339 16.7622 35.9174 13.8149C39.5927 12.3033 41.7871 12.5046 43.0603 13.0502C41.7735 12.0126 39.1277 12.1021 39.1277 12.1021C39.1277 12.1021 42.3966 10.3355 47.4444 11.9187C50.9888 13.0323 53.1154 14.3024 54.3074 15.2103L52.3162 13.3498C52.3162 13.3498 53.7294 13.8418 55.7251 14.8391C54.3661 12.2541 51.8557 9.4187 51.8557 9.4187C58.2535 11.7577 63.5543 20.179 63.5543 20.179C63.0486 17.0037 61.9288 14.1012 61.9288 14.1012C72.8508 22.0797 71.1531 36.4849 71.1531 36.4849C71.1531 41.9366 68.9633 47.4061 67.5275 49.0296C66.0872 50.653 66.5477 53.0054 66.1188 53.0054C66.1188 53.0054 65.2564 53.0367 65.2248 48.9222C65.1165 47.5314 64.6695 45.3042 62.8364 45.9705C62.737 46.0108 62.6422 46.06 62.5429 46.0958C62.5248 46.1047 62.5068 46.1137 62.4887 46.1226C57.1654 48.2112 53.3547 46.0287 51.0836 43.8149V43.8194L51.0791 43.8149C50.7088 43.4571 50.3838 43.0993 50.0993 42.755C47.4444 40.0493 40.1481 33.636 36.9965 41.4133C36.9965 41.4133 34.3101 34.7496 42.7894 35.4697C39.3399 33.2112 35.4569 32.5761 33.8541 39.2845C33.8541 39.2845 30.9463 32.2496 38.2879 30.8274C30.4542 29.2398 27.2033 41.6861 27.8896 45.0448C28.9642 50.3802 27.4652 53.4482 26.8873 53.3051C26.8873 53.3051 26.8692 51.95 26.3455 50.7425C24.7968 47.1468 23.501 49.6467 23.2617 44.7675C23.0675 40.8543 22.5844 38.645 22.3948 36.6548C21.1712 37.6164 19.3426 38.2961 16.6064 38.3543C16.6064 38.3543 20.4759 37.1781 23.203 29.8525Z" fill="#432F0D"/>
<path d="M50.7172 84.4319V99.9999H44.1748V84.1904C45.2358 84.4588 46.3917 84.6108 47.5972 84.6421C47.7417 84.6511 47.8862 84.6511 48.0397 84.6511C48.9743 84.6511 49.8683 84.575 50.7172 84.4319Z" fill="#6B9CC4"/>
<path d="M40.3021 82.4955V99.9999H33.7598V80.7289C34.2384 80.3533 34.7079 80.0268 35.1594 79.754C36.2702 79.0832 37.2725 78.6896 37.9949 78.4705C37.9949 78.5375 37.9859 78.6091 37.9859 78.6762C37.9904 80.1252 38.8573 81.4579 40.3021 82.4955Z" fill="#6B9CC4"/>
<path d="M61.1342 80.4425V99.9998H54.5918V83.2019C56.6913 82.1152 58.0368 80.523 58.0729 78.7476C58.9398 79.083 60.0144 79.6107 61.1342 80.4425Z" fill="#6B9CC4"/>
<path d="M70.4667 57.6252C70.3945 60.8139 69.2928 63.8372 67.3604 66.5832V55.0984C68.3853 55.8542 69.4283 56.6816 70.4667 57.6252Z" fill="#135977"/>
<path d="M24.4443 57.4819C24.5166 60.6706 25.6183 63.6939 27.5507 66.4399V54.9551C26.5303 55.7109 25.4873 56.5427 24.4443 57.4819Z" fill="#135977"/>
</svg>
