<svg width="100" height="100" viewBox="0 0 100 100" fill="none" xmlns="http://www.w3.org/2000/svg">
<path d="M95 0H5C2.23858 0 0 2.23858 0 5V95C0 97.7614 2.23858 100 5 100H95C97.7614 100 100 97.7614 100 95V5C100 2.23858 97.7614 0 95 0Z" fill="#F09300"/>
<path d="M70.839 68.1844C71.4479 68.9089 73.9776 69.9822 73.9776 69.9822C73.9776 69.9822 72.3433 69.2488 71.7926 66.4447C71.5911 65.425 71.4882 64.8436 71.4747 64.4322H71.1121C72.3882 62.5225 73.1001 60.3937 73.1001 58.1441C73.1001 55.2282 72.3434 52.5314 70.2748 50.2461C70.3464 50.9035 69.8808 52.2631 69.8808 52.9384C69.8808 59.8257 66.0659 64.9822 60.3974 67.8669C60.6616 67.1066 60.8184 66.2345 60.8184 65.2998C60.8184 63.5466 60.2855 61.9992 59.4795 61.0735C58.1497 59.0118 55.4588 60.7559 52.3469 60.7604C49.2351 60.7559 46.5441 59.0118 45.2143 61.0735C44.4039 62.0037 43.8755 63.5466 43.8755 65.2998C43.8755 66.239 44.0323 67.111 44.2965 67.8669C38.628 64.9778 34.8131 59.8257 34.8131 52.9384C34.8131 52.2631 34.3475 50.9035 34.4191 50.2461C32.3505 52.5359 31.5938 55.2282 31.5938 58.1441C31.5938 60.3937 32.3102 62.5225 33.5863 64.4322H33.2237C33.2057 64.8436 33.1072 65.425 32.9057 66.4447C32.355 69.2443 30.7207 69.9822 30.7207 69.9822C30.7207 69.9822 33.2505 68.9134 33.8594 68.1844C34.1549 67.8311 34.9475 66.8561 35.1848 66.561C35.1893 66.5744 35.1982 66.5788 35.2027 66.5878C35.0639 66.9098 34.728 67.9518 35.1982 69.9599C35.8071 72.5851 38.3145 74.3516 38.3145 74.3516C38.3145 74.3516 36.8146 72.2631 37.231 69.9822C37.231 69.9822 37.1414 70.899 39.5861 73.4438C41.9189 75.8767 46.1814 78.8239 46.5531 78.8552C46.5217 78.7792 46.4769 75.9393 46.4456 74.9062C48.2276 75.4429 50.0858 75.7515 52.0156 75.7515C52.1276 75.7515 52.244 75.747 52.3559 75.7425C52.4723 75.747 52.5843 75.7515 52.6962 75.7515C54.626 75.7515 56.4841 75.4429 58.2662 74.9062C58.2348 75.9393 58.1901 79.4098 58.1587 79.4903C58.5303 79.459 62.7929 75.8812 65.1257 73.4482C67.5659 70.9035 67.4809 69.9867 67.4809 69.9867C67.8973 72.272 66.3973 74.3561 66.3973 74.3561C66.3973 74.3561 68.9047 72.5851 69.5136 69.9643C69.9792 67.9563 69.6479 66.9098 69.5091 66.5923C69.5136 66.5878 69.5226 66.5788 69.527 66.5654C69.7509 66.8516 70.539 67.8311 70.839 68.1844Z" fill="#535353"/>
<path d="M52.136 62.5403V100H31.8486C31.5172 99.8703 31.3516 99.8032 31.3516 99.8032C31.3516 95.0224 32.0545 91.2925 33.1246 88.3855C35.7081 81.3686 40.4319 79.1414 42.608 78.4705C43.3199 78.2514 43.7631 78.1977 43.7631 78.1977C43.8392 78.1977 43.9109 78.1888 43.987 78.1798C44.6273 78.077 45.1467 77.5224 45.5586 76.6369C45.8675 75.9795 46.1272 75.1431 46.3377 74.1727C46.4227 73.7925 46.4854 73.4124 46.5526 73.0009C46.6511 72.3077 46.7496 71.5832 46.8347 70.8229C46.866 70.3623 46.9153 69.9151 46.9645 69.4365C47.1436 67.1467 47.1974 64.6378 47.1974 62.2585C47.2018 62.2585 49.9242 62.5403 52.136 62.5403Z" fill="#E5C69F"/>
<path d="M73.0008 99.7986C73.0008 99.7986 72.8172 99.8657 72.5217 99.9954H52.1357V62.5357H52.185C54.379 62.5357 57.1371 62.2539 57.1371 62.2539C57.1371 64.6108 57.1863 67.0884 57.3654 69.3782C57.4147 69.8255 57.4639 70.2861 57.4953 70.7289C57.5803 71.5205 57.6789 72.2628 57.7953 72.956V72.9694C57.8266 73.2825 57.8938 73.5643 57.943 73.8595C58.1445 74.8344 58.3863 75.6931 58.6773 76.3773C59.04 77.2315 59.4833 77.8308 60.0251 78.0634C60.1952 78.1394 60.3788 78.1797 60.5668 78.1797C60.5668 78.1797 61.3459 78.2736 62.519 78.7342C64.9055 79.6689 68.9173 82.1197 71.2232 88.372C72.2934 91.2923 73.0008 95.0178 73.0008 99.7986Z" fill="#F2DAB5"/>
<mask id="mask0_732_8192" style="mask-type:luminance" maskUnits="userSpaceOnUse" x="46" y="69" width="12" height="7">
<path d="M57.7967 69.3379H46.5537V75.9568H57.7967V69.3379Z" fill="white"/>
</mask>
<g mask="url(#mask0_732_8192)">
<path d="M57.7922 72.8934V72.9112C57.2818 73.6984 55.5624 75.9613 52.164 75.9613H52.1327C48.9134 75.9434 47.0328 73.6179 46.5537 72.9291C46.6522 72.2404 46.7507 71.5204 46.8358 70.7645C46.8671 70.3218 46.9164 69.8612 46.9701 69.3871C48.5373 69.7807 50.2566 70.0266 52.07 70.0579H52.1372C54.0177 70.0266 55.7505 69.7628 57.3713 69.3379C57.4206 69.7806 57.4698 70.2413 57.5057 70.6796C57.5773 71.4712 57.6758 72.2046 57.7922 72.8934Z" fill="#C69F82"/>
</g>
<path d="M51.9038 19.8523C30.4119 19.8523 30.2955 37.795 31.2537 49.5437C29.785 46.7575 25.4106 47.6117 25.7732 52.0034C26.118 56.2297 32.3685 58.3854 32.1939 57.9203C35.449 66.6099 44.0637 73.1618 51.9038 73.1618H52.0695V19.8523H51.9038Z" fill="#D7AE89"/>
<path d="M27.1422 50.1519C28.1988 48.448 29.8511 49.1859 30.2451 49.5616C30.6749 49.973 31.0197 50.4963 30.7555 51.4936C30.6078 52.0661 30.0123 52.1152 30.1466 52.9694C30.3122 53.9355 30.7555 53.9846 31.0197 54.2127C31.2659 54.4274 31.5793 54.5884 31.7316 54.9998C31.8972 55.4113 31.9151 55.8362 31.8301 56.2118C31.6644 56.9006 30.657 56.3415 29.9809 56.0464C29.5332 55.8317 28.1138 54.6376 27.7511 54.244C26.8645 53.2288 26.4347 51.2655 27.1422 50.1519Z" fill="#B48E76"/>
<path d="M52.0198 19.8523C73.5117 19.8523 73.6281 37.795 72.6833 49.5437C74.1519 46.7575 78.5085 47.6117 78.1458 52.0034C77.8145 56.2297 71.555 58.3854 71.7251 57.9203C68.5551 66.6099 59.8553 73.1618 52.0153 73.1618C51.966 73.1618 51.8989 73.1618 51.8989 73.1618L51.8496 19.8568C51.8541 19.8523 51.9705 19.8523 52.0198 19.8523Z" fill="#E1BE9D"/>
<path d="M76.7791 50.1519C75.7224 48.448 74.0882 49.1859 73.6762 49.5616C73.2464 49.973 72.9151 50.4963 73.1658 51.4936C73.3136 52.0661 73.9091 52.1152 73.7747 52.9694C73.6091 53.9355 73.1658 53.9846 72.915 54.2127C72.6688 54.4274 72.3374 54.5884 72.1897 54.9998C72.0419 55.4113 72.0061 55.8362 72.0912 56.2118C72.2569 56.9006 73.2643 56.3415 73.9404 56.0464C74.4016 55.8317 75.8075 54.6376 76.1702 54.244C77.0746 53.2288 77.4865 51.2655 76.7791 50.1519Z" fill="#B48E76"/>
<path d="M51.7338 24.915C44.6683 24.915 39.4878 26.9633 36.367 30.9929C31.9925 36.6458 32.1582 45.2639 33.7612 51.458C34.2582 53.3587 34.5224 58.4571 34.8492 60.322C36.385 68.6941 45.6444 73.153 51.7338 73.153C51.7338 73.153 51.8502 73.153 51.8994 73.153V24.915C51.8502 24.915 51.801 24.915 51.801 24.915" fill="#E5C69F"/>
<path d="M67.0861 31.0107C63.9832 26.9946 58.8654 24.9463 51.8984 24.915V73.1574C58.8654 73.0769 67.198 68.1932 68.6173 60.3265C68.9621 58.4571 69.2129 53.3632 69.7054 51.4624C71.3262 45.2818 71.4919 36.6816 67.0861 31.0107Z" fill="#F2DAB5"/>
<path d="M50.7748 64.6066C50.739 64.5977 50.7077 64.5932 50.6719 64.5842C50.7032 64.5932 50.7346 64.5977 50.7748 64.6066Z" fill="#C3987D"/>
<path d="M50.5111 64.5483C50.4797 64.5394 50.4528 64.5304 50.4215 64.5215H50.417C50.417 64.5215 50.4528 64.5304 50.5111 64.5483Z" fill="#C3987D"/>
<path d="M45.8991 25.0356L45.8096 25.1252L45.823 25.1565C45.8543 25.1073 45.8722 25.0625 45.8991 25.0356Z" fill="#473217"/>
<path d="M50.8334 63.6269C50.7976 63.6179 50.7663 63.6134 50.7305 63.6045C50.7618 63.6134 50.7931 63.6179 50.8334 63.6269Z" fill="#C1977D"/>
<path d="M50.5604 63.5645C50.5291 63.5555 50.4977 63.5466 50.4664 63.5376H50.4619C50.4664 63.5421 50.5022 63.551 50.5604 63.5645Z" fill="#C1977D"/>
<path d="M47.529 57.5C47.4439 55.7871 50.6767 56.8739 51.7423 56.9275C52.5841 56.9723 55.1452 56.3864 55.3646 56.5384C56.8735 57.5537 53.7661 59.5975 51.6886 59.5975C51.1334 59.5975 47.5782 58.5331 47.529 57.5Z" fill="#E1BD9C"/>
<path d="M50.6053 64.3606C50.574 64.3516 50.5427 64.3427 50.5113 64.3337H50.5068C50.5113 64.3337 50.5471 64.3427 50.6053 64.3606Z" fill="#C1977D"/>
<path d="M50.7477 64.2309C50.7119 64.2219 50.6716 64.2175 50.6357 64.2085C50.676 64.213 50.7074 64.2219 50.7477 64.2309Z" fill="#C3987D"/>
<path d="M50.4614 64.1636C50.4256 64.1546 50.3942 64.1457 50.3629 64.1367H50.3584C50.3584 64.1367 50.3943 64.1502 50.4614 64.1636Z" fill="#C3987D"/>
<path d="M50.6676 63.9491C50.6318 63.9402 50.5915 63.9357 50.5557 63.9268C50.5915 63.9312 50.6228 63.9402 50.6676 63.9491Z" fill="#C3987D"/>
<path d="M50.3764 63.8818C50.3406 63.8729 50.3093 63.8639 50.2779 63.855H50.2734C50.2734 63.8595 50.3137 63.8684 50.3764 63.8818Z" fill="#C3987D"/>
<path d="M50.9229 63.9089C50.8871 63.8999 50.8512 63.8954 50.8154 63.8865C50.8512 63.8954 50.8826 63.8999 50.9229 63.9089Z" fill="#C3987D"/>
<path d="M50.6454 63.8462C50.614 63.8372 50.5827 63.8283 50.5514 63.8193H50.5469C50.5469 63.8238 50.5827 63.8328 50.6454 63.8462Z" fill="#C3987D"/>
<path d="M49.6142 66.7041C49.5828 66.6952 49.5514 66.6862 49.5201 66.6772H49.5156C49.5156 66.6817 49.5515 66.6907 49.6142 66.7041Z" fill="#C5997D"/>
<path d="M49.8032 66.5029C49.7673 66.4939 49.736 66.4894 49.7002 66.4805C49.736 66.4894 49.7629 66.4939 49.8032 66.5029Z" fill="#C5997D"/>
<path d="M49.5389 66.4446C49.5076 66.4356 49.4763 66.4267 49.4449 66.4177H49.4404C49.4404 66.4177 49.4762 66.4267 49.5389 66.4446Z" fill="#C5997D"/>
<path d="M50.0448 66.467C50.0134 66.458 49.9776 66.4535 49.9463 66.4446C49.9776 66.4535 50.0045 66.458 50.0448 66.467Z" fill="#C5997D"/>
<path d="M49.7845 66.4087C49.7532 66.3997 49.7263 66.3908 49.6949 66.3818H49.6904C49.6904 66.3863 49.7263 66.3953 49.7845 66.4087Z" fill="#C5997D"/>
<path d="M48.7374 80.7917L43.8033 77.5806C43.8033 77.5806 34.0647 78.2738 31.2977 92.2049C31.1812 92.7863 31.0827 93.39 30.9932 94.0162L36.4647 95.4697V99.9956H50.9672V84.3695C50.9672 82.9339 50.2015 81.6459 49.015 80.9572C48.9165 80.908 48.827 80.8498 48.7374 80.7917Z" fill="black"/>
<path d="M73.3185 92.2048C72.226 86.5026 69.1455 79.4409 60.7144 77.5581L55.5967 80.8229C55.5922 80.8273 55.5832 80.8318 55.5787 80.8318C54.4594 81.5384 53.752 82.7907 53.752 84.1726V100H68.0664V95.4695L73.6051 93.9982C73.529 93.4257 73.4349 92.822 73.3185 92.2048Z" fill="black"/>
<path d="M50.9629 91.194V99.9955H53.7524V91.1538C52.8345 91.2746 51.8853 91.2835 50.9629 91.194Z" fill="#C60B12"/>
<path d="M36.4824 43.6136C36.4824 43.6136 38.1212 50.3533 40.9375 50.9034C43.7539 51.4535 46.7986 50.3578 46.7986 50.3578C46.7986 50.3578 47.0896 42.4374 45.6479 41.4043C44.2061 40.3623 40.8883 38.8596 36.4824 43.6136Z" fill="white"/>
<path d="M46.8034 50.3356C46.8034 50.3356 46.7408 50.3535 46.593 50.4161C46.5572 47.9877 46.3333 44.6513 45.4333 44.0118C44.0945 43.0279 41.0722 41.6505 37.038 45.4295C36.6709 44.3875 36.4873 43.5959 36.4873 43.5959C40.9021 38.8374 44.2244 40.3356 45.6527 41.3777C47.0945 42.4108 46.8034 50.3356 46.8034 50.3356Z" fill="#DCBC9B"/>
<path d="M42.3663 49.6825C43.8969 49.6825 45.1378 48.4391 45.1378 46.9052C45.1378 45.3714 43.8969 44.1279 42.3663 44.1279C40.8356 44.1279 39.5947 45.3714 39.5947 46.9052C39.5947 48.4391 40.8356 49.6825 42.3663 49.6825Z" fill="#4D2A12"/>
<path d="M42.2366 48.7522C41.4352 48.6852 40.8217 47.8757 40.8934 46.9857C40.965 46.0957 41.7038 45.4025 42.5053 45.4696C43.3067 45.5367 43.9202 46.3417 43.8485 47.2317C43.7769 48.1216 43.0381 48.8193 42.2366 48.7522Z" fill="#80401C"/>
<path d="M42.3032 48.4348C41.748 48.3856 41.1705 47.7729 41.2287 47.0215C41.2914 46.2657 41.9585 45.7559 42.5182 45.8006C43.0734 45.8498 43.6509 46.4625 43.5883 47.2183C43.5301 47.9696 42.8629 48.4795 42.3032 48.4348Z" fill="#241C09"/>
<path d="M41.856 45.2013C41.8336 45.4741 41.5515 45.6709 41.2336 45.6485C40.9112 45.6217 40.6695 45.3757 40.6919 45.1073C40.7143 44.8345 40.9919 44.6333 41.3142 44.6601C41.6366 44.6825 41.8784 44.924 41.856 45.2013Z" fill="white"/>
<path d="M43.6518 48.1488C43.6384 48.2831 43.4996 48.3861 43.3429 48.3727C43.1817 48.3593 43.0608 48.2384 43.0698 48.0996C43.0832 47.9652 43.222 47.8623 43.3787 47.8757C43.5399 47.8891 43.6653 48.0145 43.6518 48.1488Z" fill="white"/>
<path d="M67.4857 43.381C67.4857 43.381 65.8469 50.1207 63.0306 50.6708C60.2143 51.2209 57.1696 50.1252 57.1696 50.1252C57.1696 50.1252 56.8785 42.2048 58.3203 41.1717C59.762 40.1341 63.0798 38.6315 67.4857 43.381Z" fill="white"/>
<path d="M57.1647 50.1072C57.1647 50.1072 57.2274 50.125 57.3751 50.1877C57.411 47.7592 57.6348 44.4229 58.5348 43.7834C59.8736 42.7995 62.8958 41.422 66.9301 45.1966C67.2972 44.1546 67.4808 43.363 67.4808 43.363C63.066 38.6045 59.7437 40.1027 58.3154 41.1447C56.8736 42.1823 57.1647 50.1072 57.1647 50.1072Z" fill="#DCBC9B"/>
<path d="M58.834 46.6769C58.834 48.2109 60.0742 49.4542 61.6055 49.4542C63.1368 49.4542 64.3771 48.2109 64.3771 46.6769C64.3771 45.143 63.1368 43.8997 61.6055 43.8997C60.0742 43.8997 58.834 45.143 58.834 46.6769Z" fill="#4D2A12"/>
<path d="M61.7318 48.5242C62.5333 48.4571 63.1467 47.6476 63.0751 46.7577C63.0034 45.8677 62.2647 45.1745 61.4632 45.2415C60.6617 45.3086 60.0483 46.1136 60.1199 47.0036C60.1961 47.8936 60.9348 48.5913 61.7318 48.5242Z" fill="#80401C"/>
<path d="M61.6647 48.2021C62.2199 48.1529 62.7975 47.5446 62.7393 46.7888C62.6766 46.033 62.0095 45.5232 61.4498 45.5679C60.8946 45.6171 60.317 46.2298 60.3797 46.9856C60.4379 47.7414 61.1095 48.2513 61.6647 48.2021Z" fill="#241C09"/>
<path d="M62.1123 46.3417C62.1346 46.6145 62.4167 46.8112 62.7346 46.7889C63.057 46.762 63.2988 46.5161 63.2765 46.2477C63.2541 45.9749 62.9765 45.7737 62.6541 45.8005C62.3362 45.8273 62.0944 46.0688 62.1123 46.3417Z" fill="white"/>
<path d="M60.3169 47.9208C60.3303 48.0551 60.4691 48.1581 60.6258 48.1447C60.787 48.1313 60.9079 48.0103 60.8989 47.8715C60.8855 47.7372 60.7467 47.6342 60.59 47.6477C60.4288 47.6611 60.3079 47.782 60.3169 47.9208Z" fill="white"/>
<path d="M48.4877 43.5062C48.4653 43.4749 47.9549 42.6968 46.9116 41.8917C46.2579 41.3909 45.6176 41.0062 44.9505 40.72C44.1401 40.3801 43.2714 40.1386 42.4297 40.0223C41.6685 39.9374 40.8223 39.9597 39.8328 40.0939C39.0806 40.237 38.3462 40.4606 37.7238 40.7379C37.2806 40.89 36.9268 41.1046 36.6448 41.279C36.5373 41.3461 36.4388 41.4043 36.3403 41.458L34.9971 42.3032L36.5463 41.9365C36.6179 41.9186 36.6985 41.8962 36.7791 41.8739C37.1015 41.7889 37.5 41.6816 37.9656 41.6145C38.0731 41.5966 38.185 41.5742 38.3015 41.5519C38.4985 41.5116 38.6999 41.4714 38.9104 41.4624C39.1432 41.4445 39.3895 41.4311 39.6402 41.4132L39.9671 41.3909C40.8267 41.3819 41.5521 41.4445 42.1924 41.5921C42.8953 41.7129 43.6207 41.9409 44.2834 42.2495C44.9102 42.5492 45.5102 42.8488 45.9803 43.1932C46.9251 43.8283 47.4534 44.356 47.4579 44.3605C47.5877 44.4901 47.7624 44.5572 47.937 44.5572C48.0624 44.5572 48.1922 44.5215 48.3041 44.4454C48.6175 44.2397 48.7027 43.8193 48.5056 43.5152L48.4877 43.5062Z" fill="black"/>
<path d="M67.7632 41.4534C67.6737 41.4042 67.5752 41.3461 67.4678 41.279C67.1857 41.1046 66.8364 40.8899 66.4021 40.7423C65.7663 40.4606 65.032 40.237 64.2708 40.0938C63.2947 39.9642 62.4485 39.9373 61.6828 40.0268C60.8456 40.143 59.9724 40.3845 59.162 40.7244C58.5083 41.0062 57.8456 41.3997 57.2009 41.8962C56.1755 42.6833 55.6651 43.448 55.6293 43.5062L55.6203 43.5196C55.4457 43.7879 55.486 44.1457 55.7099 44.3693C55.8353 44.499 56.0054 44.5706 56.1845 44.5706C56.3636 44.5706 56.5338 44.499 56.6591 44.3693L56.6636 44.3649C56.7129 44.3157 57.2233 43.8148 58.1411 43.2021C58.6023 42.8622 59.2023 42.5625 59.8292 42.2629C60.4963 41.9543 61.2172 41.7262 61.9336 41.601C62.5694 41.4534 63.2947 41.3908 64.141 41.3997L64.4813 41.4221C64.7275 41.44 64.9693 41.4579 65.2066 41.4713C65.4126 41.4802 65.6141 41.5205 65.8111 41.5607C65.923 41.5831 66.0349 41.6055 66.1469 41.6234C66.617 41.6904 67.0155 41.7978 67.3334 41.8828C67.4185 41.9051 67.4946 41.9275 67.5707 41.9453L69.1199 42.3121L67.7632 41.4534Z" fill="black"/>
<g opacity="0.4">
<path d="M48.9706 49.7272C48.9706 52.8086 44.7215 55.8453 39.8232 55.8453C33.004 55.8453 32.0771 53.1306 32.0771 50.0716C32.0771 46.9902 30.3757 44.4946 40.3963 44.4946C50.2378 44.4902 48.9706 46.6413 48.9706 49.7272Z" fill="#1C1D17"/>
</g>
<g opacity="0.4">
<path d="M55.8466 49.7272C55.8466 52.8086 60.0958 55.8453 64.9762 55.8453C71.8133 55.8453 72.7223 53.1306 72.7223 50.0716C72.7223 46.9902 74.4237 44.4946 64.421 44.4946C54.584 44.4902 55.8466 46.6413 55.8466 49.7272Z" fill="#1C1D17"/>
</g>
<path opacity="0.38" d="M47.9259 51.525C45.4499 56.1315 38.165 55.5143 36.2845 55.0849C35.5412 54.9016 33.6024 54.3246 32.7383 51.3103C32.7472 51.3059 32.7607 51.3014 32.7697 51.2969C32.8592 51.2656 32.9487 51.2298 33.0383 51.1985C33.1055 51.1762 33.1726 51.1493 33.2398 51.127C33.3248 51.0957 33.4054 51.0688 33.4905 51.042C33.589 51.0107 33.6831 50.9794 33.7816 50.9481C33.8935 50.9123 34.0099 50.8765 34.1263 50.8408C34.1935 50.8184 34.2651 50.796 34.3368 50.7781C34.3905 50.7602 34.4442 50.7468 34.5024 50.7289C34.7487 50.6574 34.9949 50.5903 35.2457 50.5277C35.3397 50.5053 35.4337 50.483 35.5322 50.4606C35.6263 50.4383 35.7203 50.4159 35.8188 50.3935C35.9128 50.3756 36.0113 50.3488 36.1054 50.3309C36.28 50.2951 36.4591 50.2594 36.6382 50.2236C36.6606 50.2191 36.6785 50.2146 36.7008 50.2102C36.7725 50.1968 36.8442 50.1833 36.9158 50.1744C37.0143 50.1565 37.1083 50.1431 37.2068 50.1252C37.274 50.1163 37.3412 50.1028 37.4128 50.0939C37.4665 50.0849 37.5158 50.0805 37.5695 50.0715C37.6725 50.0581 37.7799 50.0447 37.8829 50.0313C37.9232 50.0268 37.968 50.0223 38.0083 50.0178C38.0934 50.0089 38.1829 50 38.2724 49.9866C38.3665 49.9776 38.4605 49.9687 38.559 49.9597C38.6217 49.9553 38.6889 49.9508 38.7516 49.9418C38.8859 49.9329 39.0202 49.9239 39.1501 49.915C39.262 49.906 39.3739 49.9016 39.4859 49.8971C39.4948 49.8926 39.5082 49.8926 39.5127 49.8926C39.6381 49.8882 39.7635 49.8837 39.8844 49.8792H39.9022C40.0321 49.8747 40.1664 49.8748 40.2963 49.8748H40.5515C40.6097 49.8748 40.6635 49.8792 40.7217 49.8792C40.7664 49.8792 40.8067 49.8837 40.8515 49.8837C40.9231 49.8882 40.9903 49.8882 41.062 49.8926C41.1381 49.8971 41.2141 49.9016 41.2903 49.9016C41.3977 49.9061 41.5007 49.915 41.6082 49.9195C41.7694 49.9329 41.935 49.9463 42.0962 49.9642C42.1589 49.9687 42.2216 49.9731 42.2843 49.9821C42.3425 49.9866 42.4007 49.9955 42.4589 50C42.4724 50 42.4813 50.0044 42.4947 50.0044C42.5619 50.0134 42.6335 50.0223 42.7052 50.0313C42.7589 50.0402 42.8126 50.0447 42.8663 50.0536C42.8798 50.0581 42.8932 50.0581 42.9111 50.0581C42.9917 50.0715 43.0678 50.0805 43.1439 50.0939C43.3678 50.1252 43.5917 50.1655 43.82 50.2102C43.8872 50.2236 43.9589 50.237 44.026 50.2549C44.0529 50.2594 44.0842 50.2638 44.1111 50.2728C44.1693 50.2862 44.223 50.2951 44.2812 50.3086C44.335 50.322 44.3887 50.3354 44.4469 50.3443C44.5544 50.3712 44.6663 50.3935 44.7782 50.4248C44.9439 50.4651 45.1096 50.5098 45.2752 50.5545C45.3379 50.5724 45.4051 50.5903 45.4723 50.6127C45.5126 50.6216 45.5529 50.635 45.5932 50.6485C45.6648 50.6708 45.7409 50.6932 45.817 50.7155C45.9066 50.7424 45.9961 50.7737 46.0857 50.805C46.3633 50.8944 46.6409 50.9928 46.9185 51.1002C47.0035 51.1315 47.0841 51.1672 47.1692 51.1985C47.2587 51.2343 47.3528 51.2701 47.4424 51.3103C47.5453 51.3551 47.6528 51.3998 47.7558 51.4445C47.814 51.4758 47.8677 51.5027 47.9259 51.525Z" fill="#1C1D17"/>
<path d="M75.4491 45.0538C75.3103 44.857 72.8208 44.5887 69.5791 44.3472C66.812 44.1504 62.4062 44.2756 60.6689 44.4679C59.9794 44.5395 58.672 44.7363 57.387 44.9822C55.9452 45.2729 54.5437 45.6665 53.9482 45.7649C53.3751 45.8499 52.9274 45.8812 52.4662 45.8677V45.8588C52.4304 45.8633 52.3991 45.8633 52.3677 45.8633C52.3319 45.8633 52.3005 45.8633 52.2692 45.8588V45.8677C51.808 45.8767 51.3558 45.8499 50.7872 45.7649C50.1961 45.6665 48.7902 45.2729 47.3484 44.9822C46.0634 44.7363 44.7605 44.5395 44.0485 44.4679C42.3292 44.2711 37.9233 44.1504 35.1563 44.3472C31.9146 44.5931 29.4251 44.8615 29.2863 45.0538C29.2057 45.2014 29.0132 47.0126 29.2684 47.2318C29.5236 47.4062 30.4549 47.8221 30.6698 48.4572C30.7862 48.7926 31.0907 50.255 31.6504 51.7443C32.1519 53.077 32.8593 54.4232 33.8085 55.0135C36.5219 56.7354 44.4336 57.1155 48.3021 53.0413C49.1708 52.1244 49.8334 50.984 50.1916 49.5842C50.4468 48.5287 50.7827 47.9205 51.3961 47.7506C51.6289 47.6835 52.0006 47.6343 52.3632 47.6298C52.7259 47.6388 53.093 47.6835 53.3303 47.7506C53.9438 47.9205 54.2796 48.5332 54.5572 49.5842C55.0004 51.3552 55.9407 52.7103 57.1631 53.7166C61.2107 57.0618 68.3702 56.6325 70.9179 55.0135C71.9835 54.3561 72.7313 52.7416 73.2372 51.2703C73.6895 49.9554 73.9447 48.7568 74.0611 48.4572C74.276 47.8221 75.2073 47.4062 75.4625 47.2318C75.7267 47.0082 75.5297 45.2014 75.4491 45.0538ZM48.4365 50.264C48.3022 50.7202 48.1275 51.1406 47.9216 51.5252C45.4455 56.1316 38.1607 55.5144 36.2801 55.0851C35.5369 54.9017 33.5981 54.3248 32.7339 51.3105C32.5638 50.7112 32.434 50.018 32.3623 49.213C32.0668 45.8588 34.1802 45.6397 37.1622 45.349C39.5755 45.1298 41.7292 45.2282 43.1889 45.349C44.6485 45.4921 48.0469 46.0556 48.3828 46.9635C48.732 47.8892 48.8126 48.9402 48.4365 50.264ZM68.4553 55.0851C66.53 55.5278 58.9317 56.1629 56.6437 51.1808C56.5138 50.8946 56.3974 50.5905 56.3034 50.264C55.9273 48.9402 56.0079 47.8892 56.3437 46.9635C56.6795 46.0556 60.0779 45.4921 61.5421 45.349C63.0017 45.2282 65.1375 45.1298 67.5687 45.349C70.5731 45.6397 72.6686 45.8633 72.3686 49.213C72.3193 49.8078 72.2342 50.34 72.1268 50.823C71.3387 54.2622 69.2344 54.8928 68.4553 55.0851Z" fill="white"/>
<path opacity="0.38" d="M72.1276 50.8229C71.3441 54.2665 69.2397 54.8927 68.4561 55.085C66.5308 55.5277 58.9325 56.1628 56.6445 51.1807C62.2279 48.5689 67.6457 49.1637 72.1276 50.8229Z" fill="#1C1D17"/>
<path d="M58.2837 60.4517C58.2837 60.4517 55.23 57.0931 53.157 58.3676V58.3632C52.0465 59.0832 51.0615 58.6226 50.7481 58.4303C50.7302 58.4169 50.7123 58.4079 50.6943 58.3945C50.6585 58.3721 50.6406 58.3587 50.6406 58.3587V58.3632C48.5675 57.0886 45.5139 60.4472 45.5139 60.4472C45.5139 60.4472 43.3916 62.6655 41.2603 61.9589C40.9021 61.8426 40.6379 62.3032 40.9021 62.576C42.2006 63.9088 44.5602 65.2952 48.5004 64.4723C49.378 64.2889 50.063 64.0519 50.5959 63.7836C51.4152 63.3676 52.3779 63.3676 53.1973 63.7836C53.7301 64.0564 54.4151 64.2934 55.2927 64.4723C59.2329 65.2952 61.5926 63.9043 62.891 62.576C63.1552 62.3077 62.891 61.8426 62.5328 61.9589C60.4105 62.67 58.2837 60.4517 58.2837 60.4517Z" fill="#4A463B"/>
<path d="M58.2923 72.1108C54.7819 72.3299 53.9043 69.4766 53.9043 69.4766C53.5819 68.5017 52.9864 68.1931 52.3686 68.1797C52.3686 68.1797 52.3596 68.1797 52.3551 68.1797C52.3506 68.1797 52.3461 68.1797 52.3417 68.1797C51.7238 68.1886 51.1282 68.5017 50.8059 69.4766C50.8059 69.4766 49.9283 72.3299 46.418 72.1108C46.418 72.1108 48.6836 74.9149 52.3372 75.0044C52.3417 75.0044 52.3462 75.0044 52.3506 75.0044C52.3551 75.0044 52.3596 75.0044 52.3596 75.0044H52.3641C56.0222 74.9149 58.2923 72.1108 58.2923 72.1108Z" fill="#393B36"/>
<path d="M82.5294 23.0322C82.4578 23.22 82.31 23.3989 82.113 23.5733C82.3861 23.2468 82.5294 23.0322 82.5294 23.0322C82.0817 23.3229 81.6518 23.5644 81.2354 23.788C73.4177 27.9472 71.2372 20.6395 71.2372 20.6395C72.0521 13.7522 80.4474 13.8506 80.4474 13.8506C80.4474 13.8506 73.3102 10.4069 70.5611 17.1601C70.1939 13.5241 72.1685 9.9955 72.1685 9.9955C68.985 10.6708 67.6463 13.2468 67.0866 15.4427C65.121 11.6681 67.1582 8.86401 67.1582 8.86401L56.2331 13.2021C57.6525 12.0751 59.8689 9.9955 59.8689 9.9955C59.8689 9.9955 56.4794 10.3443 51.2453 11.8247C47.5648 12.8667 45.3618 14.7182 44.1261 15.5679L44.0947 12.491C44.0947 12.491 38.7441 16.1672 33.6801 20.9928C28.616 25.8139 26.6729 30.3533 26.6729 35.4561C26.6729 40.5545 28.9429 45.6663 30.4339 47.1869C31.9204 48.703 31.4458 50.9034 31.8891 50.9034C31.8891 50.9034 32.9637 50.9436 32.8025 45.9168C33.389 40.2057 36.0218 37.9248 37.4949 37.0885C40.0829 35.7245 43.9872 35.4785 49.8214 38.4347L49.8169 38.4257C53.4213 40.5232 54.872 37.7415 59.9629 36.3372C68.6447 33.9445 72.2446 40.2236 71.5148 43.4615C70.3954 48.4481 71.9536 51.3193 72.5491 51.1851C72.5491 51.1851 72.576 49.9195 73.1133 48.7924C74.7162 45.4293 76.0594 47.7683 76.3102 43.2066C76.6012 37.8667 77.537 35.9168 77.237 33.0635C77.0668 31.4535 76.4893 29.5304 76.0281 28.1887C81.8578 28.0948 82.5294 23.0322 82.5294 23.0322Z" fill="#1A1A1A"/>
</svg>
