<svg width="100" height="100" viewBox="0 0 100 100" fill="none" xmlns="http://www.w3.org/2000/svg">
<path d="M95 0H5C2.23858 0 0 2.23858 0 5V95C0 97.7614 2.23858 100 5 100H95C97.7614 100 100 97.7614 100 95V5C100 2.23858 97.7614 0 95 0Z" fill="#A0B3C8"/>
<path d="M71.1436 68.3677C70.9331 67.2675 70.8346 66.6458 70.8122 66.2031H70.6108C71.3093 65.1073 71.8376 63.9446 72.1824 62.7281L72.1868 62.7326C72.2047 62.67 72.2182 62.6029 72.2316 62.5403C72.3615 62.0528 72.4644 61.5564 72.5361 61.0555C73.7002 53.6628 70.5749 44.0206 70.5749 44.0206C70.8883 46.3596 70.5884 49.2308 70.0869 51.9231C69.6884 54.0564 69.1645 56.0734 68.7168 57.6253C68.2959 59.0743 67.9466 60.1163 67.8257 60.4607C66.2138 64.4634 63.3393 67.7371 59.717 69.7541C59.9588 68.9714 60.1021 68.0859 60.1021 67.1378C60.1021 66.7174 60.0663 66.3193 60.017 65.9258C60.3752 65.8766 60.72 65.8185 61.0424 65.7201C61.5528 65.6127 62.0229 65.4115 62.4214 65.0984C63.2498 64.4544 63.805 63.3408 63.8946 61.5564C63.8946 61.5564 61.7588 65.5948 58.4275 62.0215C58.4275 62.0215 54.5993 56.5027 51.2143 58.712C47.8383 56.5027 44.0101 62.0215 44.0101 62.0215C40.6833 65.5948 38.5431 61.5564 38.5431 61.5564C38.6058 62.8355 38.8654 63.7165 39.3311 64.3873L39.3535 64.4141C39.3535 64.4141 39.4385 64.5125 39.5639 64.6378C39.6803 64.7675 39.8684 64.9329 40.1325 65.0984C40.1325 65.0984 40.137 65.1029 40.146 65.1074C40.4012 65.2639 40.728 65.4249 41.14 65.5412C41.4668 65.653 41.9101 65.6798 42.4564 65.6485C42.3803 66.1226 42.3355 66.619 42.3355 67.1333C42.3355 68.0814 42.4788 68.9669 42.7205 69.7496C39.0983 67.7281 36.2237 64.4544 34.6118 60.4562C34.4909 60.1118 34.1372 59.0698 33.7208 57.6208C33.2731 56.0689 32.7492 54.0519 32.3462 51.9186C31.8447 49.2263 31.5447 46.3551 31.8582 44.0161C31.8582 44.0161 28.7374 53.6584 29.897 61.051C29.9642 61.5564 30.0672 62.0528 30.197 62.5358C30.215 62.5984 30.2284 62.6655 30.2463 62.7281L30.2508 62.7237C30.5955 63.9401 31.1239 65.1029 31.8224 66.1986H31.6208C31.6029 66.6413 31.5 67.263 31.2895 68.3632C30.7298 71.3775 29.0508 72.1691 29.0508 72.1691C29.0508 72.1691 31.6388 71.0197 32.2656 70.237C32.5701 69.8614 33.3716 68.8238 33.6178 68.4929C33.6268 68.5018 33.6357 68.5063 33.6447 68.5152C33.5014 68.8641 33.1611 69.9866 33.6402 72.1422C34.267 74.9687 36.8326 76.8695 36.8326 76.8695C36.8326 76.8695 35.2924 74.6244 35.7222 72.1646C35.7222 72.1646 35.6327 73.153 38.1356 75.89C40.5221 78.5108 44.8876 82.3614 45.2727 82.3972C45.2413 82.3122 45.1966 78.5779 45.1607 77.4643C46.9876 78.0412 48.8905 81.78 50.8695 81.78C50.9859 81.78 51.1024 81.7755 51.2188 81.7711H51.2233C51.3397 81.7755 51.4561 81.78 51.5725 81.78C53.5471 81.78 55.4545 78.0412 57.2813 77.4643C57.25 78.5734 57.2052 82.9965 57.1694 83.077C57.5544 83.0412 61.92 78.5063 64.3109 75.8855C66.8138 73.1485 66.7243 72.1601 66.7243 72.1601C67.1497 74.6199 65.6139 76.865 65.6139 76.865C65.6139 76.865 68.1795 74.9642 68.8063 72.1378C69.2854 69.9777 68.9451 68.8551 68.8019 68.5108C68.8108 68.5018 68.8197 68.4974 68.8287 68.4884C69.075 68.8149 69.8764 69.8524 70.1764 70.2326C70.8033 71.0152 73.3913 72.1646 73.3913 72.1646C73.3913 72.1646 71.7033 71.382 71.1436 68.3677Z" fill="#393B36"/>
<path d="M45.8991 25.0315L45.8096 25.121L45.823 25.1524C45.8543 25.1076 45.8722 25.0628 45.8991 25.0315Z" fill="#473217"/>
<path d="M52.136 62.5403V100H31.8486C31.5172 99.8704 31.3516 99.8033 31.3516 99.8033C31.3516 95.0224 32.0545 91.2926 33.1246 88.3856C35.7081 81.3686 40.4319 79.1414 42.608 78.4705C43.3199 78.2514 43.7631 78.1977 43.7631 78.1977C43.8392 78.1977 43.9109 78.1888 43.987 78.1798C44.6273 78.077 45.1467 77.5224 45.5586 76.6369C45.8675 75.9795 46.1272 75.1432 46.3377 74.1727C46.4227 73.7925 46.4854 73.4124 46.5526 73.001C46.6511 72.3078 46.7496 71.5832 46.8347 70.823C46.866 70.3623 46.9153 69.9151 46.9645 69.4366C47.1436 67.1468 47.1974 64.6378 47.1974 62.2585C47.2018 62.2585 49.9242 62.5403 52.136 62.5403Z" fill="#E5C69F"/>
<path d="M73.0008 99.7989C73.0008 99.7989 72.8172 99.866 72.5217 99.9957H52.1357V62.5359H52.185C54.379 62.5359 57.1371 62.2542 57.1371 62.2542C57.1371 64.611 57.1863 67.0887 57.3654 69.3785C57.4147 69.8257 57.4639 70.2863 57.4953 70.7291C57.5803 71.5207 57.6789 72.2631 57.7953 72.9563V72.9697C57.8266 73.2828 57.8938 73.5645 57.943 73.8597C58.1445 74.8346 58.3863 75.6933 58.6773 76.3776C59.04 77.2318 59.4833 77.8311 60.0251 78.0636C60.1952 78.1397 60.3788 78.1799 60.5668 78.1799C60.5668 78.1799 61.3459 78.2738 62.519 78.7345C64.9055 79.6692 68.9173 82.12 71.2232 88.3722C72.2934 91.2882 73.0008 95.018 73.0008 99.7989Z" fill="#F2DAB5"/>
<mask id="mask0_732_8200" style="mask-type:luminance" maskUnits="userSpaceOnUse" x="46" y="69" width="12" height="7">
<path d="M57.7967 69.3379H46.5537V75.9569H57.7967V69.3379Z" fill="white"/>
</mask>
<g mask="url(#mask0_732_8200)">
<path d="M57.7922 72.8935V72.9113C57.2818 73.6984 55.5624 75.957 52.164 75.957H52.1327C48.9134 75.9391 47.0328 73.6135 46.5537 72.9247C46.6522 72.236 46.7507 71.516 46.8358 70.7602C46.8671 70.3174 46.9164 69.8568 46.9701 69.3827C48.5373 69.7763 50.2566 70.0223 52.07 70.0536H52.1372C54.0177 70.0223 55.7505 69.7584 57.3713 69.3335C57.4206 69.7763 57.4698 70.2369 57.5012 70.6752C57.5773 71.4668 57.6758 72.2047 57.7922 72.8935Z" fill="#C69F82"/>
</g>
<path d="M51.9038 19.8479C30.4119 19.8479 30.2955 37.7906 31.2537 49.5393C29.785 46.753 25.4106 47.6072 25.7732 51.999C26.118 56.2253 32.3685 58.381 32.1939 57.9159C35.449 66.6055 44.0637 73.1574 51.9038 73.1574H52.0695V19.8479H51.9038Z" fill="#D7AE89"/>
<path d="M27.1422 50.1475C28.1988 48.4436 29.8511 49.1815 30.2451 49.5572C30.6749 49.9686 31.0197 50.4919 30.7555 51.4892C30.6078 52.0617 30.0123 52.1108 30.1466 52.965C30.3122 53.931 30.7555 53.9803 31.0197 54.2083C31.2659 54.423 31.5793 54.584 31.7316 54.9955C31.8972 55.4069 31.9151 55.8318 31.8301 56.2074C31.6644 56.8962 30.657 56.3371 29.9809 56.042C29.5332 55.8273 28.1138 54.6332 27.7511 54.2396C26.8645 53.2289 26.4347 51.2611 27.1422 50.1475Z" fill="#B48E76"/>
<path d="M52.0198 19.8479C73.5117 19.8479 73.6281 37.7906 72.6833 49.5393C74.1519 46.753 78.5085 47.6072 78.1458 51.999C77.8145 56.2253 71.555 58.381 71.7251 57.9159C68.5551 66.6055 59.8553 73.1574 52.0153 73.1574C51.966 73.1574 51.8989 73.1574 51.8989 73.1574L51.8496 19.8524C51.8541 19.8479 51.9705 19.8479 52.0198 19.8479Z" fill="#E1BE9D"/>
<path d="M76.7791 50.1475C75.7224 48.4436 74.0882 49.1815 73.6762 49.5572C73.2464 49.9686 72.9151 50.4919 73.1658 51.4892C73.3136 52.0617 73.9091 52.1108 73.7747 52.965C73.6091 53.931 73.1658 53.9803 72.915 54.2083C72.6688 54.423 72.3374 54.584 72.1897 54.9955C72.0419 55.4069 72.0061 55.8318 72.0912 56.2074C72.2569 56.8962 73.2643 56.3371 73.9404 56.042C74.4016 55.8273 75.8075 54.6332 76.1702 54.2396C77.0746 53.2289 77.4865 51.2611 76.7791 50.1475Z" fill="#B48E76"/>
<path d="M51.7338 24.9151C44.6683 24.9151 39.4878 26.9634 36.367 30.9929C31.9925 36.6459 32.1582 45.264 33.7612 51.458C34.2582 53.3588 34.5224 58.4572 34.8492 60.3221C36.385 68.6942 45.6444 73.153 51.7338 73.153C51.7338 73.153 51.8502 73.153 51.8994 73.153V24.9106C51.8502 24.9106 51.801 24.9106 51.801 24.9106" fill="#E5C69F"/>
<path d="M67.0861 31.0107C63.9832 26.9946 58.8654 24.9463 51.8984 24.915V73.1574C58.8654 73.0769 67.198 68.1932 68.6173 60.3265C68.9621 58.4571 69.2129 53.3632 69.7054 51.4624C71.3262 45.2818 71.4919 36.6771 67.0861 31.0107Z" fill="#F2DAB5"/>
<path d="M50.7748 64.602C50.739 64.593 50.7077 64.5885 50.6719 64.5796C50.7032 64.5885 50.7346 64.5975 50.7748 64.602Z" fill="#C3987D"/>
<path d="M50.5111 64.5439C50.4797 64.535 50.4528 64.526 50.4215 64.5171H50.417C50.417 64.5216 50.4528 64.5305 50.5111 64.5439Z" fill="#C3987D"/>
<path d="M50.8334 63.6271C50.7976 63.6181 50.7663 63.6137 50.7305 63.6047C50.7618 63.6092 50.7931 63.6181 50.8334 63.6271Z" fill="#C1977D"/>
<path d="M50.5604 63.5645C50.5291 63.5555 50.4977 63.5466 50.4664 63.5376H50.4619C50.4664 63.5421 50.5022 63.5511 50.5604 63.5645Z" fill="#C1977D"/>
<path d="M48.2048 57.4956C48.1197 55.7827 51.3525 56.8695 52.4181 56.9231C53.2599 56.9679 55.821 56.382 56.0404 56.5341C57.5493 57.5493 54.4419 59.5931 52.3644 59.5931C51.8092 59.5976 48.254 58.5287 48.2048 57.4956Z" fill="#E1BD9C"/>
<path d="M50.6053 64.3559C50.574 64.347 50.5427 64.3381 50.5113 64.3291H50.5068C50.5113 64.3336 50.5471 64.3425 50.6053 64.3559Z" fill="#C1977D"/>
<path d="M50.7477 64.2265C50.7119 64.2176 50.6716 64.2131 50.6357 64.2041C50.676 64.2131 50.7074 64.2176 50.7477 64.2265Z" fill="#C3987D"/>
<path d="M50.4614 64.1639C50.4256 64.1549 50.3942 64.1459 50.3629 64.137H50.3584C50.3584 64.137 50.3943 64.1459 50.4614 64.1639Z" fill="#C3987D"/>
<path d="M50.6676 63.9489C50.6318 63.94 50.5915 63.9355 50.5557 63.9265C50.5915 63.931 50.6228 63.94 50.6676 63.9489Z" fill="#C3987D"/>
<path d="M50.3764 63.8819C50.3406 63.8729 50.3093 63.8639 50.2779 63.855H50.2734C50.2734 63.855 50.3137 63.8684 50.3764 63.8819Z" fill="#C3987D"/>
<path d="M50.9229 63.9088C50.8871 63.8999 50.8512 63.8954 50.8154 63.8865C50.8512 63.8954 50.8826 63.8999 50.9229 63.9088Z" fill="#C3987D"/>
<path d="M50.6454 63.8462C50.614 63.8373 50.5827 63.8283 50.5514 63.8193H50.5469C50.5469 63.8193 50.5827 63.8328 50.6454 63.8462Z" fill="#C3987D"/>
<path d="M49.6142 66.7041C49.5828 66.6951 49.5514 66.6862 49.5201 66.6772H49.5156C49.5156 66.6772 49.5515 66.6862 49.6142 66.7041Z" fill="#C5997D"/>
<path d="M49.8032 66.5026C49.7673 66.4937 49.736 66.4892 49.7002 66.4802C49.736 66.4892 49.7629 66.4937 49.8032 66.5026Z" fill="#C5997D"/>
<path d="M49.5389 66.4446C49.5076 66.4356 49.4763 66.4267 49.4449 66.4177H49.4404C49.4404 66.4177 49.4762 66.4267 49.5389 66.4446Z" fill="#C5997D"/>
<path d="M50.0448 66.467C50.0134 66.458 49.9776 66.4535 49.9463 66.4446C49.9776 66.4535 50.0045 66.458 50.0448 66.467Z" fill="#C5997D"/>
<path d="M49.7845 66.409C49.7532 66.4 49.7263 66.391 49.6949 66.3821H49.6904C49.6904 66.3866 49.7263 66.3955 49.7845 66.409Z" fill="#C5997D"/>
<path d="M47.7926 67.2675C47.712 66.1986 50.7701 67.4911 51.7731 67.5224C52.5745 67.5493 54.979 67.3659 55.2028 67.2809C56.8864 66.6548 55.1088 69.0653 51.7238 69.1906C50.1701 69.2532 47.8374 67.9115 47.7926 67.2675Z" fill="#F3DBB5"/>
<path d="M57.8674 64.7006C55.9287 64.3383 51.8452 64.7229 51.8452 64.7229C48.4782 65.282 45.8409 64.6872 45.823 64.7095C45.7424 64.7185 48.514 68.3857 51.8005 68.2202C55.087 68.3902 57.948 64.714 57.8674 64.7006Z" fill="#C56B70"/>
<path d="M53.7912 63.9266C52.9181 63.8282 52.2958 64.4588 51.848 64.4141C51.3913 64.4543 50.8003 64.0519 49.9227 64.0429C48.6869 64.0295 48.0824 63.9222 45.8213 64.7138C45.9019 64.8658 47.3482 65.7066 50.0615 65.7513C50.1018 65.7513 50.8272 66.1628 51.8615 66.1583C52.5107 66.1538 53.3972 65.7245 53.433 65.7245C56.1508 65.6842 57.8075 64.8748 57.8836 64.7272C54.8972 63.797 55.1345 63.9132 53.7912 63.9266Z" fill="#D87A77"/>
<path d="M36.4824 43.6091C36.4824 43.6091 38.1212 50.3487 40.9375 50.8988C43.7539 51.4489 46.7986 50.3532 46.7986 50.3532C46.7986 50.3532 47.0896 42.4328 45.6479 41.3997C44.2061 40.3622 40.8883 38.8595 36.4824 43.6091Z" fill="white"/>
<path d="M46.8034 50.3356C46.8034 50.3356 46.7408 50.3535 46.593 50.4161C46.5572 47.9877 46.3333 44.6513 45.4333 44.0118C44.0945 43.0279 41.0722 41.6505 37.038 45.4295C36.6709 44.3875 36.4873 43.5959 36.4873 43.5959C40.9021 38.8374 44.2244 40.3356 45.6527 41.3776C47.0945 42.4107 46.8034 50.3356 46.8034 50.3356Z" fill="#DCBC9B"/>
<path d="M42.3663 49.6825C43.8969 49.6825 45.1378 48.4391 45.1378 46.9052C45.1378 45.3714 43.8969 44.1279 42.3663 44.1279C40.8356 44.1279 39.5947 45.3714 39.5947 46.9052C39.5947 48.4391 40.8356 49.6825 42.3663 49.6825Z" fill="#4D2A12"/>
<path d="M42.2366 48.7523C41.4352 48.6852 40.8217 47.8757 40.8934 46.9857C40.965 46.0957 41.7038 45.4025 42.5053 45.4696C43.3067 45.5367 43.9202 46.3417 43.8485 47.2317C43.7769 48.1217 43.0381 48.8193 42.2366 48.7523Z" fill="#80401C"/>
<path d="M42.3032 48.4304C41.748 48.3812 41.1705 47.773 41.2287 47.0172C41.2914 46.2613 41.9585 45.7515 42.5182 45.7962C43.0734 45.8454 43.6509 46.4581 43.5883 47.2139C43.5301 47.9697 42.8629 48.4796 42.3032 48.4304Z" fill="#241C09"/>
<path d="M41.856 45.1968C41.8336 45.4697 41.5515 45.6664 41.2336 45.6441C40.9112 45.6172 40.6695 45.3713 40.6919 45.1029C40.7143 44.8301 40.9919 44.6289 41.3142 44.6557C41.6366 44.6826 41.8784 44.924 41.856 45.1968Z" fill="white"/>
<path d="M43.6518 48.1488C43.6384 48.2831 43.4996 48.3861 43.3429 48.3727C43.1817 48.3593 43.0608 48.2384 43.0698 48.0996C43.0832 47.9652 43.222 47.8623 43.3787 47.8757C43.5399 47.8891 43.6653 48.01 43.6518 48.1488Z" fill="white"/>
<path d="M67.4857 43.3813C67.4857 43.3813 65.8469 50.121 63.0306 50.671C60.2143 51.2211 57.1696 50.1254 57.1696 50.1254C57.1696 50.1254 56.8785 42.205 58.3203 41.1719C59.762 40.1344 63.0798 38.6317 67.4857 43.3813Z" fill="white"/>
<path d="M57.1647 50.1073C57.1647 50.1073 57.2274 50.1252 57.3751 50.1878C57.411 47.7594 57.6348 44.423 58.5348 43.7835C59.8736 42.7996 62.8958 41.4222 66.9301 45.2012C67.2972 44.1592 67.4808 43.3676 67.4808 43.3676C63.066 38.6091 59.7437 40.1073 58.3154 41.1494C56.8736 42.178 57.1647 50.1073 57.1647 50.1073Z" fill="#DCBC9B"/>
<path d="M58.834 46.6726C58.834 48.2066 60.0742 49.4498 61.6055 49.4498C63.1368 49.4498 64.3771 48.2066 64.3771 46.6726C64.3771 45.1386 63.1368 43.8953 61.6055 43.8953C60.0742 43.8997 58.834 45.1431 58.834 46.6726Z" fill="#4D2A12"/>
<path d="M61.7318 48.5242C62.5333 48.4572 63.1467 47.6476 63.0751 46.7577C63.0034 45.8677 62.2647 45.1745 61.4632 45.2415C60.6617 45.3086 60.0483 46.1137 60.1199 47.0037C60.1961 47.8936 60.9348 48.5913 61.7318 48.5242Z" fill="#80401C"/>
<path d="M61.6647 48.2023C62.2199 48.1531 62.7975 47.5449 62.7393 46.7891C62.6766 46.0333 62.0095 45.5234 61.4498 45.5682C60.8946 45.6174 60.317 46.23 60.3797 46.9858C60.4379 47.7372 61.1095 48.247 61.6647 48.2023Z" fill="#241C09"/>
<path d="M62.1123 46.3417C62.1346 46.6145 62.4167 46.8113 62.7346 46.7889C63.057 46.7621 63.2988 46.5161 63.2765 46.2477C63.2541 45.9749 62.9765 45.7737 62.6541 45.8005C62.3362 45.8273 62.0944 46.0689 62.1123 46.3417Z" fill="white"/>
<path d="M60.3169 47.9208C60.3303 48.0551 60.4691 48.1581 60.6258 48.1447C60.787 48.1312 60.9079 48.0103 60.8989 47.8715C60.8855 47.7372 60.7467 47.6342 60.59 47.6477C60.4288 47.6611 60.3079 47.782 60.3169 47.9208Z" fill="white"/>
<path d="M48.4877 43.5018C48.4653 43.4705 47.9549 42.6923 46.9116 41.8873C46.2579 41.3864 45.6176 41.0018 44.9505 40.7156C44.1401 40.3757 43.2714 40.1342 42.4297 40.0179C41.6685 39.933 40.8223 39.9554 39.8328 40.0895C39.0806 40.2326 38.3462 40.4562 37.7238 40.7335C37.2806 40.8856 36.9268 41.1002 36.6448 41.2746C36.5373 41.3417 36.4388 41.3999 36.3403 41.4535L34.9971 42.2988L36.5463 41.9321C36.6179 41.9142 36.6985 41.8918 36.7791 41.8695C37.1015 41.7845 37.5 41.6771 37.9656 41.61C38.0731 41.5922 38.185 41.5698 38.3015 41.5474C38.4985 41.5072 38.6999 41.467 38.9104 41.458C39.1432 41.4401 39.3895 41.4267 39.6402 41.4088L39.9671 41.3864C40.8267 41.3775 41.5521 41.4401 42.1924 41.5877C42.8953 41.7085 43.6207 41.9365 44.2834 42.2451C44.9102 42.5448 45.5102 42.8444 45.9803 43.1888C46.9251 43.8238 47.4534 44.3516 47.4579 44.356C47.5877 44.4857 47.7624 44.5528 47.937 44.5528C48.0624 44.5528 48.1922 44.5171 48.3041 44.4455C48.6175 44.2398 48.7027 43.8194 48.5056 43.5152L48.4877 43.5018Z" fill="black"/>
<path d="M67.7632 41.4534C67.6737 41.4042 67.5752 41.3461 67.4678 41.279C67.1857 41.1046 66.8364 40.8899 66.4021 40.7423C65.7663 40.4606 65.032 40.2369 64.2708 40.0938C63.2947 39.9641 62.4485 39.9373 61.6828 40.0268C60.8456 40.1431 59.9724 40.3845 59.162 40.7244C58.5083 41.0062 57.8456 41.3997 57.2009 41.8962C56.1755 42.6833 55.6651 43.448 55.6293 43.5062L55.6203 43.5196C55.4457 43.7879 55.486 44.1457 55.7099 44.3693C55.8353 44.499 56.0054 44.5706 56.1845 44.5706C56.3636 44.5706 56.5338 44.499 56.6591 44.3693L56.6636 44.3649C56.7129 44.3157 57.2233 43.8148 58.1411 43.2021C58.6023 42.8622 59.2023 42.5626 59.8292 42.2629C60.4963 41.9543 61.2172 41.7262 61.9336 41.601C62.5694 41.4534 63.2947 41.3908 64.141 41.3997L64.4813 41.4221C64.7275 41.44 64.9693 41.4579 65.2066 41.4713C65.4126 41.4803 65.6141 41.5205 65.8111 41.5607C65.923 41.5831 66.0349 41.6055 66.1469 41.6234C66.617 41.6904 67.0155 41.7977 67.3334 41.8827C67.4185 41.9051 67.4946 41.9275 67.5707 41.9453L69.1199 42.3121L67.7632 41.4534Z" fill="black"/>
<path d="M73.6186 96.2701C73.5067 94.7003 73.3232 93.2557 73.0769 91.923C72.6426 89.584 72.0202 87.5983 71.2814 85.9123C70.2426 83.5331 68.98 81.7531 67.6905 80.4159H67.6994C67.6591 80.3756 67.6188 80.3354 67.5785 80.2951C67.5651 80.2817 67.5472 80.2638 67.5338 80.2459H67.5293C65.0622 77.8309 62.5772 77.0035 61.5115 76.7486C61.5294 76.8157 60.8444 76.5161 60.7011 76.2477C60.2847 75.5411 59.7877 74.8479 59.1877 74.11C59.134 74.0518 59.0803 74.0071 59.0444 73.949L58.8206 75.2727L54.6431 80.2414H54.3341L52.0461 82.9606L49.8656 80.4069H49.8925L45.715 75.5143L45.3881 73.949C45.3613 73.9758 45.3344 74.0116 45.2986 74.0384C44.4255 75.0849 42.9166 76.8112 42.93 76.7441C41.8688 76.9991 39.0436 77.8309 36.572 80.2414C35.2287 81.5965 33.9034 83.4257 32.8243 85.9033C32.0856 87.5894 31.4632 89.5751 31.0289 91.9141C30.7826 93.2468 30.599 94.6914 30.4871 96.2611C30.4065 97.3658 30.3662 98.5286 30.3662 99.7584C30.3662 99.7584 30.5453 99.8434 30.8811 99.9865H73.2291C73.5604 99.8389 73.7395 99.7584 73.7395 99.7584C73.744 98.5375 73.6992 97.3748 73.6186 96.2701Z" fill="#572E2F"/>
<path d="M61.5704 78.0278C61.3286 74.2577 59.3809 73.5421 59.3809 73.5421V73.5466C59.2645 73.4571 59.1346 73.3811 59.0003 73.314C58.4093 73.0278 57.6974 73.3364 57.5093 73.967C57.2855 74.7228 56.99 75.6709 56.7303 76.3552C56.5422 76.8471 56.278 77.3033 55.9422 77.7103C55.4139 78.3543 54.5497 79.4052 53.7706 80.3757C52.8885 81.4759 51.214 81.4804 50.3185 80.3892C49.4767 79.365 48.5409 78.2424 48.0126 77.6118C47.726 77.2675 47.4887 76.8874 47.3051 76.4759C47.0678 75.9482 46.9111 75.0358 46.7813 74.2532C46.6738 73.6002 46.0067 73.2022 45.3798 73.4168C45.2455 73.4616 45.1201 73.5063 45.0127 73.5376C44.8201 73.5689 42.7695 73.9983 42.5053 77.6521C42.3083 79.119 42.2188 81.2657 42.1829 82.9875C42.1605 83.9491 43.3381 84.4455 44.0097 83.7523C44.4127 83.3363 44.7978 82.9696 45.0709 82.7684C45.241 82.6432 45.447 82.5179 45.6753 82.3927C46.2037 82.1065 46.8708 82.339 47.1305 82.8802L51.2543 91.5251C51.6348 92.3211 52.7677 92.3346 53.1661 91.5475L57.4153 83.1619C57.7018 82.5984 58.4317 82.3927 58.9421 82.7594C58.9466 82.7594 58.9466 82.7639 58.9511 82.7639C59.2242 82.9607 59.6093 83.3319 60.0122 83.7478C60.6839 84.441 61.8569 83.9446 61.839 82.9786C61.8077 81.4088 61.736 79.4679 61.5704 78.0278Z" fill="#9B372E"/>
<path d="M66.1594 34.1907C66.1594 33.6362 66.6206 33.189 67.1847 33.189H75.6695C75.5039 32.0977 75.2442 31.0289 74.886 29.9689H67.1892C66.6206 29.9689 66.1639 29.5217 66.1639 28.9671C66.1639 28.4125 66.6251 27.9608 67.1892 27.9608H74.0756C73.0547 25.7918 71.5637 23.6451 69.513 21.4358C64.8967 16.4626 58.1044 14.0521 58.1044 14.0521L59.9849 15.85C58.8566 14.9734 56.8462 13.7525 53.4971 12.6791C52.9463 12.5047 52.4225 12.375 51.9165 12.2766C51.4151 12.375 50.8912 12.5047 50.3405 12.6791C46.9868 13.7525 44.9765 14.9734 43.8526 15.85L45.7331 14.0521C45.7331 14.0521 38.9408 16.4626 34.3245 21.4358C29.7038 26.4045 27.9307 31.0825 27.9307 36.3375C27.9307 41.5924 29.9993 46.8607 31.3604 48.4215C32.7216 49.9868 32.2828 52.2543 32.6902 52.2543C32.6902 52.2543 33.5051 52.2855 33.5365 48.3231C33.5813 47.7149 33.6977 46.9367 33.9708 46.333C33.9708 46.333 34.1947 46.0244 34.6021 45.5369C36.7334 42.9966 44.9138 27.9296 51.921 38.6854C54.7195 42.9698 54.3881 46.0781 69.8712 46.333C70.1444 46.9367 70.2608 47.7149 70.3055 48.3231C70.3324 52.2855 71.1518 52.2543 71.1518 52.2543C71.5592 52.2543 71.1249 49.9868 72.4816 48.4215C73.4801 47.2676 74.8636 44.1103 75.5218 40.4251H67.1892C66.6206 40.4251 66.1639 39.9779 66.1639 39.4189C66.1639 38.8643 66.6251 38.4126 67.1892 38.4126H75.8039C75.8666 37.7239 75.9069 37.0262 75.9069 36.333C75.9069 35.9484 75.8935 35.5727 75.8755 35.1925H67.1892C66.6206 35.197 66.1594 34.7453 66.1594 34.1907Z" fill="#393B36"/>
</svg>
