<svg width="100" height="100" viewBox="0 0 100 100" fill="none" xmlns="http://www.w3.org/2000/svg">
<path d="M97.5551 0H2.44521C1.09476 0 0 1.09476 0 2.4452V97.5122C0 98.8627 1.09476 99.9574 2.4452 99.9574H97.5551C98.9056 99.9574 100 98.8627 100 97.5122V2.44521C100 1.09476 98.9056 0 97.5551 0Z" fill="white"/>
<path d="M50.4766 62.4367V99.9999H30.0248C29.6853 99.8706 29.5156 99.7996 29.5156 99.7996C29.5156 95.0104 30.2272 91.2683 31.3043 88.3535C32.5772 84.9216 34.3658 82.6337 36.1218 81.1084C37.9496 79.5121 39.7448 78.7559 40.8676 78.4133C40.8741 78.4133 40.8741 78.4134 40.8806 78.4069C41.5922 78.1936 42.0295 78.1419 42.0295 78.1419C42.1144 78.1419 42.1797 78.1355 42.258 78.1225C42.9043 78.0191 43.42 77.4633 43.8443 76.5778C44.1576 75.9186 44.4122 75.072 44.6276 74.109C44.7125 73.7341 44.7778 73.3463 44.8431 72.9327C44.9475 72.2347 45.0454 71.5043 45.1303 70.7417C45.1629 70.2828 45.2151 69.8369 45.2674 69.3586C45.4501 67.0578 45.4958 64.5501 45.4958 62.1588C45.4958 62.1523 48.2506 62.4367 50.4766 62.4367Z" fill="#E4C59E"/>
<path d="M71.5168 99.7988C71.5168 99.7988 71.3341 99.8699 71.0338 99.9992H50.4775V62.436H50.5232C52.7427 62.436 55.517 62.1516 55.517 62.1516C55.517 64.5171 55.5627 67.0054 55.7455 69.2997C55.7978 69.7457 55.85 70.2046 55.8826 70.6505C55.9675 71.4455 56.0654 72.1952 56.1829 72.8867V72.8997C56.2155 73.2163 56.2808 73.4943 56.333 73.7916C56.5354 74.7739 56.7769 75.6335 57.0772 76.3186C57.4428 77.1782 57.8867 77.7792 58.435 78.0119C58.6113 78.0895 58.7875 78.1282 58.9833 78.1282C58.9833 78.1282 59.362 78.1735 59.9952 78.3545C60.2628 78.4385 60.5892 78.5419 60.9417 78.6841C62.0449 79.1106 63.4941 79.8668 64.9629 81.1465C66.6993 82.6718 68.4618 84.9467 69.7217 88.3463C70.8118 91.2676 71.5168 95.0097 71.5168 99.7988Z" fill="#F1DAB4"/>
<mask id="mask0_732_8203" style="mask-type:luminance" maskUnits="userSpaceOnUse" x="44" y="69" width="13" height="7">
<path d="M56.1839 69.2546H44.8516V75.8922H56.1839V69.2546Z" fill="white"/>
</mask>
<g mask="url(#mask0_732_8203)">
<path d="M56.1836 72.8225V72.8419C55.6679 73.6304 53.938 75.8989 50.5044 75.8989H50.4717C47.2274 75.8795 45.3278 73.5464 44.8447 72.8613C44.9426 72.1697 45.0471 71.4459 45.1254 70.6897C45.1581 70.2437 45.2103 69.7849 45.256 69.3066C46.8357 69.7008 48.5656 69.9464 50.3999 69.9787H50.4652C52.3648 69.9464 54.1077 69.6814 55.7397 69.2549C55.7919 69.7008 55.8376 70.1597 55.8703 70.5992C55.9682 71.3942 56.0726 72.1309 56.1836 72.8225Z" fill="#C49D80"/>
</g>
<path d="M50.2416 19.6321C28.5691 19.6321 28.4516 37.6252 29.4177 49.4073C27.9359 46.6153 23.5231 47.4684 23.8886 51.8698C24.2411 56.1095 30.5405 58.2682 30.3642 57.8028C33.6478 66.515 42.3298 73.0814 50.2416 73.0814H50.4113V19.6321H50.2416Z" fill="#D7AD88"/>
<path d="M25.2724 50.0142C26.3365 48.3079 28.0011 49.0447 28.3993 49.4196C28.8301 49.8332 29.1826 50.3567 28.915 51.3585C28.7648 51.9337 28.1643 51.9854 28.3014 52.8385C28.4645 53.808 28.915 53.8597 29.1826 54.0859C29.4307 54.2992 29.7505 54.4607 29.9007 54.8744C30.0704 55.288 30.0835 55.7146 29.9986 56.0894C29.8289 56.781 28.8171 56.2187 28.1316 55.9279C27.6812 55.7146 26.2516 54.5125 25.8861 54.1182C24.9917 53.1035 24.5609 51.1323 25.2724 50.0142Z" fill="#B48D76"/>
<path d="M50.3589 19.6321C72.0314 19.6321 72.1489 37.6252 71.1958 49.4073C72.6776 46.6153 77.0709 47.4684 76.7053 51.8698C76.3724 56.1095 70.0599 58.2682 70.2297 57.8028C67.031 66.515 58.2641 73.0814 50.3523 73.0814C50.3001 73.0814 50.2348 73.0814 50.2348 73.0814L50.1826 19.6321C50.1891 19.6321 50.3066 19.6321 50.3589 19.6321Z" fill="#E1BD9D"/>
<path d="M75.3288 50.0142C74.2647 48.3079 72.6132 49.0447 72.2019 49.4196C71.7711 49.8332 71.4382 50.3567 71.6862 51.3585C71.8364 51.9337 72.4369 51.9854 72.2999 52.8385C72.1301 53.808 71.6862 53.8597 71.4316 54.0859C71.1836 54.2992 70.8507 54.4607 70.7005 54.8744C70.5504 55.288 70.5177 55.7146 70.6026 56.0894C70.7658 56.781 71.7841 56.2187 72.4696 55.9279C72.933 55.7146 74.3496 54.5125 74.7152 54.1182C75.6291 53.1035 76.0403 51.1323 75.3288 50.0142Z" fill="#B48D76"/>
<path d="M50.0732 24.7113C42.9513 24.7113 37.7224 26.7665 34.576 30.8059C30.1632 36.474 30.3329 45.1151 31.9453 51.3261C32.4479 53.2327 32.709 58.345 33.042 60.2128C34.5891 68.6083 43.9304 73.0807 50.0732 73.0807C50.0732 73.0807 50.1907 73.0807 50.2429 73.0807V24.7048C50.1907 24.7048 50.145 24.7048 50.145 24.7048" fill="#E4C59E"/>
<path d="M65.5487 30.8259C62.4219 26.7995 57.2584 24.7442 50.2344 24.7119V73.0878C57.2584 73.0038 65.6663 68.1113 67.0959 60.2199C67.4484 58.3456 67.6964 53.2398 68.1925 51.3332C69.831 45.1351 69.9942 36.5069 65.5487 30.8259Z" fill="#F1DAB4"/>
<path d="M49.0979 64.5112C49.0655 64.5047 49.0331 64.4982 48.9941 64.4917C49.0331 64.4917 49.059 64.4982 49.0979 64.5112Z" fill="#C3977D"/>
<path d="M48.8385 64.4527C48.8061 64.4462 48.7801 64.4332 48.7477 64.4268H48.7412C48.7412 64.4268 48.7801 64.4332 48.8385 64.4527Z" fill="#C3977D"/>
<path d="M46.1042 58.2349C46.0193 56.561 49.1984 57.621 50.2429 57.6791C51.0719 57.7179 53.5851 57.1491 53.8005 57.2978C55.2824 58.2866 52.2339 60.2837 50.1906 60.2837C49.6423 60.2837 46.1564 59.2432 46.1042 58.2349Z" fill="#E1BD9D"/>
<path d="M44.1893 24.8347L44.0977 24.9255L44.1107 24.9579C44.1435 24.906 44.1566 24.8607 44.1893 24.8347Z" fill="#463216"/>
<path d="M49.1575 63.5285C49.1251 63.522 49.0861 63.5155 49.0537 63.509C49.0926 63.5155 49.1186 63.522 49.1575 63.5285Z" fill="#C1967D"/>
<path d="M48.8903 63.4703C48.8578 63.4638 48.8319 63.4508 48.7995 63.4443H48.793C48.793 63.4443 48.8254 63.4508 48.8903 63.4703Z" fill="#C1967D"/>
<path d="M34.6914 43.59C34.6914 43.59 36.343 50.3245 39.1826 50.8738C42.0222 51.4232 45.0903 50.3309 45.0903 50.3309C45.0903 50.3309 45.384 42.4137 43.9283 41.3796C42.4791 40.3455 39.1304 38.8396 34.6914 43.59Z" fill="white"/>
<path d="M45.0981 50.3116C45.0981 50.3116 45.0328 50.3309 44.8892 50.3891C44.85 47.959 44.6281 44.6241 43.7207 43.9843C42.3695 43.0019 39.3209 41.6188 35.2541 45.3997C34.882 44.3591 34.6992 43.5641 34.6992 43.5641C39.1512 38.8073 42.5 40.3068 43.9427 41.3473C45.3919 42.3879 45.0981 50.3116 45.0981 50.3116Z" fill="#DBBB9A"/>
<path d="M40.626 49.6524C42.169 49.6524 43.4199 48.4111 43.4199 46.8798C43.4199 45.3485 42.169 44.1072 40.626 44.1072C39.0829 44.1072 37.832 45.3485 37.832 46.8798C37.832 48.4111 39.0829 49.6524 40.626 49.6524Z" fill="#4C2912"/>
<path d="M40.4957 48.7281C39.6862 48.6634 39.0726 47.8556 39.1444 46.9637C39.2162 46.0718 39.9604 45.3802 40.7698 45.4449C41.5793 45.5095 42.1929 46.3174 42.1211 47.2093C42.0428 48.1012 41.2986 48.7992 40.4957 48.7281Z" fill="#7F401B"/>
<path d="M40.5594 48.411C39.998 48.3657 39.417 47.7517 39.4758 46.9955C39.5411 46.2394 40.2134 45.7288 40.7748 45.774C41.3362 45.8193 41.9172 46.4333 41.8585 47.1894C41.7997 47.9456 41.1208 48.4562 40.5594 48.411Z" fill="#231C08"/>
<path d="M40.1107 46.5502C40.0846 46.8217 39.8039 47.022 39.484 46.9962C39.1576 46.9703 38.9161 46.7248 38.9357 46.4533C38.9618 46.1819 39.236 45.9815 39.5624 46.0074C39.8887 46.0332 40.1303 46.2788 40.1107 46.5502Z" fill="white"/>
<path d="M41.9188 48.1276C41.9058 48.2633 41.7687 48.3603 41.6055 48.3473C41.4423 48.3344 41.3248 48.2116 41.3313 48.0759C41.3444 47.9401 41.4814 47.8432 41.6446 47.8561C41.8078 47.8691 41.9319 47.9918 41.9188 48.1276Z" fill="white"/>
<path d="M49.2024 64.3239C49.17 64.3174 49.1311 64.3109 49.0986 64.3044C49.1311 64.3109 49.1635 64.3109 49.2024 64.3239Z" fill="#C1967D"/>
<path d="M48.9352 64.2591C48.9028 64.2526 48.8768 64.2396 48.8444 64.2332H48.8379C48.8379 64.2396 48.8703 64.2462 48.9352 64.2591Z" fill="#C1967D"/>
<path d="M49.0801 64.1304C49.0408 64.1239 49.008 64.1173 48.9688 64.1042C49.0015 64.1173 49.0342 64.1239 49.0801 64.1304Z" fill="#C3977D"/>
<path d="M48.7864 64.0653C48.754 64.0588 48.7215 64.0458 48.6891 64.0393H48.6826C48.6826 64.0393 48.7215 64.0523 48.7864 64.0653Z" fill="#C3977D"/>
<path d="M48.9951 63.8524C48.9558 63.8458 48.9231 63.8393 48.8838 63.8262C48.9165 63.8327 48.9493 63.8393 48.9951 63.8524Z" fill="#C3977D"/>
<path d="M48.7014 63.7872C48.669 63.7807 48.6366 63.7677 48.6041 63.7612H48.5977C48.5977 63.7612 48.6366 63.7677 48.7014 63.7872Z" fill="#C3977D"/>
<path d="M49.2549 63.8128C49.2156 63.8063 49.1828 63.7997 49.1436 63.7866C49.1828 63.7932 49.209 63.7997 49.2549 63.8128Z" fill="#C3977D"/>
<path d="M48.9739 63.7481C48.9415 63.7416 48.909 63.7287 48.8766 63.7222H48.8701C48.8701 63.7222 48.909 63.7351 48.9739 63.7481Z" fill="#C3977D"/>
<path d="M65.9544 43.364C65.9544 43.364 64.3029 50.0985 61.4633 50.6479C58.6236 51.1972 55.5555 50.1049 55.5555 50.1049C55.5555 50.1049 55.2618 42.1877 56.7175 41.1537C58.1667 40.1131 61.5155 38.6137 65.9544 43.364Z" fill="white"/>
<path d="M55.5498 50.0855C55.5498 50.0855 55.6151 50.1049 55.7587 50.163C55.7979 47.7329 56.0198 44.398 56.9272 43.7581C58.2785 42.7758 61.327 41.3927 65.3938 45.1736C65.7659 44.133 65.9487 43.3381 65.9487 43.3381C61.4967 38.5813 58.1479 40.0807 56.7053 41.1212C55.2561 42.1618 55.5498 50.0855 55.5498 50.0855Z" fill="#DBBB9A"/>
<path d="M57.2275 46.6535C57.2275 48.1853 58.4809 49.4262 60.0215 49.4262C61.5621 49.4262 62.8154 48.1853 62.8154 46.6535C62.8154 45.1218 61.5621 43.8809 60.0215 43.8809C58.4809 43.8809 57.2275 45.1218 57.2275 46.6535Z" fill="#4C2912"/>
<path d="M60.1507 48.5025C60.9601 48.4379 61.5738 47.63 61.5019 46.7381C61.4301 45.8462 60.686 45.1546 59.8765 45.2193C59.0671 45.2839 58.4534 46.0918 58.5252 46.9837C58.6036 47.8756 59.3477 48.5671 60.1507 48.5025Z" fill="#7F401B"/>
<path d="M60.0844 48.1793C60.6458 48.134 61.2268 47.52 61.168 46.7639C61.1028 46.0077 60.4304 45.4971 59.869 45.5423C59.3076 45.5876 58.7266 46.2016 58.7854 46.9577C58.8441 47.7204 59.523 48.2245 60.0844 48.1793Z" fill="#231C08"/>
<path d="M60.5363 46.324C60.5624 46.5954 60.8431 46.7958 61.163 46.7699C61.4893 46.7441 61.7309 46.4985 61.7113 46.227C61.6852 45.9556 61.411 45.7552 61.0846 45.7811C60.7582 45.8069 60.5167 46.0461 60.5363 46.324Z" fill="white"/>
<path d="M58.7295 47.8944C58.7425 48.0301 58.8796 48.1271 59.0428 48.1141C59.206 48.1012 59.3235 47.9784 59.317 47.8427C59.3039 47.707 59.1668 47.6101 59.0036 47.623C58.8404 47.6359 58.7164 47.7587 58.7295 47.8944Z" fill="white"/>
<path d="M46.8013 43.4867C46.7818 43.4544 46.266 42.6788 45.2151 41.8774C44.5557 41.3733 43.9095 40.992 43.2371 40.7076C42.4211 40.3651 41.5464 40.1259 40.6913 40.0096C39.921 39.9256 39.0723 39.945 38.0736 40.0807C37.3163 40.2229 36.5722 40.4491 35.9455 40.727C35.4951 40.8821 35.1426 41.0954 34.8619 41.2699C34.7509 41.3345 34.653 41.3991 34.5551 41.4508L33.1973 42.2975L34.7574 41.9356C34.8292 41.9162 34.9076 41.8968 34.9924 41.8774C35.3188 41.7934 35.717 41.6835 36.187 41.6189C36.298 41.606 36.409 41.5801 36.5265 41.5607C36.7223 41.522 36.9247 41.4832 37.1401 41.4703C37.3751 41.4573 37.6232 41.4379 37.8712 41.4185L38.1976 41.3927C39.0658 41.3798 39.7969 41.4444 40.4432 41.593C41.1547 41.7158 41.8793 41.9421 42.5517 42.2523C43.1849 42.5496 43.792 42.8533 44.262 43.1959C45.2151 43.8292 45.7503 44.3592 45.7503 44.3592C45.8809 44.4885 46.0572 44.5596 46.2334 44.5596C46.364 44.5596 46.488 44.5208 46.6055 44.4497C46.9188 44.2429 47.0102 43.8228 46.8079 43.519L46.8013 43.4867Z" fill="#5B2D23"/>
<path d="M66.2342 41.4311C66.1428 41.3859 66.0449 41.3212 65.9339 41.2566C65.6467 41.0821 65.2942 40.8688 64.8634 40.7202C64.2236 40.4423 63.4795 40.2161 62.7092 40.0674C61.7235 39.9382 60.8683 39.9123 60.098 39.9963C59.2494 40.1126 58.3747 40.3518 57.5587 40.6943C56.8994 40.9722 56.2335 41.3665 55.5807 41.8641C54.5493 42.6526 54.0336 43.4153 53.9945 43.4734L53.9879 43.4864C53.8117 43.7513 53.8509 44.1133 54.0793 44.333C54.2099 44.4623 54.3796 44.5334 54.5624 44.5334C54.7452 44.5334 54.9149 44.4623 55.0454 44.333L55.052 44.3265C55.1042 44.2748 55.6199 43.7772 56.5403 43.1632C57.0038 42.8207 57.6109 42.5234 58.2441 42.2261C58.9165 41.9158 59.6476 41.6897 60.3657 41.5669C61.0054 41.4182 61.7365 41.3536 62.5917 41.3665L62.9376 41.3923C63.1857 41.4117 63.4338 41.4247 63.6688 41.4441C63.8777 41.457 64.08 41.4957 64.2759 41.5345C64.3934 41.5604 64.5043 41.5798 64.6153 41.5927C65.0853 41.6638 65.49 41.7672 65.8099 41.8512C65.8948 41.8706 65.9731 41.8965 66.0449 41.9158L67.6051 42.2778L66.2342 41.4311Z" fill="#5B2D23"/>
<path d="M48.4329 65.054C48.4005 65.0475 48.368 65.0346 48.3356 65.0281H48.3291C48.3291 65.0281 48.368 65.041 48.4329 65.054Z" fill="#C5997D"/>
<path d="M46.2331 66.5077C46.1483 65.422 49.2686 66.734 50.2935 66.7663C51.1095 66.7921 53.5639 66.6047 53.7924 66.5207C55.5092 65.8808 53.701 68.3303 50.2413 68.4596C48.6615 68.5242 46.2788 67.167 46.2331 66.5077Z" fill="#F3DAB4"/>
<path d="M56.3919 64.4206C55.5433 64.3818 54.6751 65.0798 53.6568 64.97C53.6176 64.9506 53.5915 64.9506 53.5523 64.9506C53.3173 64.9118 53.0888 64.9506 52.8342 65.0152C52.5144 65.0798 52.201 65.2091 51.9008 65.3125C51.3916 65.4741 50.8171 65.6098 50.2296 65.5645V65.571C50.2166 65.571 50.21 65.5645 50.197 65.5645C50.1839 65.5645 50.1774 65.571 50.1644 65.571V65.5645C49.5768 65.6098 49.0024 65.4806 48.4932 65.3125C48.1929 65.2091 47.8731 65.0798 47.5597 65.0152C47.3051 64.9506 47.0701 64.9118 46.8417 64.9506C46.796 64.9506 46.7764 64.9506 46.7372 64.97C45.7189 65.0798 44.8507 64.3754 44.002 64.4206C43.767 64.44 43.4276 64.3818 43.2383 64.3818C43.2774 64.4012 43.3232 64.4206 43.3688 64.4465C45.7842 65.6163 47.8665 67.8073 50.1709 67.7362C50.1839 67.7362 50.1905 67.7362 50.2035 67.7362C50.2166 67.7362 50.2231 67.7362 50.2361 67.7362C52.5405 67.8073 54.6229 65.6163 57.0382 64.4465C57.0839 64.4271 57.123 64.4077 57.1687 64.3818C56.9664 64.3818 56.6269 64.44 56.3919 64.4206Z" fill="#E1C7A3"/>
<path d="M57.0966 64.3561C57.0966 64.3561 54.6421 63.419 52.8992 63.9683C52.8992 63.9683 52.2464 64.2204 51.5741 64.3755C51.1628 64.5306 50.6667 64.5823 50.1901 64.5629C49.8246 64.55 49.4721 64.5048 49.1849 64.4531C49.0869 64.4401 48.9955 64.4207 48.8976 64.4013C48.8585 64.3949 48.8258 64.3884 48.7866 64.3755C48.7279 64.3626 48.6691 64.3497 48.6104 64.3367C48.5451 64.3238 48.5125 64.3109 48.5125 64.3109H48.519C47.9576 64.1622 47.4811 63.9748 47.4811 63.9748C45.7381 63.4254 43.2837 64.3626 43.2837 64.3626C43.251 64.3755 43.2314 64.3884 43.2314 64.3884C43.4208 64.3884 43.7602 64.4531 43.9952 64.4272C44.8438 64.3884 45.712 65.0864 46.7304 64.9766C46.7695 64.9572 46.7957 64.9572 46.8348 64.9572C47.0698 64.9184 47.2983 64.9572 47.5529 65.0218C47.8728 65.0864 48.1861 65.2157 48.4864 65.3191C48.9955 65.4807 49.57 65.6164 50.1575 65.5711V65.5776C50.1706 65.5776 50.1771 65.5711 50.1901 65.5711C50.2032 65.5711 50.2097 65.5776 50.2228 65.5776V65.5711C50.8103 65.6164 51.3847 65.4872 51.8939 65.3191C52.1942 65.2157 52.5141 65.0864 52.8274 65.0218C53.082 64.9572 53.317 64.9184 53.5455 64.9572C53.5912 64.9572 53.6107 64.9572 53.6499 64.9766C54.6683 65.0864 55.5365 64.382 56.3851 64.4272C56.6201 64.4466 56.9595 64.3884 57.1488 64.3884C57.1554 64.382 57.1293 64.369 57.0966 64.3561Z" fill="#CBA686"/>
<path d="M46.0635 64.9242C46.1092 64.9371 50.6656 66.3138 54.2233 64.9565L53.812 64.6851H48.9945L46.0635 64.9242Z" fill="#CBA686"/>
<path d="M71.5159 99.7998C71.5159 99.7998 71.3331 99.8708 71.0328 100H30.0248C29.6853 99.8708 29.5156 99.7998 29.5156 99.7998C29.5156 95.0106 30.2272 91.2685 31.3043 88.3537C32.5772 84.9218 34.3658 82.6339 36.1218 81.1086C38.5828 85.6328 43.7137 93.1816 50.4766 93.104C54.7458 93.0588 59.6613 89.9759 64.9684 81.1603C66.7048 82.6856 68.4674 84.9606 69.7273 88.3602C70.8109 91.2685 71.5159 95.0106 71.5159 99.7998Z" fill="#6E851E"/>
<path d="M64.9677 81.1539C59.6606 89.9694 54.7451 93.0523 50.4759 93.0975C43.713 93.1751 38.5821 85.6263 36.1211 81.1021C37.9489 79.5058 39.7441 78.7496 40.8668 78.4071C40.8734 78.4071 40.8734 78.4071 40.8799 78.4006L45.9064 84.1333C47.114 85.5035 48.7917 86.195 50.4759 86.195C52.1666 86.195 53.8508 85.497 55.0584 84.0945L60 78.3618C60.2676 78.4458 60.594 78.5493 60.9466 78.6914C62.0498 79.118 63.4924 79.8742 64.9677 81.1539Z" fill="#A4C307"/>
<path d="M75.0356 35.6925C75.0291 36.7265 75.016 37.7218 74.9834 38.6784C71.6999 39.0468 68.3642 39.3117 65.0676 39.4733C63.5335 39.5509 62.006 39.6091 60.485 39.6478C60.0868 39.6608 59.6952 39.6737 59.297 39.6737C58.2786 39.6995 57.2733 39.7125 56.268 39.7189C53.7679 39.7383 51.3264 39.7189 48.9634 39.6543C47.3444 39.622 45.7712 39.5703 44.2372 39.5121C43.4473 39.4798 42.6705 39.441 41.9133 39.4087C40.4184 39.3311 38.9823 39.2471 37.6179 39.1566C32.4283 38.8206 28.1982 38.4069 25.5283 38.1096C25.5283 35.686 25.6785 33.1331 26.0636 30.6836C28.2439 31.22 33.3357 31.4398 39.4588 31.485H39.635C44.8443 31.5173 50.7977 31.4333 56.3529 31.2911H56.3986C64.5976 31.0908 71.9219 30.8064 74.7288 30.6901C74.9769 32.5256 75.0422 34.2447 75.0356 35.6925Z" fill="#A4C307"/>
<path d="M75.0356 35.6929C75.0291 36.727 75.016 37.7223 74.9834 38.6789C74.311 60.7243 67.6069 61.823 67.6069 61.823C67.6069 61.823 69.5783 57.4411 69.9047 52.555C70.094 49.7242 68.6514 41.2447 68.6514 41.2447C68.7689 44.9804 65.6029 49.1619 65.6029 49.1619C65.9684 46.3117 65.6029 42.6859 65.0611 39.4738C64.3495 35.2341 63.3312 31.7311 63.3312 31.7311C63.3965 35.5443 61.6862 38.2329 60.485 39.6419C59.8322 40.4045 59.3361 40.7923 59.3361 40.7923C59.3361 40.411 59.3231 40.0297 59.3035 39.6677C59.0032 34.8204 56.8555 31.8668 56.4051 31.2916C56.3464 31.2205 56.3203 31.1882 56.3203 31.1882C56.3333 31.2205 56.3464 31.2593 56.3529 31.2916C57.3255 34.0707 57.0383 37.0437 56.268 39.7194C54.8776 44.5796 51.8813 48.4575 51.8813 48.4575C51.457 45.562 50.2232 42.3628 48.9634 39.6613C47.3053 36.1066 45.595 33.4179 45.595 33.4179C44.5636 36.1906 44.2698 38.1941 44.2372 39.5191C44.2045 40.8828 44.4461 41.5226 44.4461 41.5226C43.3886 41.0444 42.5595 40.2946 41.9133 39.4157C40.0071 36.824 39.6807 33.0689 39.635 31.492C39.622 31.0266 39.6285 30.7423 39.6285 30.7423C39.6285 30.7423 39.5632 31.0266 39.4653 31.492C39.1193 33.056 38.2772 36.7529 37.6244 39.1636C37.3829 40.062 37.161 40.7858 36.9978 41.1478C34.1973 47.4751 34.3475 49.4269 34.3475 49.4269C32.1019 47.5785 32.1606 42.3499 32.1606 42.3499C32.1606 42.3499 31.0509 50.2154 31.1684 52.8458C31.2794 55.4052 33.0093 62.9605 33.0093 62.9605C33.0093 62.9605 27.9306 58.9405 26.044 45.6589C25.7372 43.5197 25.5283 40.8957 25.5283 38.1036C25.5283 35.68 25.6785 33.1271 26.0636 30.6776C26.7229 26.3668 28.0872 22.3532 30.5482 19.8003C37.6244 12.4583 45.83 12.2256 51.0327 12.245C68.9778 12.3355 73.6387 22.6376 74.7288 30.6841C74.9769 32.5261 75.0422 34.2452 75.0356 35.6929Z" fill="#5B2D23"/>
<path d="M70.3477 54.8103L69.4338 55.4824C69.4338 55.4824 63.624 68.4021 58.7281 65.1124L58.7085 65.177C58.467 64.4273 58.108 63.781 57.6641 63.3027C56.2802 61.2798 53.4797 59.8967 50.2354 59.8967C47.2521 59.8967 44.641 61.073 43.1657 62.8374C42.5064 63.2898 41.9711 64.0783 41.6317 65.0607L41.6251 65.0477C36.7227 68.3374 31.3046 55.4824 31.3046 55.4824L30.3907 54.8103L30.3711 56.8591C32.1924 64.6987 39.8561 69.9984 42.9176 71.8404C43.1722 72.0601 43.4399 72.2411 43.7336 72.3445C43.8707 72.4156 44.0208 72.4803 44.171 72.5514C44.184 72.5578 44.1971 72.5643 44.1971 72.5643C45.7181 73.2364 47.8592 73.6565 50.2484 73.6565C52.7943 73.6565 55.0725 73.1783 56.6066 72.4286L56.5674 72.5643C56.5674 72.5643 68.0956 66.7152 70.3869 56.8591L70.3477 54.8103ZM54.3022 70.9679C54.3088 70.9421 54.3153 70.9162 54.3153 70.8904C54.3153 70.1148 52.4483 69.4878 50.144 69.4878C47.8397 69.4878 45.9727 70.1148 45.9727 70.8904C45.9727 70.9033 45.9792 70.9097 45.9792 70.9227C45.1632 70.7223 44.4321 70.4638 43.8315 70.16C43.5117 69.378 43.3158 68.4538 43.3158 67.452V67.4455C43.3158 66.9156 43.5639 66.4115 43.9686 66.0689C45.1893 65.0284 46.867 64.2916 48.7666 64.0395C49.2431 63.9749 49.7393 63.9426 50.2419 63.9426C50.7446 63.9426 51.2341 63.9813 51.7172 64.0395C53.4406 64.2722 54.9746 64.8991 56.1496 65.7975C56.6653 66.1917 56.9852 66.8057 56.9852 67.452C56.9852 67.4585 56.9852 67.4584 56.9852 67.4649C56.9852 68.5119 56.7763 69.4749 56.4238 70.2828C55.8167 70.5413 55.0986 70.7805 54.3022 70.9679Z" fill="#845358"/>
<path d="M67.3259 16.3742H33.3223C32.5128 16.3742 31.8535 15.7214 31.8535 14.92V13.9764C31.8535 13.175 32.5128 12.5222 33.3223 12.5222H67.3259C68.1354 12.5222 68.7947 13.175 68.7947 13.9764V14.92C68.7947 15.7214 68.1354 16.3742 67.3259 16.3742Z" fill="#31283B"/>
<path d="M31.4306 42.3105V58.41C31.4306 60.4459 29.642 62.0939 27.4355 62.0939V38.6331C29.6485 38.6266 31.4306 40.2812 31.4306 42.3105Z" fill="#131114"/>
<path d="M44.2918 13.5887L27.4369 24.117V62.0938H25.9224C24.7017 62.0938 23.605 61.3894 23.1872 60.3359L19.153 50.2277C18.2652 48.0109 18.6177 45.542 20.093 43.616L22.6716 40.2294V22.624C22.652 22.1328 22.8935 21.6352 23.37 21.3443L41.6285 9.94354C42.3465 9.49759 43.3453 9.67208 43.8283 10.3378L44.7227 11.5464C45.2123 12.2185 45.0164 13.1363 44.2918 13.5887Z" fill="#31283B"/>
<path d="M73.0796 38.6396V62.0876C70.9385 62.023 69.2217 60.4007 69.2217 58.4101V42.3107C69.2217 40.32 70.9385 38.6978 73.0796 38.6396Z" fill="#131114"/>
<path d="M81.5078 50.2276L77.4736 60.3358C77.0493 61.3893 75.9591 62.0937 74.7384 62.0937H73.2305C73.1718 62.042 73.1456 62.0097 73.0869 61.9645V38.6394C73.1326 38.6329 73.1848 38.6329 73.2305 38.6329V24.1169L56.3625 13.5886C55.6444 13.1362 55.4486 12.2184 55.9382 11.5463L56.8325 10.3377C57.3221 9.67199 58.3143 9.49104 59.0324 9.94345L77.2908 21.3442C77.7674 21.6351 78.0089 22.1327 77.9893 22.6239V40.2293L80.5678 43.6159C82.0431 45.5419 82.3956 48.0172 81.5078 50.2276Z" fill="#31283B"/>
<path d="M22.3466 44.6884C22.1181 44.3523 16.7848 36.3834 18.6975 30.4115C19.3895 28.2399 20.9692 26.6112 23.378 25.5642L23.6978 26.1911C21.4914 27.1477 20.0553 28.6342 19.4221 30.6054C17.6074 36.2799 22.9341 44.236 22.9863 44.3135L22.3466 44.6884Z" fill="#1F140F"/>
<path d="M23.8794 44.553C23.8794 45.2833 23.2332 45.8779 22.4368 45.8779C21.6404 45.8779 20.9941 45.2833 20.9941 44.553C20.9941 43.8227 21.6404 43.228 22.4368 43.228C23.2332 43.228 23.8794 43.8227 23.8794 44.553Z" fill="#1F140F"/>
<path d="M27.4369 25.2285H22.665V27.2708H27.4369V25.2285Z" fill="#1F140F"/>
</svg>
