<svg width="100" height="100" viewBox="0 0 100 100" fill="none" xmlns="http://www.w3.org/2000/svg">
<path d="M95 0H5C2.23858 0 0 2.23858 0 5V95C0 97.7614 2.23858 100 5 100H95C97.7614 100 100 97.7614 100 95V5C100 2.23858 97.7614 0 95 0Z" fill="#E7654A"/>
<path d="M50.099 62.4241V100H29.6457C29.3116 99.8704 29.1445 99.7988 29.1445 99.7988C29.1445 97.7595 29.271 95.9214 29.5058 94.2532C29.8128 91.9813 30.3094 90.0224 30.9325 88.3498C31.1538 87.746 31.3885 87.1825 31.6459 86.6459C34.2917 81.0108 38.3734 79.0654 40.4142 78.4214C40.4413 78.4079 40.4684 78.399 40.4955 78.3945C41.2179 78.1754 41.6603 78.1217 41.6603 78.1217C41.7371 78.1217 41.8048 78.1128 41.8816 78.1083C42.157 78.0681 42.4144 77.9384 42.6446 77.7326C42.9562 77.4643 43.2271 77.0663 43.4709 76.5609C43.7824 75.908 44.0443 75.0627 44.252 74.0877C44.3423 73.7121 44.4055 73.3274 44.4732 72.916C44.5681 72.2228 44.6674 71.4938 44.7577 70.7335C44.7848 70.2729 44.839 69.8257 44.8886 69.3471C45.0692 67.0484 45.1189 64.526 45.1189 62.1468C45.1234 62.1423 47.8731 62.4241 50.099 62.4241Z" fill="#E5C69F"/>
<path d="M71.1399 99.7989C71.1399 99.7989 70.9593 99.8659 70.6568 100H50.0996V62.4241H50.1538C52.3662 62.4241 55.1429 62.1423 55.1429 62.1423C55.1429 64.5126 55.1926 66.9903 55.3777 69.289C55.4274 69.7407 55.4725 70.2013 55.5087 70.6486C55.5899 71.4446 55.6938 72.1871 55.8067 72.8803V72.9026C55.8428 73.2201 55.9015 73.5019 55.9602 73.7971C56.1634 74.772 56.4027 75.6352 56.7007 76.3239C56.9716 76.9634 57.2966 77.4554 57.6624 77.764C57.7888 77.8758 57.9197 77.9563 58.0552 78.0189C58.2268 78.0949 58.4074 78.1307 58.6015 78.1307C58.6015 78.1307 59.0936 78.1933 59.8883 78.4482C60.096 78.5153 60.3263 78.5913 60.5656 78.6897C62.7418 79.5395 66.2546 81.628 68.625 86.6593C68.8733 87.196 69.1171 87.7595 69.3384 88.3633C69.9614 90.0404 70.4626 91.9947 70.7742 94.2666C71.0089 95.9214 71.1399 97.764 71.1399 99.7989Z" fill="#F2DAB5"/>
<mask id="mask0_732_8196" style="mask-type:luminance" maskUnits="userSpaceOnUse" x="44" y="69" width="12" height="7">
<path d="M55.8159 69.2441H44.4785V75.8855H55.8159V69.2441Z" fill="white"/>
</mask>
<g mask="url(#mask0_732_8196)">
<path d="M55.8114 72.8085V72.8264C55.2966 73.6135 53.5629 75.8855 50.1359 75.8855H50.1043C46.858 75.8676 44.9616 73.533 44.4785 72.8443C44.5778 72.1556 44.6772 71.4311 44.763 70.6752C44.7946 70.2325 44.8442 69.7719 44.8939 69.2933C46.4742 69.6869 48.208 69.9329 50.0366 69.9686H50.1043C52.0006 69.9373 53.748 69.6735 55.3824 69.2441C55.4321 69.6869 55.4818 70.1475 55.5179 70.5903C55.5947 71.3819 55.694 72.1198 55.8114 72.8085Z" fill="#C69F82"/>
</g>
<path d="M49.8695 19.6018C28.1971 19.6018 28.0797 37.6027 29.046 49.3871C27.565 46.592 23.1538 47.4462 23.5195 51.8514C23.8672 56.0911 30.1702 58.2557 29.9941 57.7861C33.2766 66.5025 41.9636 73.0723 49.8695 73.0723H50.0366V19.6018H49.8695Z" fill="#D7AE89"/>
<path d="M24.901 49.9956C25.9665 48.2872 27.6326 49.0251 28.0299 49.4053C28.4634 49.8167 28.8111 50.34 28.5447 51.3462C28.3957 51.9232 27.7951 51.9724 27.9306 52.8266C28.0976 53.797 28.5446 53.8462 28.811 54.0743C29.0594 54.289 29.3754 54.4545 29.5289 54.8614C29.696 55.2729 29.714 55.6978 29.6283 56.0779C29.4612 56.7666 28.4453 56.2076 27.7635 55.9124C27.312 55.6978 25.8808 54.4992 25.515 54.1056C24.621 53.0859 24.1876 51.1137 24.901 49.9956Z" fill="#B48E76"/>
<path d="M49.987 19.6019C71.6594 19.6019 71.7768 37.6028 70.8241 49.3872C72.305 46.592 76.6982 47.4462 76.3325 51.8514C75.9984 56.0911 69.6863 58.2557 69.8579 57.7861C66.6612 66.5026 57.8884 73.0724 49.9825 73.0724C49.9328 73.0724 49.8651 73.0724 49.8651 73.0724L49.8154 19.5974C49.8199 19.6019 49.9373 19.6019 49.987 19.6019Z" fill="#E1BE9D"/>
<path d="M74.9546 49.9956C73.889 48.2872 72.241 49.0251 71.8257 49.4053C71.3922 49.8167 71.0581 50.34 71.3109 51.3462C71.4599 51.9232 72.0604 51.9724 71.925 52.8266C71.7579 53.797 71.3109 53.8462 71.0581 54.0743C70.8098 54.289 70.4756 54.4545 70.3266 54.8614C70.1776 55.2729 70.1415 55.6978 70.2273 56.0779C70.3944 56.7666 71.4102 56.2076 72.092 55.9124C72.5571 55.6978 73.9748 54.4992 74.3406 54.1056C75.2526 53.0859 75.668 51.1137 74.9546 49.9956Z" fill="#B48E76"/>
<path d="M49.6981 24.678C42.5733 24.678 37.3493 26.7308 34.2023 30.7782C29.7911 36.449 29.9581 45.0939 31.5745 51.3104C32.0757 53.2155 32.3421 58.3273 32.6717 60.2012C34.2204 68.6002 43.5576 73.0724 49.6981 73.0724C49.6981 73.0724 49.8155 73.0724 49.8651 73.0724V24.678C49.8155 24.678 49.7658 24.678 49.7658 24.678" fill="#E5C69F"/>
<path d="M65.1794 30.7962C62.0505 26.7667 56.8897 24.7139 49.8643 24.6826V73.0771C56.8897 72.9966 65.2923 68.095 66.7236 60.2059C67.0712 58.332 67.3241 53.2202 67.8207 51.315C69.4552 45.1119 69.6222 36.4805 65.1794 30.7962Z" fill="#F2DAB5"/>
<path d="M48.4649 64.4365C48.4333 64.4276 48.4062 64.4186 48.3746 64.4097H48.3701C48.3701 64.4097 48.4062 64.4231 48.4649 64.4365Z" fill="#C3987D"/>
<path d="M45.7291 58.2157C45.6478 56.543 48.8219 57.603 49.8649 57.6566C50.6911 57.6969 53.206 57.1289 53.4228 57.2765C54.9037 58.2693 51.856 60.264 49.8107 60.264C49.2734 60.264 45.7787 59.2264 45.7291 58.2157Z" fill="#E1BE9D"/>
<path d="M43.8131 24.7988L43.7236 24.8883L43.737 24.9196C43.7683 24.8749 43.7863 24.8301 43.8131 24.7988Z" fill="#473217"/>
<path d="M48.7904 63.5109C48.7542 63.5019 48.7226 63.4975 48.6865 63.4885C48.7181 63.4975 48.7497 63.5064 48.7904 63.5109Z" fill="#C1977D"/>
<path d="M48.5134 63.4526C48.4818 63.4437 48.4502 63.4347 48.4186 63.4258H48.4141C48.4186 63.4258 48.4547 63.4392 48.5134 63.4526Z" fill="#C1977D"/>
<path d="M34.3184 43.5688C34.3184 43.5688 35.9709 50.3085 38.8109 50.8586C41.6509 51.4087 44.7211 50.313 44.7211 50.313C44.7211 50.313 45.0146 42.3926 43.5607 41.3595C42.1069 40.3175 38.7612 38.8193 34.3184 43.5688Z" fill="white"/>
<path d="M44.726 50.2907C44.726 50.2907 44.6628 50.3086 44.5138 50.3712C44.4777 47.9427 44.2519 44.6064 43.3444 43.9669C41.9944 42.983 38.9467 41.6055 34.8786 45.3846C34.5084 44.3426 34.3232 43.551 34.3232 43.551C38.7751 38.7925 42.1253 40.2907 43.5656 41.3327C45.0195 42.3658 44.726 50.2907 44.726 50.2907Z" fill="#DCBC9B"/>
<path d="M40.2519 49.6378C41.7954 49.6378 43.0467 48.3944 43.0467 46.8605C43.0467 45.3267 41.7954 44.0833 40.2519 44.0833C38.7083 44.0833 37.457 45.3267 37.457 46.8605C37.457 48.3944 38.7083 49.6378 40.2519 49.6378Z" fill="#4D2A12"/>
<path d="M40.12 48.7075C39.3118 48.6404 38.6933 47.831 38.7655 46.941C38.8377 46.051 39.5828 45.3578 40.391 45.4249C41.1992 45.492 41.8177 46.297 41.7455 47.187C41.6732 48.0814 40.9282 48.7791 40.12 48.7075Z" fill="#80401C"/>
<path d="M40.1883 48.3898C39.6284 48.3406 39.046 47.7324 39.1047 46.9766C39.1679 46.2208 39.8406 45.7109 40.405 45.7557C40.9649 45.8049 41.5473 46.4175 41.4841 47.1734C41.4254 47.9247 40.7527 48.4346 40.1883 48.3898Z" fill="#241C09"/>
<path d="M39.7369 46.5294C39.7143 46.8022 39.4299 46.999 39.1093 46.9766C38.7842 46.9498 38.5404 46.7038 38.563 46.4355C38.5855 46.1627 38.8655 45.9614 39.1905 45.9882C39.5156 46.0106 39.7595 46.2566 39.7369 46.5294Z" fill="white"/>
<path d="M41.5474 48.1038C41.5338 48.238 41.3939 48.3408 41.2358 48.3274C41.0733 48.314 40.9514 48.1933 40.9604 48.0546C40.974 47.9205 41.1139 47.8176 41.272 47.831C41.4345 47.8489 41.5564 47.9696 41.5474 48.1038Z" fill="white"/>
<path d="M48.5603 64.2488C48.5287 64.2398 48.4971 64.2309 48.4655 64.2219H48.4609C48.4655 64.2219 48.5016 64.2309 48.5603 64.2488Z" fill="#C1977D"/>
<path d="M48.7047 64.1188C48.6686 64.1098 48.6279 64.1054 48.5918 64.0964C48.6324 64.1009 48.664 64.1098 48.7047 64.1188Z" fill="#C3987D"/>
<path d="M48.4154 64.0517C48.3792 64.0428 48.3476 64.0338 48.316 64.0249H48.3115C48.3115 64.0249 48.3476 64.0383 48.4154 64.0517Z" fill="#C3987D"/>
<path d="M48.6226 63.8373C48.5865 63.8284 48.5459 63.8239 48.5098 63.8149C48.5459 63.8194 48.5775 63.8284 48.6226 63.8373Z" fill="#C3987D"/>
<path d="M48.3285 63.77C48.2924 63.7611 48.2607 63.7521 48.2291 63.7432H48.2246C48.2246 63.7432 48.2653 63.7566 48.3285 63.77Z" fill="#C3987D"/>
<path d="M48.8798 63.797C48.8437 63.7881 48.8076 63.7836 48.7715 63.7747C48.8076 63.7836 48.8392 63.7881 48.8798 63.797Z" fill="#C3987D"/>
<path d="M48.6003 63.7344C48.5687 63.7254 48.5371 63.7165 48.5055 63.7075H48.501C48.501 63.7075 48.5371 63.7209 48.6003 63.7344Z" fill="#C3987D"/>
<path d="M65.5813 43.3363C65.5813 43.3363 63.9288 50.076 61.0888 50.6261C58.2488 51.1762 55.1786 50.0805 55.1786 50.0805C55.1786 50.0805 54.8851 42.1601 56.339 41.127C57.7928 40.0895 61.1385 38.5868 65.5813 43.3363Z" fill="white"/>
<path d="M55.1747 50.0627C55.1747 50.0627 55.2379 50.0806 55.3869 50.1432C55.423 47.7147 55.6487 44.3784 56.5563 43.7389C57.9063 42.755 60.954 41.3775 65.0221 45.1566C65.3923 44.1145 65.5774 43.323 65.5774 43.323C61.1255 38.5645 57.7754 40.0627 56.335 41.1047C54.8812 42.1378 55.1747 50.0627 55.1747 50.0627Z" fill="#DCBC9B"/>
<path d="M56.8584 46.6325C56.8584 48.1665 58.1091 49.4098 59.6532 49.4098C61.1974 49.4098 62.4481 48.1665 62.4481 46.6325C62.4481 45.0985 61.1974 43.8552 59.6532 43.8552C58.1091 43.8552 56.8584 45.0985 56.8584 46.6325Z" fill="#4D2A12"/>
<path d="M59.7796 48.4795C60.5878 48.4124 61.2064 47.603 61.1341 46.713C61.0619 45.823 60.3169 45.1298 59.5087 45.1969C58.7005 45.264 58.0819 46.069 58.1542 46.9589C58.2309 47.8489 58.9714 48.5466 59.7796 48.4795Z" fill="#80401C"/>
<path d="M59.7117 48.1574C60.2716 48.1082 60.854 47.5 60.7953 46.7442C60.7321 45.9884 60.0594 45.4785 59.495 45.5232C58.9351 45.5724 58.3526 46.1851 58.4159 46.941C58.4746 47.6968 59.1518 48.2066 59.7117 48.1574Z" fill="#241C09"/>
<path d="M60.1631 46.3013C60.1856 46.5741 60.4701 46.7709 60.7907 46.7486C61.1157 46.7217 61.3596 46.4758 61.337 46.2074C61.3144 45.9346 61.0345 45.7334 60.7094 45.7602C60.3888 45.7826 60.145 46.0241 60.1631 46.3013Z" fill="white"/>
<path d="M58.352 47.8758C58.3656 48.01 58.5055 48.1128 58.6636 48.0994C58.8261 48.086 58.948 47.9652 58.939 47.8266C58.9255 47.6924 58.7855 47.5896 58.6275 47.603C58.4649 47.6164 58.343 47.7371 58.352 47.8758Z" fill="white"/>
<path d="M46.4233 43.4616C46.4007 43.4303 45.886 42.6521 44.834 41.8471C44.1748 41.3462 43.5291 40.9616 42.8564 40.6753C42.0391 40.3355 41.1632 40.094 40.3144 39.9777C39.5468 39.8927 38.6935 39.915 37.6956 40.0492C36.9371 40.1923 36.1966 40.4159 35.569 40.6932C35.122 40.8453 34.7653 41.06 34.4809 41.2344C34.3725 41.3015 34.2732 41.3596 34.1739 41.4133L32.8193 42.2585L34.3816 41.8918C34.4538 41.8739 34.5351 41.8515 34.6163 41.8292C34.9414 41.7442 35.3433 41.6369 35.8128 41.5698C35.9212 41.5519 36.0341 41.5295 36.1515 41.5072C36.3501 41.4669 36.5533 41.4267 36.7655 41.4177C37.0003 41.3998 37.2486 41.3864 37.5015 41.3685L37.8311 41.3462C38.698 41.3372 39.4294 41.3999 40.0751 41.5474C40.7839 41.6682 41.5154 41.8963 42.1836 42.2049C42.8157 42.5045 43.4208 42.8041 43.8948 43.1485C44.8475 43.7836 45.3803 44.3113 45.3848 44.3158C45.5158 44.4455 45.6918 44.5125 45.8679 44.5125C45.9944 44.5125 46.1253 44.4768 46.2382 44.4007C46.5542 44.195 46.64 43.7746 46.4413 43.4705L46.4233 43.4616Z" fill="black"/>
<path d="M65.8603 41.4087C65.77 41.3595 65.6707 41.3014 65.5623 41.2343C65.2778 41.0599 64.9257 40.8452 64.4877 40.6976C63.8466 40.4159 63.1061 40.1923 62.3385 40.0492C61.3542 39.9195 60.5009 39.8926 59.7288 39.9821C58.8845 40.0984 58.0041 40.3399 57.1868 40.6798C56.5276 40.9615 55.8594 41.3551 55.2092 41.8515C54.1753 42.6386 53.6605 43.4034 53.6244 43.4615L53.6154 43.4749C53.4393 43.7433 53.4799 44.101 53.7057 44.3246C53.8321 44.4543 54.0037 44.5259 54.1843 44.5259C54.3649 44.5259 54.5365 44.4543 54.6629 44.3246L54.6674 44.3202C54.7171 44.271 55.2318 43.7701 56.1574 43.1574C56.6224 42.8175 57.2275 42.5179 57.8596 42.2182C58.5323 41.9096 59.2592 41.6815 59.9817 41.5563C60.6228 41.4087 61.3542 41.3461 62.2076 41.355L62.5507 41.3774C62.7991 41.3953 63.0429 41.4132 63.2822 41.4266C63.4899 41.4356 63.693 41.4758 63.8917 41.5161C64.0046 41.5384 64.1175 41.5608 64.2303 41.5787C64.7044 41.6457 65.1063 41.7531 65.4268 41.8381C65.5126 41.8604 65.5894 41.8828 65.6661 41.9007L67.2284 42.2674L65.8603 41.4087Z" fill="black"/>
<path d="M48.3427 65.1073C48.3066 65.0984 48.2705 65.0939 48.2344 65.085C48.266 65.0894 48.2976 65.0984 48.3427 65.1073Z" fill="#C5997D"/>
<path d="M48.0579 65.0447C48.0263 65.0357 47.9947 65.0268 47.9586 65.0178H47.9541C47.9541 65.0178 47.9947 65.0268 48.0579 65.0447Z" fill="#C5997D"/>
<path d="M45.859 66.4939C45.7777 65.4116 48.8976 66.722 49.9226 66.7533C50.7398 66.7801 53.196 66.5923 53.4217 66.5073C55.1375 65.8678 53.3269 68.3186 49.8729 68.4483C48.2881 68.5109 45.9086 67.1513 45.859 66.4939Z" fill="#F3DBB5"/>
<path d="M56.014 64.4053C55.1651 64.365 54.2983 65.0671 53.2778 64.9598C53.2372 64.9374 53.2146 64.9375 53.174 64.9375C52.9392 64.8972 52.7089 64.9374 52.4516 65C52.1355 65.0671 51.815 65.1924 51.517 65.2952C51.0068 65.4607 50.4334 65.5904 49.8464 65.5457V65.5502C49.8328 65.5502 49.8238 65.5457 49.8148 65.5457C49.8012 65.5457 49.7922 65.5502 49.7832 65.5502V65.5457C49.1917 65.5904 48.6183 65.4607 48.1126 65.2952C47.8146 65.1924 47.494 65.0627 47.178 65C46.9251 64.9374 46.6903 64.8972 46.4556 64.9375C46.4104 64.9375 46.3924 64.9374 46.3517 64.9598C45.3313 65.0671 44.4644 64.365 43.6156 64.4053C43.3808 64.4276 43.0422 64.365 42.8525 64.365C42.8932 64.3874 42.9383 64.4052 42.9789 64.4276C45.3945 65.5949 47.476 67.7863 49.7832 67.7147C49.7967 67.7147 49.8058 67.7147 49.8148 67.7147C49.8283 67.7147 49.8374 67.7147 49.8464 67.7147C52.1536 67.7863 54.2351 65.5949 56.6506 64.4276C56.6958 64.4052 56.7364 64.3874 56.777 64.365C56.5874 64.365 56.2488 64.4276 56.014 64.4053Z" fill="#E2C8A4"/>
<path d="M56.7229 64.338C56.7229 64.338 54.2667 63.3988 52.5238 63.9489C52.5238 63.9489 51.8737 64.1994 51.2009 64.3559C50.79 64.5124 50.2934 64.5616 49.8148 64.5393C49.4491 64.5258 49.0969 64.4767 48.8124 64.4275C48.7176 64.414 48.6228 64.3917 48.5235 64.3738C48.4828 64.3648 48.4512 64.3604 48.4151 64.3514C48.3564 64.338 48.2977 64.3246 48.239 64.3112C48.1758 64.2978 48.1397 64.2843 48.1397 64.2843H48.1442C47.5843 64.1323 47.1057 63.9489 47.1057 63.9489C45.3584 63.3988 42.9067 64.338 42.9067 64.338C42.8751 64.3514 42.8525 64.3648 42.8525 64.3648C43.0422 64.3648 43.3808 64.4275 43.6156 64.4051C44.4599 64.3648 45.3313 65.067 46.3517 64.9597C46.3924 64.9373 46.4149 64.9373 46.4556 64.9373C46.6903 64.8971 46.9206 64.9373 47.178 64.9999C47.494 65.067 47.8146 65.1922 48.1126 65.2951C48.6228 65.4606 49.1962 65.5902 49.7832 65.5455V65.55C49.7967 65.55 49.8058 65.5455 49.8148 65.5455C49.8283 65.5455 49.8374 65.55 49.8464 65.55V65.5455C50.4379 65.5902 51.0113 65.4606 51.517 65.2951C51.815 65.1922 52.1355 65.0625 52.4516 64.9999C52.7044 64.9373 52.9392 64.8971 53.174 64.9373C53.2192 64.9373 53.2372 64.9373 53.2778 64.9597C54.2983 65.067 55.1651 64.3648 56.014 64.4051C56.2488 64.4275 56.5874 64.3648 56.777 64.3648C56.7815 64.3648 56.759 64.3559 56.7229 64.338Z" fill="#CCA686"/>
<path d="M45.6924 64.9105C45.7375 64.9194 50.2933 66.3013 53.8557 64.9418L53.4448 64.6689H48.6317L45.6924 64.9105Z" fill="#CCA686"/>
<path d="M67.8618 94.2531C67.8754 96.8291 67.9747 98.7969 68.056 100H32.283C32.3643 98.7925 32.441 96.8336 32.4546 94.2531H29.5107C29.8178 91.9812 30.3144 90.0223 30.9375 88.3497C31.1588 87.746 31.3936 87.1825 31.6509 86.6458C34.2968 81.0107 38.3784 79.0653 40.4192 78.4213C40.3786 78.3452 40.3379 78.2692 40.3018 78.2021C40.7127 78.1127 40.9474 78.0858 40.9474 78.0858C41.3764 78.0858 41.7466 77.9293 42.0762 77.661C42.0762 77.661 42.0762 77.6476 42.0898 77.6476C42.2027 77.5447 42.311 77.4195 42.4239 77.2898C42.4645 77.3166 42.5503 77.4329 42.618 77.661C42.6271 77.6834 42.6406 77.7012 42.6542 77.7281C42.8619 78.2245 43.5075 79.5662 44.4557 80.9883C45.8192 83.0322 47.833 85.237 50.104 85.2728C50.1266 85.2817 50.1447 85.2817 50.1672 85.2817C52.1087 85.2817 53.847 83.703 55.17 81.9722C56.4884 80.2549 57.3959 78.3944 57.6713 77.7594C57.6848 77.7236 57.6984 77.6923 57.7119 77.6655C57.7887 77.4374 57.87 77.3211 57.9196 77.2943C58.0235 77.424 58.1364 77.5492 58.2447 77.652C58.2583 77.652 58.2583 77.6655 58.2583 77.6655C58.5834 77.9338 58.9671 78.0903 59.3825 78.0903C59.3825 78.0903 59.6263 78.1172 60.0327 78.2021C59.9921 78.2782 59.9514 78.3587 59.9017 78.4436C60.1094 78.5107 60.3397 78.5868 60.579 78.6851C62.7553 79.5349 66.268 81.6234 68.6384 86.6547C68.8868 87.1914 69.1306 87.7549 69.3518 88.3587C69.9749 90.0358 70.4761 91.9902 70.7876 94.2621H67.8618V94.2531Z" fill="#BA730F"/>
<path d="M41.4807 80.1879L34.4868 87.1154L31.6514 86.6503C34.2972 81.0152 38.3788 79.0698 40.4196 78.4258C40.6951 78.958 41.0563 79.5707 41.4807 80.1879Z" fill="#E3A558"/>
<path d="M68.6389 86.6503L65.8396 87.1154L58.8457 80.1879C59.2611 79.5752 59.6133 78.9669 59.8977 78.4392C60.1054 78.5063 60.3357 78.5823 60.575 78.6807C62.7558 79.5304 66.2685 81.6145 68.6389 86.6503Z" fill="#E3A558"/>
<path d="M38.1618 83.4707C38.1618 83.4707 41.8325 86.1227 45.6929 82.6299L46.7991 83.7614C46.7991 83.7614 41.9093 88.2426 36.7666 84.8481L38.1618 83.4707Z" fill="white"/>
<path d="M62.1901 83.4929C62.1901 83.4929 58.5193 86.1449 54.6589 82.6521L53.5527 83.7836C53.5527 83.7836 58.4426 88.2648 63.5853 84.8704L62.1901 83.4929Z" fill="white"/>
<path d="M70.4582 55.9302L69.5417 56.601C69.5417 56.601 63.7353 69.5259 58.8319 66.2343L58.8138 66.2969C58.57 65.5456 58.2133 64.9015 57.7708 64.423C56.3847 62.4015 53.5854 61.0151 50.3435 61.0151C47.3591 61.0151 44.7494 62.1914 43.2729 63.9579C42.6137 64.4096 42.0764 65.2012 41.7378 66.1806L41.7333 66.1717C36.8344 69.4633 31.4118 56.6055 31.4118 56.6055L30.4953 55.9347L30.4727 57.9874C32.2967 65.8273 39.9543 71.1314 43.0156 72.974C43.2684 73.1931 43.5393 73.3765 43.8283 73.4794C43.9637 73.5509 44.1173 73.618 44.2662 73.6851C44.2753 73.6896 44.2888 73.6985 44.2888 73.6985C45.8104 74.3693 47.9505 74.7897 50.339 74.7897C52.8855 74.7897 55.1611 74.3112 56.6963 73.5643L56.6556 73.703C56.6556 73.703 68.1826 67.8532 70.4763 57.9919L70.4582 55.9302ZM54.4116 72.0885C54.4161 72.0617 54.4252 72.0348 54.4252 72.0125C54.4252 71.2343 52.5604 70.6082 50.2532 70.6082C47.946 70.6082 46.0858 71.2388 46.0858 72.0125C46.0858 72.0259 46.0903 72.0348 46.0903 72.0438C45.2731 71.8425 44.5462 71.5831 43.9411 71.2835C43.6206 70.5008 43.4219 69.5751 43.4219 68.5733C43.4219 68.5688 43.4219 68.5688 43.4219 68.5643C43.4219 68.0321 43.6702 67.5312 44.0766 67.1824C45.3002 66.1404 46.9753 65.4024 48.8716 65.1475C49.3502 65.0849 49.8424 65.0491 50.3435 65.0491C50.8447 65.0491 51.3369 65.0849 51.8155 65.1475C53.5402 65.3801 55.0708 66.0107 56.2493 66.9051C56.7685 67.2987 57.0845 67.9159 57.0845 68.5599C57.0845 68.5643 57.0845 68.5688 57.0845 68.5688C57.0845 69.6153 56.8769 70.5813 56.5247 71.3863C55.9197 71.6681 55.2063 71.9051 54.4116 72.0885Z" fill="#452320"/>
<path d="M56.9713 11.8379L59.879 13.345C53.7114 11.4756 47.3677 12.7815 44.4465 13.6C43.3854 13.8325 42.7894 14.1277 42.7894 14.1277C43.0468 14.1232 43.3087 14.1366 43.5705 14.1411C44.46 14.1903 45.9048 14.3737 46.7537 15.0177C45.4714 14.4989 43.259 14.3155 39.5521 15.7377C39.0329 15.9345 38.5588 16.1492 38.1118 16.3683C36.5361 17.0481 33.38 18.3987 27.3208 20.9479C27.3208 20.9479 29.321 21.7171 31.7004 21.9765C30.5581 23.2958 29.3797 24.4229 27.4066 25.0221C22.2503 26.5874 20.7559 24.5794 20.7559 24.5794C20.7559 24.5794 22.9908 28.0991 26.9641 28.108C27.6052 28.108 27.6685 28.0946 27.673 28.0901C27.6685 28.1035 26.183 31.8692 25.8985 34.6778C25.605 37.549 26.5171 39.5168 26.797 44.8924C27.0409 49.4855 28.3457 47.1331 29.9034 50.5186C30.4317 51.6545 30.4497 52.9291 30.4497 52.9291C31.0277 53.0633 32.5402 50.1742 31.4521 45.1474C30.7432 41.8871 34.2424 29.5257 42.6856 31.9363C43.8731 32.2762 44.8483 32.6965 45.7062 33.108C47.7605 34.1277 64.6334 43.0454 58.4748 57.3343C58.4748 57.3343 64.9224 47.3075 63.7981 36.7126C64.6515 39.1187 65.261 42.4729 65.3423 47.1733C65.3423 47.1733 68.6112 40.5722 67.0128 34.0382C68.8324 36.2744 69.7219 39.6957 69.2885 44.3736C68.5164 52.701 69.9657 52.6429 69.9657 52.6429C70.3992 52.6429 69.9341 50.4247 71.3835 48.8951C72.8328 47.3701 75.0361 42.2225 75.0361 37.0839C76.5984 11.8468 56.9713 11.8379 56.9713 11.8379Z" fill="#452320"/>
<path d="M39.4894 65.5679C39.4894 65.5679 39.5661 65.6439 39.6745 65.7468C39.7783 65.8496 39.9454 65.9793 40.1757 66.1135C40.1757 66.1135 40.1802 66.1135 40.1847 66.118C40.4105 66.2432 40.6994 66.3684 41.0606 66.4623C42.2933 66.8425 45.35 65.9972 49.9463 65.6126C49.9463 65.6126 55.4457 67.4597 58.6062 66.6055C59.0577 66.5205 59.4686 66.3595 59.8208 66.1135C60.5522 65.6037 61.0399 64.7226 61.1166 63.3094C61.1166 63.3094 59.2338 66.5071 56.299 63.6761C56.299 63.6761 52.9263 59.3112 49.9418 61.0554C46.9664 59.3067 43.5891 63.6761 43.5891 63.6761C40.6588 66.5026 38.7715 63.3094 38.7715 63.3094C38.8257 64.3246 39.056 65.0178 39.4668 65.55L39.4894 65.5679Z" fill="#452320"/>
<path d="M46.1938 87.5669V96.4667C45.1418 96.0597 44.1395 95.5096 43.2139 94.7985V89.1277C43.4622 89.0696 43.5976 89.0562 43.5976 89.0562C43.6563 89.0562 43.706 89.0517 43.7647 89.0427C44.2523 88.9667 44.6497 88.5463 44.9702 87.8755C45.0154 87.7816 45.0605 87.6787 45.1012 87.5714H46.1938V87.5669Z" fill="#905309"/>
<path d="M51.5223 87.5669V97.2449C50.529 97.3165 49.5266 97.2762 48.5469 97.1107V87.5669H51.5223Z" fill="#905309"/>
<path d="M56.8588 89.1232V95.5454C55.9152 96.1134 54.9129 96.5428 53.8789 96.829V87.5669H54.967C54.9806 87.6071 54.9987 87.6519 55.0122 87.6877C55.2921 88.3361 55.6353 88.7878 56.0416 88.9667C56.1726 89.0293 56.308 89.0562 56.457 89.0562C56.4661 89.0517 56.606 89.074 56.8588 89.1232Z" fill="#905309"/>
</svg>
