<svg width="100" height="100" viewBox="0 0 100 100" fill="none" xmlns="http://www.w3.org/2000/svg">
<path d="M95.0004 0.196289H5.24805C2.48662 0.196289 0.248047 2.43486 0.248047 5.19629V94.9999C0.248047 97.7613 2.48662 99.9999 5.24805 99.9999H95.0004C97.7618 99.9999 100 97.7613 100 94.9999V5.19629C100 2.43487 97.7618 0.196289 95.0004 0.196289Z" fill="#8F70AB"/>
<path d="M52.2635 62.6137V99.9999H31.8564C31.5231 99.8705 31.3564 99.8035 31.3564 99.8035C31.3564 95.032 32.0636 91.3095 33.14 88.4082C35.7387 81.405 40.4904 79.1822 42.6792 78.5127C43.3954 78.294 43.8413 78.2404 43.8413 78.2404C43.9178 78.2404 43.9899 78.2315 44.0664 78.2225C44.7105 78.1199 45.2285 77.5664 45.6473 76.6826C45.9581 76.0265 46.2193 75.1918 46.431 74.2233C46.5166 73.8439 46.5796 73.4645 46.6472 73.0538C46.7463 72.362 46.8454 71.6389 46.9309 70.8801C46.9625 70.4204 47.012 69.974 47.0615 69.4964C47.2417 67.2111 47.2957 64.7071 47.2957 62.3325C47.3003 62.3325 50.0386 62.6137 52.2635 62.6137Z" fill="#E5C69F"/>
<path d="M73.2518 99.8035C73.2518 99.8035 73.0672 99.8705 72.7699 99.9999H52.2637V62.6137H52.3132C54.5201 62.6137 57.2945 62.3325 57.2945 62.3325C57.2945 64.6848 57.3441 67.1576 57.5242 69.4429C57.5738 69.8892 57.6233 70.349 57.6548 70.7908C57.7404 71.5809 57.8395 72.3218 57.9566 73.0137V73.027C57.9881 73.3395 58.0557 73.6207 58.1052 73.9153C58.3079 74.8883 58.5511 75.7453 58.8439 76.4282C59.2087 77.2807 59.6546 77.8789 60.1995 78.111C60.3707 78.1868 60.5554 78.227 60.7445 78.227C60.7445 78.227 61.5282 78.3207 62.7082 78.7805C65.1088 79.7133 69.1443 82.1593 71.4638 88.3993C72.5447 91.3095 73.2518 95.032 73.2518 99.8035Z" fill="#F2DAB5"/>
<mask id="mask0_732_8189" style="mask-type:luminance" maskUnits="userSpaceOnUse" x="46" y="69" width="12" height="8">
<path d="M57.9587 69.3982H46.6494V76.0042H57.9587V69.3982Z" fill="white"/>
</mask>
<g mask="url(#mask0_732_8189)">
<path d="M57.9542 72.9513V72.9692C57.4408 73.7547 55.7113 76.0133 52.2928 76.0133H52.2613C49.023 75.9954 47.1313 73.6744 46.6494 72.987C46.7485 72.2996 46.8476 71.581 46.9332 70.8267C46.9647 70.3848 47.0142 69.9251 47.0638 69.4519C48.6401 69.8447 50.3696 70.0902 52.1937 70.1215H52.2613C54.1529 70.0902 55.8959 69.8269 57.5263 69.4028C57.5759 69.8447 57.6254 70.3045 57.6614 70.7419C57.738 71.5275 57.8416 72.2639 57.9542 72.9513Z" fill="#C69F82"/>
</g>
<path d="M52.0288 20.0098C30.4101 20.0098 30.293 37.9173 31.2568 49.6429C29.7796 46.8621 25.3792 47.7146 25.7441 52.0978C26.0909 56.3158 32.3783 58.4672 32.2026 58.003C35.477 66.6755 44.1425 73.2146 52.0288 73.2146H52.1955V20.0098H52.0288Z" fill="#D7AE89"/>
<path d="M27.1278 50.2499C28.1907 48.5493 29.8526 49.2858 30.249 49.6607C30.6814 50.0714 31.0282 50.5936 30.7624 51.5889C30.6138 52.1603 30.0148 52.2094 30.1499 53.0619C30.3165 54.026 30.7624 54.0751 31.0282 54.3028C31.2759 54.517 31.5911 54.6777 31.7443 55.0883C31.9109 55.499 31.9289 55.923 31.8434 56.2979C31.6767 56.9853 30.6633 56.4274 29.9832 56.1328C29.5329 55.9185 28.1051 54.7268 27.7403 54.334C26.844 53.3252 26.4117 51.3613 27.1278 50.2499Z" fill="#B48E76"/>
<path d="M52.1467 20.0098C73.7655 20.0098 73.8826 37.9173 72.9322 49.6429C74.4095 46.8621 78.7918 47.7146 78.427 52.0978C78.0937 56.3158 71.7972 58.4672 71.9684 58.003C68.7796 66.6755 60.0286 73.2146 52.1422 73.2146C52.0927 73.2146 52.0251 73.2146 52.0251 73.2146L51.9756 20.0142C51.9801 20.0098 52.0972 20.0098 52.1467 20.0098Z" fill="#E1BE9D"/>
<path d="M77.0531 50.2499C75.9902 48.5493 74.3463 49.2858 73.9319 49.6607C73.4996 50.0714 73.1663 50.5936 73.4185 51.5889C73.5671 52.1603 74.1661 52.2094 74.031 53.0619C73.8644 54.026 73.4185 54.0751 73.1663 54.3028C72.9186 54.517 72.5853 54.6777 72.4366 55.0883C72.288 55.499 72.252 55.923 72.3376 56.2979C72.5042 56.9853 73.5176 56.4274 74.1977 56.1328C74.6616 55.9185 76.0758 54.7268 76.4406 54.334C77.3504 53.3252 77.7648 51.3613 77.0531 50.2499Z" fill="#B48E76"/>
<path d="M51.8616 25.0625C44.7544 25.0625 39.5434 27.1068 36.4042 31.1284C32.0039 36.7702 32.1705 45.3714 33.7829 51.5533C34.2828 53.4503 34.5486 58.5387 34.8773 60.3999C36.4222 68.7556 45.7363 73.2057 51.8616 73.2057C51.8616 73.2057 51.9787 73.2057 52.0282 73.2057V25.0625C51.9787 25.0625 51.9291 25.0625 51.9291 25.0625" fill="#E5C69F"/>
<path d="M67.3016 31.1462C64.1804 27.138 59.0325 25.0937 52.0244 25.0625V73.2102C59.0325 73.1298 67.4142 68.2557 68.842 60.4044C69.1888 58.5387 69.441 53.4548 69.9364 51.5578C71.5668 45.3937 71.7335 36.8059 67.3016 31.1462Z" fill="#F2DAB5"/>
<path d="M50.8946 64.6759C50.8586 64.6669 50.827 64.6625 50.791 64.6536C50.8225 64.6625 50.8541 64.6669 50.8946 64.6759Z" fill="#C3987D"/>
<path d="M50.6288 64.6181C50.5972 64.6091 50.5702 64.6001 50.5387 64.5911H50.5342C50.5342 64.5956 50.5702 64.6046 50.6288 64.6181Z" fill="#C3987D"/>
<path d="M45.9887 25.1831L45.8994 25.2724L45.9128 25.3036C45.944 25.259 45.9619 25.2143 45.9887 25.1831Z" fill="#473217"/>
<path d="M50.9532 63.6983C50.9172 63.6894 50.8856 63.685 50.8496 63.676C50.8811 63.685 50.9127 63.6894 50.9532 63.6983Z" fill="#C1977D"/>
<path d="M50.6821 63.6403C50.6506 63.6314 50.619 63.6225 50.5875 63.6135H50.583C50.583 63.6135 50.619 63.6225 50.6821 63.6403Z" fill="#C1977D"/>
<path d="M48.3083 57.5835C48.2227 55.874 51.4745 56.9586 52.5465 57.0122C53.3932 57.0568 55.9694 56.4721 56.1901 56.6238C57.7079 57.6371 54.5822 59.6769 52.4924 59.6769C51.9384 59.6769 48.3578 58.6146 48.3083 57.5835Z" fill="#E1BD9C"/>
<path d="M36.5176 43.8538C36.5176 43.8538 38.166 50.5579 40.999 51.1069C43.8319 51.6559 46.8946 50.5669 46.8946 50.5669C46.8946 50.5669 47.1873 42.6888 45.7371 41.6577C44.2913 40.6222 40.9494 39.1269 36.5176 43.8538Z" fill="white"/>
<path d="M46.8985 50.5448C46.8985 50.5448 46.8354 50.5626 46.6868 50.6251C46.6508 48.2059 46.4256 44.8895 45.5203 44.2512C44.1736 43.2737 41.1335 41.899 37.0755 45.6617C36.7061 44.6217 36.5215 43.8361 36.5215 43.8361C40.9623 39.1004 44.3042 40.5912 45.741 41.6267C47.1912 42.6578 46.8985 50.5448 46.8985 50.5448Z" fill="#DCBC9B"/>
<path d="M43.0433 49.823C44.5459 49.4902 45.4918 48.0132 45.1559 46.5241C44.8201 45.035 43.3298 44.0976 41.8272 44.4304C40.3246 44.7632 39.3787 46.2401 39.7145 47.7293C40.0503 49.2184 41.5406 50.1558 43.0433 49.823Z" fill="#4D2A12"/>
<path d="M42.3042 48.969C41.498 48.902 40.8809 48.0986 40.953 47.2148C41.0251 46.331 41.7682 45.6392 42.5744 45.7061C43.3806 45.7731 43.9976 46.5765 43.9256 47.4603C43.8535 48.3441 43.1104 49.0359 42.3042 48.969Z" fill="#80401C"/>
<path d="M42.377 48.6519C41.8185 48.6028 41.2375 47.9957 41.2961 47.2459C41.3591 46.4915 42.0302 45.9872 42.5932 46.0318C43.1517 46.0809 43.7327 46.6924 43.6696 47.4423C43.6066 48.1921 42.9355 48.6965 42.377 48.6519Z" fill="#241C09"/>
<path d="M41.9215 46.7997C41.899 47.072 41.6152 47.2684 41.2954 47.2416C40.9712 47.2148 40.7279 46.9738 40.7505 46.7015C40.773 46.4292 41.0522 46.2328 41.3765 46.2551C41.7008 46.2864 41.944 46.5274 41.9215 46.7997Z" fill="white"/>
<path d="M43.7286 48.3708C43.715 48.5047 43.5754 48.6074 43.4178 48.594C43.2556 48.5806 43.134 48.4601 43.143 48.3262C43.1566 48.1923 43.2962 48.0896 43.4538 48.103C43.616 48.1119 43.7421 48.2324 43.7286 48.3708Z" fill="white"/>
<path d="M50.9981 64.4884C50.9621 64.4795 50.9306 64.475 50.8945 64.4661C50.9261 64.475 50.9576 64.4795 50.9981 64.4884Z" fill="#C1977D"/>
<path d="M50.7231 64.4306C50.6916 64.4217 50.6601 64.4127 50.6285 64.4038H50.624C50.6285 64.4038 50.6646 64.4172 50.7231 64.4306Z" fill="#C1977D"/>
<path d="M50.8675 64.3009C50.8314 64.292 50.7909 64.2875 50.7549 64.2786C50.7954 64.283 50.8269 64.292 50.8675 64.3009Z" fill="#C3987D"/>
<path d="M50.5792 64.2341C50.5431 64.2251 50.5116 64.2162 50.4801 64.2073H50.4756C50.4756 64.2117 50.5161 64.2207 50.5792 64.2341Z" fill="#C3987D"/>
<path d="M50.7854 64.0199C50.7494 64.0109 50.7089 64.0065 50.6729 63.9976C50.7089 64.0065 50.7404 64.0109 50.7854 64.0199Z" fill="#C3987D"/>
<path d="M50.4932 63.9572C50.4572 63.9483 50.4257 63.9393 50.3942 63.9304H50.3896C50.3942 63.9304 50.4302 63.9393 50.4932 63.9572Z" fill="#C3987D"/>
<path d="M51.0436 63.9796C51.0076 63.9707 50.9716 63.9662 50.9355 63.9573C50.9716 63.9662 51.0031 63.9751 51.0436 63.9796Z" fill="#C3987D"/>
<path d="M50.7631 63.9216C50.7316 63.9126 50.7001 63.9037 50.6686 63.8948H50.6641C50.6641 63.8948 50.7001 63.9037 50.7631 63.9216Z" fill="#C3987D"/>
<path d="M67.702 43.6262C67.702 43.6262 66.0536 50.3304 63.2206 50.8794C60.3876 51.4284 57.325 50.3393 57.325 50.3393C57.325 50.3393 57.0322 42.4613 58.4825 41.4302C59.9328 40.3947 63.2701 38.8994 67.702 43.6262Z" fill="white"/>
<path d="M57.325 50.317C57.325 50.317 57.3881 50.3348 57.5367 50.3973C57.5727 47.9826 57.7979 44.6617 58.7032 44.0235C60.0499 43.046 63.09 41.6712 67.148 45.4339C67.5173 44.3939 67.702 43.6084 67.702 43.6084C63.2611 38.8726 59.9192 40.3634 58.4825 41.3989C57.0322 42.43 57.325 50.317 57.325 50.317Z" fill="#DCBC9B"/>
<path d="M59.002 46.9023C59.002 48.4288 60.2495 49.6652 61.7899 49.6652C63.3302 49.6652 64.5778 48.4288 64.5778 46.9023C64.5778 45.3758 63.3302 44.1394 61.7899 44.1394C60.2495 44.1439 59.002 45.3803 59.002 46.9023Z" fill="#4D2A12"/>
<path d="M61.9152 48.7412C62.7214 48.6742 63.3385 47.8708 63.2664 46.987C63.1943 46.1032 62.4512 45.4114 61.645 45.4784C60.8388 45.5453 60.2217 46.3487 60.2938 47.2325C60.3704 48.1163 61.1135 48.8081 61.9152 48.7412Z" fill="#80401C"/>
<path d="M61.8481 48.4243C62.4066 48.3752 62.9876 47.7682 62.929 47.0183C62.866 46.264 62.1949 45.7596 61.6319 45.8043C61.0734 45.8534 60.4924 46.4649 60.5555 47.2147C60.614 47.9646 61.2896 48.469 61.8481 48.4243Z" fill="#241C09"/>
<path d="M62.3022 46.5719C62.3247 46.8442 62.6085 47.0406 62.9283 47.0138C63.2525 46.987 63.4958 46.746 63.4732 46.4737C63.4507 46.2014 63.1715 46.005 62.8472 46.0274C62.5229 46.0586 62.2797 46.2996 62.3022 46.5719Z" fill="white"/>
<path d="M60.4917 48.1433C60.5052 48.2772 60.6448 48.3798 60.8025 48.3664C60.9646 48.353 61.0862 48.2325 61.0772 48.0986C61.0637 47.9647 60.9241 47.8621 60.7664 47.8754C60.6043 47.8844 60.4827 48.0049 60.4917 48.1433Z" fill="white"/>
<path d="M48.5976 43.7467C48.5751 43.7154 48.0616 42.9388 47.0122 42.1398C46.3547 41.6399 45.7106 41.2605 45.0395 40.9748C44.2243 40.6356 43.3506 40.3946 42.5038 40.283C41.7382 40.1982 40.8869 40.2205 39.8916 40.3544C39.1349 40.4972 38.3963 40.7204 37.7702 40.9927C37.3243 41.1444 36.9685 41.3587 36.6848 41.5328C36.5767 41.5997 36.4776 41.6577 36.3785 41.7113L35.0273 42.5549L36.5857 42.1934C36.6578 42.1755 36.7388 42.1532 36.8199 42.1309C37.1442 42.0461 37.545 41.9389 38.0134 41.872C38.1215 41.8541 38.2341 41.8363 38.3512 41.8095C38.5494 41.7693 38.7521 41.7292 38.9638 41.7202C39.198 41.7068 39.4457 41.689 39.6979 41.6711L40.0267 41.6488C40.8914 41.6399 41.6211 41.7024 42.2651 41.8497C42.9722 41.9702 43.7019 42.1978 44.3684 42.5013C44.999 42.8004 45.6025 43.095 46.0754 43.4387C47.0257 44.068 47.5572 44.5947 47.5617 44.5992C47.6923 44.7286 47.868 44.7956 48.0436 44.7956C48.1697 44.7956 48.3003 44.7599 48.4129 44.6885C48.7282 44.4831 48.8138 44.0636 48.6156 43.7645L48.5976 43.7467Z" fill="black"/>
<path d="M67.982 41.7069C67.892 41.6578 67.7929 41.5998 67.6848 41.5328C67.401 41.3587 67.0497 41.1445 66.6128 40.9972C65.9733 40.716 65.2347 40.4928 64.469 40.35C63.4871 40.2205 62.6359 40.1982 61.8657 40.283C61.0235 40.3991 60.1452 40.6356 59.33 40.9749C58.6725 41.2561 58.0059 41.6444 57.3573 42.1398C56.3259 42.9254 55.8125 43.6842 55.7765 43.7422L55.7675 43.7556C55.5918 44.0234 55.6323 44.376 55.8575 44.5992C55.9836 44.7287 56.1548 44.7956 56.3394 44.7956C56.5196 44.7956 56.6908 44.7242 56.8169 44.5992L56.8214 44.5948C56.8709 44.5457 57.3844 44.0457 58.3077 43.4342C58.7716 43.095 59.3751 42.8004 60.0056 42.5014C60.6767 42.1934 61.4018 41.9658 62.1225 41.8452C62.762 41.6979 63.4916 41.6355 64.3429 41.6444L64.6852 41.6667C64.9329 41.6846 65.1761 41.7024 65.4148 41.7158C65.622 41.7247 65.8247 41.7649 66.0228 41.8051C66.1354 41.8274 66.248 41.8497 66.3606 41.8676C66.8335 41.9345 67.2344 42.0416 67.5542 42.1264C67.6397 42.1488 67.7163 42.1711 67.7929 42.1889L69.3512 42.5505L67.982 41.7069Z" fill="black"/>
<path d="M51.2315 65.1669C51.1955 65.1579 51.164 65.1535 51.1279 65.1445C51.164 65.1535 51.191 65.1579 51.2315 65.1669Z" fill="#C3987D"/>
<path d="M50.9706 65.1093C50.939 65.1003 50.912 65.0913 50.8805 65.0823H50.876C50.876 65.0868 50.9075 65.0958 50.9706 65.1093Z" fill="#C3987D"/>
<path d="M51.2911 64.1896C51.2551 64.1806 51.2235 64.1762 51.1875 64.1672C51.2235 64.1762 51.2506 64.1806 51.2911 64.1896Z" fill="#C1977D"/>
<path d="M51.019 64.1313C50.9875 64.1223 50.956 64.1134 50.9244 64.1045H50.9199C50.9244 64.1045 50.9605 64.1134 51.019 64.1313Z" fill="#C1977D"/>
<path d="M51.336 64.9794C51.3 64.9704 51.2685 64.966 51.2324 64.957C51.2639 64.966 51.2955 64.9704 51.336 64.9794Z" fill="#C1977D"/>
<path d="M51.0649 64.9216C51.0334 64.9126 51.0018 64.9037 50.9703 64.8948H50.9658C50.9703 64.8948 51.0018 64.9082 51.0649 64.9216Z" fill="#C1977D"/>
<path d="M51.2103 64.7921C51.1742 64.7832 51.1337 64.7787 51.0977 64.7698C51.1337 64.7742 51.1652 64.7832 51.2103 64.7921Z" fill="#C3987D"/>
<path d="M50.9171 64.7253C50.881 64.7163 50.8495 64.7074 50.818 64.6985H50.8135C50.8135 64.7029 50.854 64.7119 50.9171 64.7253Z" fill="#C3987D"/>
<path d="M51.1233 64.5108C51.0873 64.5019 51.0468 64.4975 51.0107 64.4885C51.0513 64.4975 51.0828 64.5019 51.1233 64.5108Z" fill="#C3987D"/>
<path d="M50.836 64.4482C50.8 64.4392 50.7685 64.4303 50.7369 64.4214H50.7324C50.7324 64.4214 50.773 64.4303 50.836 64.4482Z" fill="#C3987D"/>
<path d="M51.3845 64.4708C51.3484 64.4619 51.3124 64.4574 51.2764 64.4485C51.3124 64.4574 51.3439 64.4663 51.3845 64.4708Z" fill="#C3987D"/>
<path d="M51.1053 64.4125C51.0738 64.4036 51.0422 64.3947 51.0107 64.3857H51.0062C51.0017 64.3857 51.0422 64.3947 51.1053 64.4125Z" fill="#C3987D"/>
<path d="M50.335 67.3229C50.299 67.3139 50.2675 67.3095 50.2314 67.3005C50.2675 67.305 50.2945 67.3139 50.335 67.3229Z" fill="#C5997D"/>
<path d="M50.0659 67.2602C50.0344 67.2513 50.0028 67.2423 49.9713 67.2334H49.9668C49.9713 67.2379 50.0073 67.2468 50.0659 67.2602Z" fill="#C5997D"/>
<path d="M50.2589 67.0594C50.2228 67.0505 50.1913 67.046 50.1553 67.0371C50.1868 67.046 50.2183 67.055 50.2589 67.0594Z" fill="#C5997D"/>
<path d="M49.9887 67.0014C49.9572 66.9925 49.9257 66.9835 49.8942 66.9746H49.8896C49.8942 66.9791 49.9302 66.988 49.9887 67.0014Z" fill="#C5997D"/>
<path d="M50.4985 67.0238C50.467 67.0149 50.4309 67.0104 50.3994 67.0015C50.4309 67.0104 50.4625 67.0193 50.4985 67.0238Z" fill="#C5997D"/>
<path d="M50.2362 66.9704C50.2047 66.9614 50.1776 66.9524 50.1461 66.9434H50.1416C50.1461 66.9434 50.1821 66.9524 50.2362 66.9704Z" fill="#C5997D"/>
<path d="M48.0201 67.4256C47.9391 66.3588 51.0152 67.6488 52.0241 67.68C52.8303 67.7068 55.2489 67.5238 55.4741 67.439C57.1675 66.8141 55.3795 69.2199 51.9746 69.3449C50.4117 69.4074 48.0652 68.0728 48.0201 67.4256Z" fill="#F3DBB5"/>
<path d="M58.1533 64.8677C56.2032 64.5062 52.0956 64.8901 52.0956 64.8901C48.7087 65.448 46.0559 64.8544 46.0379 64.8767C45.9568 64.8856 48.7447 68.5457 52.0506 68.3805C55.3564 68.5501 58.2344 64.8811 58.1533 64.8677Z" fill="#413935"/>
<path d="M54.056 64.0956C53.1777 63.9974 52.5517 64.6268 52.1013 64.5821C51.6419 64.6223 51.0474 64.2206 50.1646 64.2117C48.9216 64.1983 48.3135 64.0912 46.0391 64.8812C46.1201 65.033 47.5749 65.8721 50.3043 65.9167C50.3448 65.9167 51.0744 66.3274 52.1148 66.3229C52.7679 66.3184 53.6597 65.8899 53.6957 65.8899C56.4296 65.8498 58.096 65.0419 58.1726 64.8946C55.1685 63.9617 55.4072 64.0822 54.056 64.0956Z" fill="#25211A"/>
<path d="M69.7382 24.5538C69.558 24.3842 69.3734 24.2191 69.1887 24.0539C69.4319 22.5854 68.5897 20.6617 64.0498 19.0102C64.0498 19.0102 65.482 20.3001 66.5855 22.0766C64.1894 20.4831 61.7258 19.3449 60.0188 18.6486C65.5181 16.0241 70.2111 20.6617 70.2111 20.6617C67.6619 13.2478 58.6766 16.6044 56.2535 17.6711C56.1725 17.6399 56.0824 17.6086 56.0013 17.5774C62.5455 10.6143 51.7451 9.48955 51.7451 9.48955C59.5999 11.5919 54.4159 15.7875 53.2269 16.6534C53.1503 16.6311 53.0738 16.6088 52.9927 16.5865C53.0242 9.18157 43.5345 7.98535 43.5345 7.98535C51.5019 10.7081 47.7772 15.3456 47.0836 16.1178C46.9395 16.1401 46.8043 16.158 46.6737 16.1803C42.5527 15.6001 43.9083 10.9134 43.9083 10.9134C40.035 13.5469 40.9358 16.8365 41.5618 18.2246C41.5528 18.2291 41.5438 18.2291 41.5348 18.2335C41.3096 18.3139 41.0889 18.3987 40.8817 18.4835C39.5711 18.3183 38.1749 18.0237 36.7381 17.5461C36.7381 17.5461 37.6479 18.421 39.1792 19.2869C37.9902 19.9386 37.0714 20.6572 36.2922 21.3847C34.4366 21.4428 32.3468 21.2821 30.0949 20.7152C30.0949 20.7152 31.9415 22.2194 34.6934 23.0586C34.2745 23.5317 33.8782 23.987 33.4683 24.4155C31.6667 24.8216 29.5724 25.0671 27.2124 24.9377C27.2124 24.9377 28.8968 25.7857 31.2479 26.2053C30.7615 26.4776 30.2165 26.7052 29.5904 26.8838C24.5236 28.3433 23.0508 26.4687 23.0508 26.4687C23.0508 26.4687 25.2532 29.7538 29.1581 29.7627C29.7886 29.7627 29.8517 29.7538 29.8517 29.7538C29.8517 29.7627 28.9013 32.0391 28.3879 34.2932C27.2259 34.677 25.9468 34.9984 24.5191 35.1992C24.5191 35.1992 26.0594 35.6144 28.1402 35.6501C28.1312 35.7304 28.1177 35.8107 28.1087 35.8911C27.8249 38.5692 28.7212 40.4037 28.9914 45.4117C29.2301 49.6922 30.5137 47.5006 32.0451 50.6563C32.563 51.7142 32.5855 52.9059 32.5855 52.9059C33.1485 53.0309 34.6393 50.3349 33.5719 45.6527C33.2611 44.3092 33.7656 41.3098 35.1392 38.5736C35.1392 38.5736 35.3735 38.0336 35.8328 37.2748H35.8374C36.3328 36.4624 37.0894 35.4001 38.1073 34.4851C46.1648 25.6027 49.0293 33.9272 49.0293 33.9272V33.9584C49.0293 33.9584 51.1011 38.3817 56.4292 39.0691L70.7831 40.917C70.9227 42.1266 70.9272 43.4656 70.7786 44.9386C70.0219 52.6961 71.4497 52.6426 71.4497 52.6426C71.8731 52.6426 71.4182 50.576 72.8414 49.1521C74.2646 47.7283 76.4355 42.93 76.4355 38.1407C76.44 33.3424 74.5844 29.0843 69.7382 24.5538ZM59.1856 19.1039C59.2081 19.0905 59.2351 19.0727 59.2576 19.0548L59.7486 19.461C59.5864 19.3494 59.3927 19.2289 59.1856 19.1039Z" fill="#CE220F"/>
<path d="M71.4676 88.4084C69.1481 82.1684 65.1126 79.7224 62.712 78.7896C62.649 82.0479 58.1901 84.6814 52.7044 84.6814C52.5557 84.6814 52.4116 84.6814 52.263 84.6724C52.236 84.6724 52.2089 84.668 52.1819 84.668V86.5248H45.7143C42.7147 86.5248 40.0124 84.726 38.8819 81.972L38.409 80.816C36.5174 82.3202 34.5266 84.6858 33.1484 88.4084H37.1704C36.4993 91.4302 36.085 95.1572 36.085 99.7679C36.085 99.7679 36.2156 99.8304 36.4678 100H68.1933C68.45 99.826 68.5761 99.7679 68.5761 99.7679C68.5761 95.1482 68.1618 91.4212 67.4862 88.4084H71.4676Z" fill="#DCDC00"/>
<path d="M52.1817 84.6634V86.5203H45.5655C42.6515 86.5203 40.0302 84.7706 38.9313 82.0969L38.4043 80.8115C40.0707 79.4813 41.6606 78.8163 42.683 78.5083C42.674 78.5708 42.674 78.6467 42.674 78.7136C42.674 81.905 46.8851 84.5072 52.1817 84.6634Z" fill="#393B36"/>
<path d="M52.1826 84.6679V86.5247H59.0691C61.9831 86.5247 64.6044 84.775 65.7033 82.1013L66.2303 80.8159C64.5638 79.4857 62.974 78.8207 61.9516 78.5127C61.9606 78.5752 61.9606 78.6511 61.9606 78.718C61.9561 81.905 57.4792 84.5116 52.1826 84.6679Z" fill="#393B36"/>
<path d="M56.4304 88.2344H46.9316V90.0778H56.4304V88.2344Z" fill="#393B36"/>
<path d="M56.4304 91.6133H46.9316V93.4567H56.4304V91.6133Z" fill="#393B36"/>
<path d="M56.4304 94.9875H46.9316V96.831H56.4304V94.9875Z" fill="#393B36"/>
</svg>
