<svg width="100" height="100" viewBox="0 0 100 100" fill="none" xmlns="http://www.w3.org/2000/svg">
<path d="M95 0H5C2.23858 0 0 2.23858 0 5V95C0 97.7614 2.23858 100 5 100H95C97.7614 100 100 97.7614 100 95V5C100 2.23858 97.7614 0 95 0Z" fill="#802A3C"/>
<path d="M24.4159 45.4338C24.8726 40.0492 26.086 35.7513 26.086 35.7513C26.086 35.7513 26.1218 35.7916 26.189 35.8676C27.6442 30.6037 30.0665 27.7549 30.0665 27.7549V27.7594C31.2441 25.9794 32.9141 24.1055 34.9604 22.263C39.1468 18.4884 41.7795 19.2665 45.2496 19.3739C45.2496 19.3739 45.2631 19.3962 45.2765 19.4365C46.7988 19.11 54.9881 17.4732 59.8551 19.28C65.2371 21.2835 69.6429 24.7138 72.7593 33.9356C73.2383 35.3533 73.5786 36.7308 73.8159 38.0635C74.5189 39.6064 74.8413 41.1181 74.9711 42.3569L75.0517 42.3435C75.0517 42.3435 77.7651 56.847 85.4036 59.7451C85.4036 59.7451 79.6009 61.1807 75.007 53.7388C74.8995 55.2147 74.7114 56.7039 74.4114 58.1619C74.6666 60.076 74.9711 61.6547 74.9711 62.6744C74.9711 69.8882 69.5758 75.8631 70.4086 83.1261C70.9593 87.9159 73.1667 91.6234 73.1667 91.6234C73.1667 91.6234 70.6414 88.3452 69.6026 85.2728C68.5683 82.2003 68.9176 76.6681 70.6369 72.263C71.519 70.0045 71.7698 67.5313 71.6623 65.1342C71.5145 65.3488 71.3668 65.5635 71.2056 65.7692C71.2056 65.7692 71.3936 65.161 71.6041 64.2039C71.5056 63.0143 71.3309 61.8515 71.107 60.7558C71.0712 60.5635 71.031 60.3712 70.9862 60.1878C70.9369 59.9687 70.8832 59.763 70.8294 59.5528C70.3503 60.5456 69.822 61.4758 69.2623 62.3524C69.2265 62.4687 69.1952 62.5939 69.1549 62.7057C68.8011 63.864 68.3041 64.9374 67.8788 65.957C67.4624 66.9812 67.0326 67.9383 66.7102 68.8685C66.4102 69.7943 66.146 70.6753 66.0072 71.5071C65.9222 71.9231 65.8818 72.33 65.8505 72.7102C65.8012 73.0993 65.7878 73.466 65.7878 73.8148C65.752 74.508 65.8237 75.1207 65.8416 75.6306C65.9625 76.6458 66.0341 77.2317 66.0341 77.2317C66.0341 77.2317 65.9714 77.0975 65.8505 76.8426C65.743 76.5787 65.5415 76.2164 65.3624 75.7155C65.2102 75.2147 64.9639 74.6109 64.8475 73.8819C64.6863 73.1574 64.5789 72.3256 64.5968 71.4087C64.5744 70.1878 64.8072 68.8372 65.1744 67.4553C63.1953 69.4812 61.6148 70.5948 61.6148 70.5948C61.6148 70.5948 63.9296 67.8712 64.9639 65.1565C65.7654 63.0456 66.9654 59.4275 66.9654 54.0966C66.9654 53.8506 66.952 53.6002 66.9296 53.3497C66.8579 53.059 66.7997 52.7683 66.7147 52.4821C66.1729 50.5501 65.4923 48.7522 64.9057 47.1601C63.4416 44.3202 61.7357 42.1646 61.7357 42.1646C61.7357 42.1646 64.149 46.3059 64.6237 50.8587C65.1027 55.4114 62.573 58.9311 62.573 58.9311C62.573 58.9311 63.0789 53.5241 61.3103 49.2218C60.4193 47.0617 58.9596 45.1744 56.5687 44.3962C56.5732 44.4007 56.5732 44.4007 56.5732 44.4052C57.8582 47.8935 55.2792 50.8229 55.2792 50.8229C55.2792 50.8229 55.2702 49.9463 55.015 48.6002C54.3523 45.1073 52.042 38.4347 43.9512 35.4651L43.7004 35.8274L38.0051 44.0876C37.7275 44.4633 37.2707 45.0984 36.7424 45.9168C35.1977 48.305 33.0664 52.2227 33.0664 55.6306C33.0664 60.9615 34.2663 64.5796 35.0678 66.6905C36.1021 69.4096 38.417 72.1333 38.417 72.1333C38.417 72.1333 37.1543 71.2433 35.4753 69.6064C35.5648 70.2281 35.6141 70.8363 35.6051 71.4087C35.6275 72.3256 35.5156 73.1574 35.3544 73.8819C35.238 74.6109 34.9917 75.2147 34.8395 75.7155C34.6604 76.2164 34.4589 76.5832 34.3514 76.8426C34.2305 77.0975 34.1678 77.2317 34.1678 77.2317C34.1678 77.2317 34.2395 76.6458 34.3604 75.6306C34.3828 75.1207 34.4499 74.508 34.4141 73.8148C34.4186 73.466 34.4052 73.0993 34.3514 72.7102C34.3201 72.3256 34.2798 71.9231 34.1947 71.5071C34.0604 70.6753 33.7918 69.7943 33.4918 68.8685C33.1963 68.0232 32.8156 67.1556 32.4395 66.2388C31.2351 64.7003 30.0441 62.8891 29.0859 60.8408C28.374 64.3962 28.1412 68.6181 29.5695 72.2719C31.2933 76.6771 31.6381 82.2093 30.6038 85.2817C29.5695 88.3542 27.0397 91.6324 27.0397 91.6324C27.0397 91.6324 29.2471 87.9204 29.7979 83.135C30.6307 75.8721 25.2353 69.8971 25.2353 62.6834C25.2353 61.7665 25.486 60.3891 25.7188 58.7299C25.2174 57.4374 24.8592 56.0554 24.6219 54.6288C20.1354 61.0689 14.8027 59.754 14.8027 59.754C20.225 57.6968 23.1578 49.8613 24.4159 45.4338Z" fill="#746568"/>
<path d="M51.0168 62.4194V99.9955H30.7294C30.3981 99.8658 30.2324 99.7942 30.2324 99.7942C30.2324 98.296 30.2996 96.9051 30.4249 95.6082C30.707 92.7459 31.2712 90.3488 32.0055 88.3452C33.7651 83.5554 36.5143 80.9883 38.7754 79.6198C39.8411 78.9803 40.7903 78.6046 41.4888 78.3899C42.2052 78.1708 42.644 78.1171 42.644 78.1171C42.7201 78.1171 42.7962 78.1082 42.8634 78.1037C43.5037 78.0008 44.023 77.4463 44.4395 76.5608C44.7484 75.9033 45.0081 75.0581 45.223 74.0831C45.3036 73.7074 45.3663 73.3228 45.4379 72.9114C45.532 72.2182 45.6394 71.4892 45.72 70.7289C45.7558 70.2683 45.8006 69.821 45.8499 69.3425C46.029 67.0438 46.0827 64.5214 46.0827 62.1421C46.0827 62.1377 48.805 62.4194 51.0168 62.4194Z" fill="#E5C69F"/>
<path d="M71.8817 99.7989C71.8817 99.7989 71.6981 99.866 71.4026 100H51.0166V62.4241H51.0659C53.2599 62.4241 56.0224 62.1423 56.0224 62.1423C56.0224 64.5126 56.0717 66.9903 56.2508 69.289C56.3001 69.7407 56.3448 70.2014 56.3807 70.6486C56.4613 71.4447 56.5642 72.1871 56.6851 72.8803V72.9026C56.712 73.2201 56.7792 73.5019 56.8284 73.7971C57.0299 74.772 57.2761 75.6352 57.5627 76.3239C57.9253 77.1826 58.3731 77.7774 58.9104 78.0189C59.0805 78.0949 59.2597 78.1307 59.4522 78.1307C59.4522 78.1307 60.2358 78.2246 61.4044 78.6853C62.2685 79.0207 63.3476 79.5618 64.4849 80.416C66.4774 81.9143 68.6355 84.3561 70.1086 88.3588C70.8429 90.3624 71.416 92.7595 71.6891 95.6218C71.8145 96.9098 71.8817 98.3007 71.8817 99.7989Z" fill="#F2DAB5"/>
<mask id="mask0_732_8195" style="mask-type:luminance" maskUnits="userSpaceOnUse" x="45" y="69" width="12" height="7">
<path d="M56.6746 69.2397H45.4316V75.8811H56.6746V69.2397Z" fill="white"/>
</mask>
<g mask="url(#mask0_732_8195)">
<path d="M56.675 72.8085V72.8264C56.1646 73.6136 54.4452 75.8855 51.0468 75.8855H51.0154C47.7961 75.8676 45.9156 73.5331 45.4365 72.8443C45.535 72.1556 45.6335 71.4311 45.7186 70.6753C45.7499 70.2325 45.7992 69.7719 45.853 69.2933C47.4201 69.6869 49.1394 69.9329 50.9528 69.9686H51.0199C52.9005 69.9373 54.6333 69.6735 56.2541 69.2441C56.3034 69.6869 56.3526 70.1475 56.3884 70.5903C56.4601 71.3774 56.5586 72.1153 56.675 72.8085Z" fill="#C69F82"/>
</g>
<path d="M50.7837 19.5974C29.2918 19.5974 29.1754 37.5983 30.1336 49.3827C28.665 46.5876 24.2904 47.4418 24.6531 51.847C24.9979 56.0867 31.2485 58.2513 31.0739 57.7817C34.329 66.4981 42.9437 73.0679 50.7837 73.0679H50.9494V19.5974H50.7837Z" fill="#D7AE89"/>
<path d="M26.0231 49.991C27.0798 48.2826 28.732 49.0205 29.126 49.4006C29.5559 49.8121 29.9006 50.3353 29.6364 51.3416C29.4886 51.9185 28.8931 51.9677 29.0275 52.8219C29.1931 53.7924 29.6364 53.8416 29.9006 54.0697C30.1469 54.2843 30.4603 54.4498 30.6125 54.8568C30.7782 55.2682 30.7961 55.6931 30.711 56.0733C30.5453 56.762 29.5379 56.2029 28.8618 55.9078C28.4141 55.6931 26.9947 54.4945 26.632 54.101C25.741 53.0813 25.3157 51.109 26.0231 49.991Z" fill="#B48E76"/>
<path d="M50.9006 19.5975C72.3925 19.5975 72.5089 37.5984 71.5641 49.3828C73.0328 46.5876 77.3894 47.4419 77.0267 51.847C76.6954 56.0868 70.4358 58.2513 70.606 57.7817C67.4359 66.4982 58.7362 73.068 50.8961 73.068C50.8469 73.068 50.7797 73.068 50.7797 73.068L50.7305 19.593C50.7349 19.5975 50.8513 19.5975 50.9006 19.5975Z" fill="#E1BE9D"/>
<path d="M75.6561 49.991C74.5994 48.2826 72.9651 49.0205 72.5532 49.4006C72.1234 49.8121 71.792 50.3353 72.0428 51.3416C72.1905 51.9185 72.786 51.9677 72.6517 52.8219C72.486 53.7924 72.0427 53.8416 71.792 54.0697C71.5457 54.2843 71.2144 54.4498 71.0666 54.8568C70.9189 55.2682 70.8831 55.6931 70.9682 56.0733C71.1338 56.762 72.1413 56.2029 72.8174 55.9078C73.2785 55.6931 74.6845 54.4945 75.0471 54.101C75.9561 53.0813 76.368 51.109 75.6561 49.991Z" fill="#B48E76"/>
<path d="M50.6146 24.678C43.5492 24.678 38.3687 26.7307 35.2479 30.7781C30.8734 36.449 31.0391 45.0939 32.642 51.3104C33.139 53.2155 33.4032 58.3273 33.73 60.2012C35.2658 68.6002 44.5253 73.0724 50.6146 73.0724C50.6146 73.0724 50.7311 73.0724 50.7803 73.0724V24.678C50.7311 24.678 50.6818 24.678 50.6818 24.678" fill="#E5C69F"/>
<path d="M65.962 30.7916C62.8591 26.7621 57.7414 24.7093 50.7744 24.678V73.0724C57.7414 72.9919 66.0739 68.0903 67.4933 60.2012C67.8381 58.3273 68.0888 53.2155 68.5814 51.3104C70.2067 45.1073 70.3723 36.4803 65.962 30.7916Z" fill="#F2DAB5"/>
<path d="M49.6508 64.4902C49.615 64.4812 49.5837 64.4767 49.5479 64.4678C49.5837 64.4767 49.6105 64.4857 49.6508 64.4902Z" fill="#C3987D"/>
<path d="M49.3919 64.4321C49.3605 64.4232 49.3337 64.4142 49.3023 64.4053H49.2979C49.2979 64.4098 49.3292 64.4187 49.3919 64.4321Z" fill="#C3987D"/>
<path d="M46.7505 58.2157C46.6699 56.543 49.8176 57.603 50.8519 57.6566C51.6713 57.6969 54.1652 57.1289 54.3801 57.2765C55.8487 58.2693 52.8264 60.264 50.7981 60.264C50.2608 60.264 46.7998 59.2219 46.7505 58.2157Z" fill="#E1BE9D"/>
<path d="M45.1911 24.8523L45.1016 24.9418L45.115 24.9732C45.1464 24.9284 45.1597 24.8836 45.1911 24.8523Z" fill="#473217"/>
<path d="M49.7084 63.5107C49.6726 63.5017 49.6413 63.4972 49.6055 63.4883C49.6413 63.4972 49.6681 63.5017 49.7084 63.5107Z" fill="#C1977D"/>
<path d="M49.4403 63.448C49.409 63.4391 49.3776 63.4301 49.3463 63.4211H49.3418C49.3463 63.4256 49.3821 63.4346 49.4403 63.448Z" fill="#C1977D"/>
<path d="M35.3633 43.5644C35.3633 43.5644 37.002 50.3041 39.8184 50.8542C42.6347 51.4042 45.6794 50.3085 45.6794 50.3085C45.6794 50.3085 45.9704 42.3882 44.5287 41.3551C43.0869 40.3175 39.7691 38.8148 35.3633 43.5644Z" fill="white"/>
<path d="M45.6794 50.2904C45.6794 50.2904 45.6167 50.3083 45.469 50.3709C45.4332 47.9425 45.2092 44.6062 44.3093 43.9667C42.9705 42.9828 39.9482 41.6053 35.914 45.3844C35.5468 44.3423 35.3633 43.5507 35.3633 43.5507C39.7781 38.7922 43.1004 40.2904 44.5287 41.3325C45.9704 42.3611 45.6794 50.2904 45.6794 50.2904Z" fill="#DCBC9B"/>
<path d="M41.2422 49.6376C42.7729 49.6376 44.0138 48.3941 44.0138 46.8603C44.0138 45.3264 42.7729 44.083 41.2422 44.083C39.7115 44.083 38.4707 45.3264 38.4707 46.8603C38.4707 48.3941 39.7115 49.6376 41.2422 49.6376Z" fill="#4D2A12"/>
<path d="M41.1175 48.7076C40.316 48.6405 39.7026 47.831 39.7742 46.941C39.8459 46.051 40.5847 45.3578 41.3861 45.4249C42.1876 45.492 42.801 46.297 42.7294 47.187C42.6533 48.077 41.9145 48.7746 41.1175 48.7076Z" fill="#80401C"/>
<path d="M41.1841 48.3854C40.6289 48.3362 40.0513 47.728 40.1095 46.9722C40.1722 46.2164 40.8394 45.7065 41.399 45.7513C41.9543 45.8005 42.5319 46.4132 42.4692 47.169C42.411 47.9248 41.7393 48.4302 41.1841 48.3854Z" fill="#241C09"/>
<path d="M40.732 46.525C40.7096 46.7978 40.4275 46.9946 40.1096 46.9722C39.7872 46.9454 39.5455 46.6994 39.5678 46.4311C39.5902 46.1583 39.8678 45.957 40.1902 45.9838C40.5126 46.0107 40.7544 46.2522 40.732 46.525Z" fill="white"/>
<path d="M42.5318 48.1041C42.5183 48.2385 42.3795 48.3415 42.2228 48.328C42.0616 48.3146 41.9407 48.1937 41.9541 48.0549C41.9676 47.9206 42.1064 47.8176 42.2631 47.831C42.4198 47.8444 42.5407 47.9653 42.5318 48.1041Z" fill="white"/>
<path d="M49.7534 64.3068C49.7175 64.2979 49.6862 64.2934 49.6504 64.2844C49.6817 64.2889 49.7131 64.2979 49.7534 64.3068Z" fill="#C1977D"/>
<path d="M49.4862 64.2441C49.4548 64.2352 49.4235 64.2262 49.3921 64.2173H49.3877C49.3922 64.2218 49.428 64.2307 49.4862 64.2441Z" fill="#C1977D"/>
<path d="M49.6276 64.1144C49.5917 64.1055 49.5514 64.101 49.5156 64.092C49.5514 64.101 49.5828 64.1055 49.6276 64.1144Z" fill="#C3987D"/>
<path d="M49.3422 64.0518C49.3064 64.0428 49.2751 64.0339 49.2437 64.0249H49.2393C49.2393 64.0249 49.2751 64.0339 49.3422 64.0518Z" fill="#C3987D"/>
<path d="M49.5446 63.8327C49.5087 63.8237 49.4684 63.8193 49.4326 63.8103C49.4729 63.8193 49.5043 63.8237 49.5446 63.8327Z" fill="#C3987D"/>
<path d="M49.2573 63.77C49.2215 63.7611 49.1901 63.7521 49.1588 63.7432H49.1543C49.1543 63.7432 49.1946 63.7521 49.2573 63.77Z" fill="#C3987D"/>
<path d="M49.8028 63.7926C49.7669 63.7837 49.7311 63.7792 49.6953 63.7703C49.7311 63.7792 49.7625 63.7837 49.8028 63.7926Z" fill="#C3987D"/>
<path d="M49.5256 63.7297C49.4942 63.7208 49.4629 63.7118 49.4316 63.7029H49.4271C49.4226 63.7074 49.4629 63.7163 49.5256 63.7297Z" fill="#C3987D"/>
<path d="M66.3656 43.3363C66.3656 43.3363 64.7269 50.076 61.9105 50.6261C59.0942 51.1762 56.0495 50.0805 56.0495 50.0805C56.0495 50.0805 55.7585 42.1601 57.2002 41.127C58.6375 40.0895 61.9597 38.5868 66.3656 43.3363Z" fill="white"/>
<path d="M56.0446 50.0625C56.0446 50.0625 56.1073 50.0804 56.255 50.143C56.2908 47.7146 56.5147 44.3782 57.4147 43.7387C58.7534 42.7548 61.7757 41.3773 65.8099 45.1519C66.1771 44.1099 66.3607 43.3183 66.3607 43.3183C61.9459 38.5598 58.6236 40.058 57.1953 41.1001C55.7535 42.1332 56.0446 50.0625 56.0446 50.0625Z" fill="#DCBC9B"/>
<path d="M57.7109 46.6279C57.7109 48.1619 58.9512 49.4052 60.4825 49.4052C62.0138 49.4052 63.2541 48.1619 63.2541 46.6279C63.2541 45.0939 62.0138 43.8506 60.4825 43.8506C58.9512 43.8506 57.7109 45.0939 57.7109 46.6279Z" fill="#4D2A12"/>
<path d="M60.6127 48.4795C61.4142 48.4124 62.0276 47.6029 61.9559 46.713C61.8843 45.823 61.1455 45.1298 60.3441 45.1969C59.5426 45.264 58.9292 46.069 59.0008 46.9589C59.0724 47.8489 59.8112 48.5466 60.6127 48.4795Z" fill="#80401C"/>
<path d="M60.5407 48.1574C61.0959 48.1082 61.6735 47.5 61.6153 46.7442C61.5526 45.9884 60.8855 45.4785 60.3258 45.5232C59.7706 45.5724 59.193 46.1851 59.2557 46.9409C59.3183 47.6923 59.9855 48.2021 60.5407 48.1574Z" fill="#241C09"/>
<path d="M60.9926 46.297C61.015 46.5698 61.2971 46.7665 61.615 46.7442C61.9374 46.7174 62.1792 46.4714 62.1568 46.203C62.1344 45.9302 61.8568 45.729 61.5344 45.7558C61.212 45.7782 60.9703 46.0242 60.9926 46.297Z" fill="white"/>
<path d="M59.1973 47.8715C59.2107 48.0058 59.3495 48.1088 59.5063 48.0953C59.6674 48.0819 59.7883 47.961 59.7794 47.8222C59.7659 47.6879 59.6271 47.5849 59.4704 47.5983C59.3092 47.6163 59.1838 47.7371 59.1973 47.8715Z" fill="white"/>
<path d="M47.3676 43.4569C47.3452 43.4256 46.8348 42.6474 45.7915 41.8424C45.1378 41.3415 44.4975 40.9569 43.8304 40.6707C43.02 40.3308 42.1513 40.0893 41.3096 39.973C40.5484 39.8881 39.7021 39.9104 38.7126 40.0446C37.9604 40.1877 37.2261 40.4113 36.6037 40.6886C36.1605 40.8406 35.8067 41.0553 35.5246 41.2297C35.4172 41.2968 35.3187 41.355 35.2202 41.4086L33.877 42.2539L35.4261 41.8872C35.4978 41.8693 35.5784 41.8469 35.659 41.8245C35.9814 41.7396 36.3799 41.6322 36.8455 41.5652C36.953 41.5473 37.0649 41.5249 37.1813 41.5025C37.3783 41.4623 37.5798 41.4221 37.7903 41.4131C38.0231 41.3952 38.2694 41.3818 38.5201 41.3639L38.8469 41.3415C39.7066 41.3326 40.432 41.3952 41.0722 41.5428C41.7752 41.6635 42.5006 41.8916 43.1632 42.2002C43.7901 42.4999 44.39 42.7995 44.8602 43.1439C45.8049 43.7789 46.3333 44.3067 46.3378 44.3111C46.4676 44.4408 46.6422 44.5079 46.8168 44.5079C46.9422 44.5079 47.0721 44.4721 47.184 44.3961C47.4974 44.1904 47.5825 43.77 47.3855 43.4659L47.3676 43.4569Z" fill="black"/>
<path d="M66.6431 41.4087C66.5536 41.3595 66.4551 41.3014 66.3476 41.2343C66.0655 41.0599 65.7163 40.8452 65.282 40.6976C64.6462 40.4159 63.9119 40.1923 63.1507 40.0492C62.1746 39.9195 61.3284 39.8926 60.5627 39.9821C59.7254 40.0984 58.8523 40.3399 58.0419 40.6798C57.3882 40.9615 56.7255 41.3551 56.0808 41.8515C55.0554 42.6386 54.545 43.4034 54.5092 43.4615L54.5002 43.4749C54.3256 43.7433 54.3659 44.101 54.5898 44.3247C54.7152 44.4543 54.8853 44.5259 55.0644 44.5259C55.2435 44.5259 55.4136 44.4543 55.539 44.3247L55.5435 44.3202C55.5927 44.271 56.1031 43.7701 57.021 43.1574C57.4822 42.8175 58.0822 42.5179 58.709 42.2182C59.3762 41.9096 60.097 41.6815 60.8134 41.5563C61.4492 41.4087 62.1746 41.3461 63.0209 41.3551L63.3611 41.3774C63.6074 41.3953 63.8492 41.4132 64.0865 41.4266C64.2925 41.4356 64.4939 41.4758 64.6909 41.5161C64.8029 41.5384 64.9148 41.5608 65.0268 41.5787C65.4969 41.6458 65.8954 41.7531 66.2133 41.8381C66.2984 41.8604 66.3745 41.8828 66.4506 41.9007L67.9998 42.2674L66.6431 41.4087Z" fill="black"/>
<path d="M49.2657 65.1027C49.2298 65.0937 49.194 65.0893 49.1582 65.0803C49.194 65.0893 49.2254 65.0937 49.2657 65.1027Z" fill="#C5997D"/>
<path d="M48.9878 65.0403C48.9565 65.0313 48.9251 65.0224 48.8892 65.0134H48.8848C48.8848 65.0134 48.9206 65.0224 48.9878 65.0403Z" fill="#C5997D"/>
<path d="M46.8072 66.4939C46.7266 65.4116 49.8206 66.722 50.8369 66.7533C51.6474 66.7801 54.0831 66.5923 54.307 66.5073C56.0084 65.8678 54.2129 68.3186 50.7876 68.4483C49.216 68.5064 46.852 67.1513 46.8072 66.4939Z" fill="#F3DBB5"/>
<path d="M56.8771 64.405C56.0353 64.3647 55.1756 65.0669 54.1637 64.9596C54.1234 64.9372 54.101 64.9372 54.0607 64.9372C53.8279 64.8969 53.5995 64.9372 53.3443 64.9998C53.0309 65.0669 52.713 65.1921 52.4175 65.295C51.9115 65.4605 51.3429 65.5902 50.7608 65.5454V65.5499C50.7474 65.5499 50.7384 65.5454 50.7295 65.5454C50.7161 65.5454 50.7071 65.5499 50.6981 65.5499V65.5454C50.1116 65.5902 49.5429 65.4605 49.0415 65.295C48.746 65.1921 48.428 65.0624 48.1146 64.9998C47.8639 64.9372 47.631 64.8969 47.3982 64.9372C47.3534 64.9372 47.3355 64.9372 47.2952 64.9596C46.2833 65.0669 45.4236 64.3647 44.5819 64.405C44.349 64.4274 44.0132 64.3647 43.8252 64.3647C43.8655 64.3871 43.9103 64.405 43.9506 64.4274C46.346 65.5946 48.4101 67.786 50.6981 67.7145C50.7115 67.7145 50.7205 67.7145 50.7295 67.7145C50.7429 67.7145 50.7519 67.7145 50.7608 67.7145C53.0488 67.786 55.1129 65.5946 57.5083 64.4274C57.5531 64.405 57.5934 64.3871 57.6337 64.3647C57.4457 64.3647 57.1099 64.4229 56.8771 64.405Z" fill="#E2C8A4"/>
<path d="M57.58 64.338C57.58 64.338 55.1443 63.3988 53.416 63.9489C53.416 63.9489 52.7712 64.1994 52.104 64.3559C51.6966 64.5124 51.2041 64.5616 50.7295 64.5393C50.3668 64.5258 50.0175 64.4767 49.7354 64.4275C49.6414 64.414 49.5474 64.3917 49.4489 64.3738C49.4086 64.3648 49.3772 64.3604 49.3414 64.3514C49.2832 64.338 49.225 64.3246 49.1668 64.3112C49.1041 64.2978 49.0683 64.2843 49.0683 64.2843H49.0728C48.5176 64.1323 48.043 63.9489 48.043 63.9489C46.3102 63.3988 43.8789 64.338 43.8789 64.338C43.8476 64.3514 43.8252 64.3648 43.8252 64.3648C44.0132 64.3648 44.349 64.4274 44.5819 64.4051C45.4236 64.3648 46.2833 65.067 47.2952 64.9597C47.3355 64.9373 47.3579 64.9373 47.3982 64.9373C47.631 64.897 47.8594 64.9373 48.1146 64.9999C48.428 65.067 48.746 65.1922 49.0415 65.2951C49.5474 65.4606 50.116 65.5902 50.6981 65.5455V65.55C50.7115 65.55 50.7205 65.5455 50.7295 65.5455C50.7429 65.5455 50.7519 65.55 50.7608 65.55V65.5455C51.3474 65.5902 51.916 65.4606 52.4175 65.2951C52.713 65.1922 53.0309 65.0625 53.3443 64.9999C53.5951 64.9373 53.8279 64.897 54.0607 64.9373C54.1055 64.9373 54.1234 64.9373 54.1637 64.9597C55.1756 65.067 56.0353 64.3648 56.8771 64.4051C57.1099 64.4274 57.4457 64.3648 57.6337 64.3648C57.6337 64.3648 57.6158 64.3514 57.58 64.338Z" fill="#CCA686"/>
<path d="M46.6416 64.9104C46.6864 64.9194 51.2041 66.3013 54.7369 64.9417L54.3294 64.6689H49.5564L46.6416 64.9104Z" fill="#CCA686"/>
<path d="M68.8184 22.3747C63.8619 17.4373 56.5815 15.0357 56.5815 15.0357L58.6009 16.8202C57.3919 15.9481 55.2383 14.7361 51.6428 13.6717C46.5251 12.1556 43.2118 13.8461 43.2118 13.8461C43.2118 13.8461 45.8848 13.7611 47.1923 14.745C45.9027 14.2218 43.6729 14.0429 39.9566 15.483C32.6763 18.3094 32.8061 23.3676 27.7421 24.915C22.5571 26.5071 21.0527 24.4633 21.0527 24.4633C21.0527 24.4633 23.3004 28.0411 27.2988 28.05C27.9436 28.05 28.0107 28.0366 28.0152 28.0321C28.0107 28.0456 26.5197 31.8738 26.2287 34.7271C25.9332 37.6475 26.851 39.6422 27.1331 45.1073C27.3794 49.7763 28.6913 47.3837 30.2584 50.8273C30.7867 51.9812 30.8091 53.2781 30.8091 53.2781C31.3912 53.4123 32.9135 50.474 31.821 45.3667C31.1091 42.0527 34.6285 29.4901 43.1178 31.9409C43.9371 32.1779 44.6491 32.4507 45.2983 32.737C37.1896 40.3398 42.2133 51.1448 42.2133 51.1448C42.0163 42.0214 50.228 35.9123 52.7667 34.2441C53.004 34.1144 53.2503 33.9624 53.5055 33.779C54.9025 32.8085 56.5278 32.0125 58.2024 31.5429C59.3173 33.6806 60.0516 36.2969 59.5143 39.1949C59.5143 39.1949 61.9052 35.6126 61.6232 31.3506C63.6918 33.4078 67.3543 37.9561 66.3245 43.533C66.3245 43.533 68.8856 39.6958 68.3976 35.2459C69.6782 37.4821 70.2602 40.5769 69.8886 44.5885C69.1095 53.0545 70.5692 52.9919 70.5692 52.9919C71.0035 52.9919 70.5378 50.7379 71.993 49.186C73.4482 47.6341 75.669 42.4016 75.669 37.1779C75.669 31.9588 73.7705 27.3121 68.8184 22.3747Z" fill="#887579"/>
<path d="M40.0645 83.2424C40.0645 83.2424 49.3105 97.4419 63.1459 83.2424V97.1288H40.0645V83.2424Z" fill="#4C9285"/>
<path d="M68.4873 95.6126C69.0559 97.5983 68.2052 99.1905 67.6008 99.9999H34.5167C33.9167 99.1905 33.066 97.5983 33.6391 95.6126H30.4287C30.7108 92.7504 31.275 90.3533 32.0093 88.3497C33.7689 83.5599 36.5181 80.9928 38.7792 79.6243C40.3195 84.4364 44.6134 95.7021 51.0206 95.7558C54.8086 95.7915 59.3443 91.8917 64.4844 80.4069C66.4769 81.9051 68.635 84.347 70.1081 88.3497C70.8424 90.3533 71.4156 92.7504 71.6887 95.6126H68.4873Z" fill="white"/>
</svg>
