<svg width="100" height="100" viewBox="0 0 100 100" fill="none" xmlns="http://www.w3.org/2000/svg">
<path d="M95 0H5C2.23858 0 0 2.23858 0 5V95C0 97.7614 2.23858 100 5 100H95C97.7614 100 100 97.7614 100 95V5C100 2.23858 97.7614 0 95 0Z" fill="#4C9285"/>
<path d="M52.3552 62.4193V99.9953H32.0722C31.7409 99.8656 31.5752 99.7941 31.5752 99.7941C31.5752 97.1599 31.7901 94.8433 32.1528 92.8128C32.4618 91.1447 32.8692 89.6554 33.3483 88.345C35.793 81.65 40.1854 79.3021 42.4869 78.506C42.6122 78.4658 42.7196 78.43 42.8316 78.3942C43.548 78.1661 43.9868 78.1214 43.9868 78.1214C44.0629 78.1214 44.1301 78.1125 44.2062 78.0991C44.8465 77.9962 45.3614 77.4416 45.7823 76.5561C46.0912 75.8987 46.3509 75.0535 46.5569 74.083C46.6375 73.6984 46.7091 73.3227 46.7763 72.9023C46.8703 72.2091 46.9688 71.4801 47.0584 70.7198C47.0852 70.2592 47.1345 69.812 47.1882 69.3334C47.3673 67.0347 47.4165 64.5123 47.4165 62.1331C47.421 62.1375 50.1523 62.4193 52.3552 62.4193Z" fill="#E5C69F"/>
<path d="M73.2205 99.7989C73.2205 99.7989 73.0414 99.866 72.7414 100H52.3555V62.4241H52.4092C54.6032 62.4241 57.3568 62.1423 57.3568 62.1423C57.3568 64.5126 57.4061 66.9903 57.5897 69.2935C57.6389 69.7407 57.6837 70.2014 57.7195 70.6441C57.8001 71.4402 57.8986 72.1826 58.015 72.8803V72.8937C58.0508 73.2112 58.109 73.493 58.1672 73.7881C58.3687 74.7631 58.606 75.6262 58.9015 76.315C59.2642 77.1736 59.712 77.7685 60.2493 78.01C60.4194 78.086 60.5985 78.1262 60.791 78.1262C60.791 78.1262 61.5657 78.2157 62.7343 78.6763C62.788 78.6987 62.8462 78.7166 62.9 78.7434C65.3044 79.7318 69.1953 82.2184 71.443 88.3454C71.9086 89.6155 72.3071 91.0511 72.6116 92.6477C73.0011 94.7228 73.2205 97.0931 73.2205 99.7989Z" fill="#F2DAB5"/>
<mask id="mask0_732_8194" style="mask-type:luminance" maskUnits="userSpaceOnUse" x="46" y="69" width="13" height="7">
<path d="M58.0851 69.2397H46.8467V75.8811H58.0851V69.2397Z" fill="white"/>
</mask>
<g mask="url(#mask0_732_8194)">
<path d="M58.0851 72.8085V72.8264C57.5747 73.6136 55.8553 75.8855 52.4569 75.8855H52.4256C49.2063 75.8676 47.3258 73.5331 46.8467 72.8443C46.9452 72.1556 47.0437 71.4311 47.1288 70.6753C47.1601 70.2325 47.2093 69.7719 47.2586 69.2933C48.8257 69.6869 50.545 69.9329 52.3584 69.9686H52.4256C54.3061 69.9373 56.0389 69.6735 57.6597 69.2441C57.709 69.6869 57.7583 70.1475 57.7896 70.5903C57.8702 71.3774 57.9732 72.1153 58.0851 72.8085Z" fill="#C69F82"/>
</g>
<path d="M52.1938 19.5974C30.7019 19.5974 30.5855 37.5983 31.5437 49.3827C30.0751 46.5876 25.7006 47.4418 26.0633 51.847C26.408 56.0867 32.6586 58.2513 32.484 57.7817C35.7391 66.4981 44.3538 73.0679 52.1938 73.0679H52.3595V19.5974H52.1938Z" fill="#D7AE89"/>
<path d="M27.4372 49.991C28.4939 48.2826 30.1461 49.0205 30.5401 49.4006C30.9699 49.8121 31.3147 50.3398 31.0505 51.3416C30.9028 51.9185 30.3073 51.9677 30.4416 52.8219C30.6073 53.7924 31.0505 53.8416 31.3147 54.0697C31.5609 54.2843 31.8744 54.4498 32.0266 54.8568C32.1923 55.2682 32.2102 55.6931 32.1251 56.0733C31.9595 56.762 30.952 56.2029 30.2759 55.9078C29.8282 55.6931 28.4088 54.4945 28.0462 54.101C27.1551 53.0813 26.7253 51.109 27.4372 49.991Z" fill="#B48E76"/>
<path d="M52.3098 19.5975C73.8017 19.5975 73.9181 37.5984 72.9734 49.3828C74.442 46.5876 78.7986 47.4419 78.4359 51.847C78.1045 56.0868 71.845 58.2513 72.0152 57.7817C68.8451 66.4982 60.1454 73.068 52.3053 73.068C52.2561 73.068 52.1889 73.068 52.1889 73.068L52.1396 19.593C52.1441 19.5975 52.2605 19.5975 52.3098 19.5975Z" fill="#E1BE9D"/>
<path d="M77.0711 49.991C76.0145 48.2826 74.3801 49.0205 73.9682 49.4006C73.5384 49.8121 73.207 50.3398 73.4578 51.3416C73.6055 51.9185 74.201 51.9677 74.0667 52.8219C73.901 53.7924 73.4578 53.8416 73.2071 54.0697C72.9608 54.2843 72.6295 54.4498 72.4817 54.8568C72.334 55.2682 72.2981 55.6931 72.3832 56.0733C72.5488 56.762 73.5563 56.2029 74.2324 55.9078C74.6936 55.6931 76.0995 54.4945 76.4622 54.101C77.3666 53.0813 77.7786 51.109 77.0711 49.991Z" fill="#B48E76"/>
<path d="M52.0238 24.678C44.9583 24.678 39.7779 26.7307 36.6571 30.7781C32.2826 36.449 32.4483 45.0939 34.0512 51.3104C34.5482 53.2155 34.8124 58.3274 35.1392 60.2057C36.675 68.6046 45.9344 73.0769 52.0238 73.0769C52.0238 73.0769 52.1402 73.0769 52.1895 73.0769V24.678C52.1402 24.678 52.091 24.678 52.091 24.678" fill="#E5C69F"/>
<path d="M67.3771 30.7916C64.2742 26.7621 59.1564 24.7093 52.1895 24.678V73.0724C59.1564 72.9919 67.489 68.0903 68.9083 60.2012C69.2531 58.3273 69.5039 53.2155 69.9964 51.3059C71.6172 45.1118 71.7829 36.4803 67.3771 30.7916Z" fill="#F2DAB5"/>
<path d="M51.0659 64.4902C51.03 64.4812 50.9987 64.4767 50.9629 64.4678C50.9942 64.4767 51.0256 64.4857 51.0659 64.4902Z" fill="#C3987D"/>
<path d="M50.802 64.4321C50.7707 64.4232 50.7438 64.4142 50.7125 64.4053H50.708C50.708 64.4098 50.7438 64.4187 50.802 64.4321Z" fill="#C3987D"/>
<path d="M48.1812 58.9803C48.1006 57.3077 51.2482 58.3676 52.2825 58.4213C53.1019 58.4615 55.5959 57.8936 55.8108 58.0411C57.2794 59.034 54.2571 61.0286 52.2288 61.0286C51.6915 61.0331 48.2305 59.9911 48.1812 58.9803Z" fill="#E1BE9D"/>
<path d="M46.1891 24.7988L46.0996 24.8884L46.1131 24.9197C46.1444 24.875 46.1623 24.8302 46.1891 24.7988Z" fill="#473217"/>
<path d="M51.1235 63.5107C51.0877 63.5017 51.0563 63.4972 51.0205 63.4883C51.0519 63.4972 51.0832 63.5017 51.1235 63.5107Z" fill="#C1977D"/>
<path d="M50.8553 63.448C50.824 63.4391 50.7927 63.4301 50.7613 63.4211H50.7568C50.7568 63.4256 50.7926 63.4346 50.8553 63.448Z" fill="#C1977D"/>
<path d="M36.7734 43.5644C36.7734 43.5644 38.4122 50.3041 41.2285 50.8542C44.0448 51.4042 47.0895 50.3085 47.0895 50.3085C47.0895 50.3085 47.3806 42.3882 45.9388 41.3551C44.5016 40.3175 41.1793 38.8148 36.7734 43.5644Z" fill="white"/>
<path d="M47.0944 50.2904C47.0944 50.2904 47.0317 50.3083 46.884 50.3709C46.8481 47.9425 46.6243 44.6062 45.7243 43.9667C44.3855 42.9828 41.3633 41.6053 37.329 45.3844C36.9619 44.3423 36.7783 43.5507 36.7783 43.5507C41.1931 38.7922 44.5154 40.2904 45.9437 41.3325C47.3855 42.3656 47.0944 50.2904 47.0944 50.2904Z" fill="#DCBC9B"/>
<path d="M42.6563 49.6376C44.187 49.6376 45.4279 48.3941 45.4279 46.8603C45.4279 45.3264 44.187 44.083 42.6563 44.083C41.1256 44.083 39.8848 45.3264 39.8848 46.8603C39.8848 48.3941 41.1256 49.6376 42.6563 49.6376Z" fill="#4D2A12"/>
<path d="M42.5276 48.7076C41.7262 48.6405 41.1128 47.831 41.1844 46.941C41.256 46.051 41.9948 45.3578 42.7963 45.4249C43.5978 45.492 44.2112 46.297 44.1395 47.187C44.0679 48.077 43.3291 48.7746 42.5276 48.7076Z" fill="#80401C"/>
<path d="M42.5992 48.3854C42.044 48.3362 41.4664 47.728 41.5246 46.9722C41.5873 46.2164 42.2544 45.7065 42.8141 45.7513C43.3693 45.8005 43.9469 46.4132 43.8842 47.169C43.8215 47.9248 43.1544 48.4346 42.5992 48.3854Z" fill="#241C09"/>
<path d="M42.1471 46.525C42.1247 46.7978 41.8426 46.9946 41.5247 46.9722C41.2023 46.9454 40.9605 46.6994 40.9829 46.4311C41.0053 46.1583 41.2829 45.957 41.6053 45.9838C41.9276 46.0107 42.1695 46.2522 42.1471 46.525Z" fill="white"/>
<path d="M43.9419 48.1041C43.9285 48.2385 43.7897 48.3415 43.633 48.328C43.4718 48.3146 43.3509 48.1937 43.3598 48.0549C43.3733 47.9206 43.5121 47.8176 43.6688 47.831C43.83 47.8444 43.9554 47.9653 43.9419 48.1041Z" fill="white"/>
<path d="M51.1684 64.3068C51.1326 64.2979 51.1012 64.2934 51.0654 64.2844C51.0968 64.2889 51.1281 64.2979 51.1684 64.3068Z" fill="#C1977D"/>
<path d="M50.8963 64.2441C50.865 64.2352 50.8337 64.2262 50.8023 64.2173H50.7979C50.8023 64.2218 50.8381 64.2307 50.8963 64.2441Z" fill="#C1977D"/>
<path d="M51.0397 64.1144C51.0039 64.1055 50.9636 64.101 50.9277 64.092C50.968 64.101 50.9994 64.1055 51.0397 64.1144Z" fill="#C3987D"/>
<path d="M50.7524 64.0518C50.7166 64.0428 50.6852 64.0339 50.6539 64.0249H50.6494C50.6494 64.0249 50.6897 64.0339 50.7524 64.0518Z" fill="#C3987D"/>
<path d="M50.9586 63.8327C50.9228 63.8237 50.8825 63.8193 50.8467 63.8103C50.8825 63.8193 50.9138 63.8237 50.9586 63.8327Z" fill="#C3987D"/>
<path d="M50.6664 63.77C50.6306 63.7611 50.5993 63.7521 50.568 63.7432H50.5635C50.5635 63.7432 50.6038 63.7521 50.6664 63.77Z" fill="#C3987D"/>
<path d="M51.2139 63.7926C51.1781 63.7837 51.1423 63.7792 51.1064 63.7703C51.1423 63.7792 51.1736 63.7882 51.2139 63.7926Z" fill="#C3987D"/>
<path d="M50.9364 63.7344C50.9051 63.7254 50.8737 63.7165 50.8424 63.7075H50.8379C50.8379 63.7075 50.8738 63.7165 50.9364 63.7344Z" fill="#C3987D"/>
<path d="M67.7758 43.3363C67.7758 43.3363 66.137 50.076 63.3206 50.6261C60.5043 51.1762 57.4596 50.0805 57.4596 50.0805C57.4596 50.0805 57.1686 42.1601 58.6103 41.127C60.0521 40.0895 63.3699 38.5868 67.7758 43.3363Z" fill="white"/>
<path d="M57.4557 50.0627C57.4557 50.0627 57.5184 50.0805 57.6661 50.1432C57.702 47.7147 57.9259 44.3784 58.8258 43.7389C60.1646 42.755 63.1869 41.3775 67.2211 45.1566C67.5883 44.1145 67.7718 43.3229 67.7718 43.3229C63.357 38.5644 60.0348 40.0627 58.6065 41.1047C57.1647 42.1333 57.4557 50.0627 57.4557 50.0627Z" fill="#DCBC9B"/>
<path d="M59.125 46.6279C59.125 48.1619 60.3653 49.4052 61.8966 49.4052C63.4279 49.4052 64.6681 48.1619 64.6681 46.6279C64.6681 45.0939 63.4279 43.8506 61.8966 43.8506C60.3653 43.8506 59.125 45.0983 59.125 46.6279Z" fill="#4D2A12"/>
<path d="M62.0219 48.4795C62.8233 48.4124 63.4368 47.6029 63.3651 46.713C63.2935 45.823 62.5547 45.1298 61.7532 45.1969C60.9518 45.264 60.3383 46.069 60.41 46.9589C60.4861 47.8489 61.2249 48.5466 62.0219 48.4795Z" fill="#80401C"/>
<path d="M61.9548 48.1574C62.51 48.1082 63.0875 47.5 63.0293 46.7442C62.9666 45.9884 62.2995 45.4785 61.7398 45.5232C61.1846 45.5724 60.607 46.1851 60.6697 46.9409C60.7279 47.6923 61.3995 48.2021 61.9548 48.1574Z" fill="#241C09"/>
<path d="M62.4077 46.297C62.4301 46.5698 62.7121 46.7665 63.03 46.7442C63.3524 46.7174 63.5942 46.4714 63.5718 46.203C63.5494 45.9302 63.2718 45.729 62.9494 45.7558C62.6271 45.7782 62.3853 46.0242 62.4077 46.297Z" fill="white"/>
<path d="M60.6079 47.8761C60.6213 48.0104 60.7601 48.1134 60.9168 48.1C61.078 48.0865 61.1989 47.9657 61.1854 47.8269C61.172 47.6925 61.0332 47.5896 60.8765 47.603C60.7198 47.6164 60.5989 47.7373 60.6079 47.8761Z" fill="white"/>
<path d="M48.7821 43.4572C48.7597 43.4259 48.2492 42.6477 47.206 41.8427C46.5523 41.3418 45.912 40.9572 45.2448 40.671C44.4344 40.3311 43.5658 40.0896 42.724 39.9733C41.9628 39.8883 41.1166 39.9107 40.1316 40.0448C39.3794 40.1879 38.645 40.4116 38.0227 40.6888C37.5794 40.8409 37.2257 41.0556 36.9436 41.23C36.8362 41.2971 36.7376 41.3552 36.6391 41.4089L35.2959 42.2541L36.8451 41.8874C36.9167 41.8695 36.9973 41.8472 37.0779 41.8248C37.4003 41.7398 37.7988 41.6325 38.2645 41.5654C38.3719 41.5475 38.4839 41.5251 38.6003 41.5028C38.7973 41.4625 38.9988 41.4223 39.2092 41.4134C39.442 41.3955 39.6883 41.382 39.939 41.3641L40.2659 41.3418C41.1256 41.3328 41.8509 41.3955 42.4912 41.543C43.1941 41.6638 43.9195 41.8919 44.5822 42.2005C45.209 42.5001 45.809 42.7998 46.2792 43.1441C47.2239 43.7792 47.7522 44.3069 47.7567 44.3114C47.8865 44.4411 48.0612 44.5082 48.2358 44.5082C48.3612 44.5082 48.491 44.4724 48.603 44.3963C48.9164 44.1906 49.0015 43.7702 48.8045 43.4661L48.7821 43.4572Z" fill="black"/>
<path d="M68.0533 41.4087C67.9637 41.3595 67.8652 41.3014 67.7578 41.2343C67.4757 41.0599 67.1264 40.8452 66.6921 40.6976C66.0563 40.4159 65.322 40.1923 64.5608 40.0492C63.5848 39.9195 62.7385 39.8926 61.9728 39.9821C61.1356 40.0984 60.2624 40.3399 59.452 40.6798C58.7983 40.9615 58.1356 41.3551 57.4909 41.8515C56.4655 42.6386 55.9552 43.4034 55.9193 43.4615L55.9104 43.4749C55.7358 43.7433 55.776 44.101 55.9999 44.3247C56.1253 44.4543 56.2954 44.5259 56.479 44.5259C56.6581 44.5259 56.8282 44.4543 56.9536 44.3247L56.9581 44.3202C57.0073 44.271 57.5178 43.7701 58.4357 43.1574C58.8969 42.8175 59.4968 42.5179 60.1236 42.2182C60.7908 41.9096 61.5117 41.6815 62.2281 41.5563C62.8639 41.4087 63.5892 41.3461 64.4355 41.3551L64.7758 41.3774C65.022 41.3953 65.2638 41.4132 65.5011 41.4266C65.7071 41.4356 65.9086 41.4758 66.1056 41.5161C66.2175 41.5384 66.3295 41.5608 66.4414 41.5787C66.9116 41.6458 67.31 41.7531 67.6279 41.8381C67.713 41.8604 67.7891 41.8828 67.8652 41.9007L69.4144 42.2674L68.0533 41.4087Z" fill="black"/>
<path d="M50.6807 65.1027C50.6449 65.0937 50.6091 65.0893 50.5732 65.0803C50.6091 65.0893 50.6404 65.0937 50.6807 65.1027Z" fill="#C5997D"/>
<path d="M50.3989 65.0403C50.3675 65.0313 50.3362 65.0224 50.3004 65.0134H50.2959C50.3004 65.0134 50.3362 65.0269 50.3989 65.0403Z" fill="#C5997D"/>
<path d="M48.2183 66.4939C48.1377 65.4116 51.2317 66.722 52.2481 66.7533C53.0585 66.7801 55.4942 66.5923 55.7181 66.5073C57.4196 65.8678 55.6241 68.3186 52.1988 68.4483C50.6272 68.5064 48.2676 67.1513 48.2183 66.4939Z" fill="#F3DBB5"/>
<path d="M58.2882 64.405C57.4464 64.3647 56.5868 65.0669 55.5749 64.9596C55.5346 64.9372 55.5122 64.9372 55.4719 64.9372C55.2391 64.8969 55.0107 64.9372 54.7555 64.9998C54.442 65.0669 54.1242 65.1921 53.8286 65.295C53.3227 65.4605 52.754 65.5902 52.1719 65.5454V65.5499C52.1585 65.5499 52.1496 65.5454 52.1406 65.5454C52.1272 65.5454 52.1183 65.5499 52.1093 65.5499V65.5454C51.5228 65.5902 50.9541 65.4605 50.4526 65.295C50.1571 65.1921 49.8392 65.0624 49.5258 64.9998C49.275 64.9372 49.0422 64.8969 48.8094 64.9372C48.7646 64.9372 48.7467 64.9372 48.7064 64.9596C47.6945 65.0669 46.8348 64.3647 45.9931 64.405C45.7602 64.4274 45.4244 64.3647 45.2363 64.3647C45.2766 64.3871 45.3214 64.405 45.3617 64.4274C47.7572 65.5946 49.8213 67.786 52.1093 67.7145C52.1227 67.7145 52.1317 67.7145 52.1406 67.7145C52.1541 67.7145 52.163 67.7145 52.1719 67.7145C54.4599 67.786 56.5241 65.5946 58.9195 64.4274C58.9643 64.405 59.0046 64.3871 59.0449 64.3647C58.8613 64.3647 58.521 64.4229 58.2882 64.405Z" fill="#E2C8A4"/>
<path d="M58.9951 64.338C58.9951 64.338 56.5593 63.3988 54.831 63.9489C54.831 63.9489 54.1862 64.1994 53.5191 64.3559C53.1116 64.5124 52.6191 64.5616 52.1445 64.5393C51.7819 64.5258 51.4326 64.4767 51.1505 64.4275C51.0565 64.414 50.9625 64.3917 50.864 64.3738C50.8237 64.3648 50.7923 64.3604 50.7565 64.3514C50.6983 64.338 50.6401 64.3246 50.5819 64.3112C50.5192 64.2978 50.4834 64.2843 50.4834 64.2843H50.4879C49.9327 64.1323 49.458 63.9489 49.458 63.9489C47.7253 63.3988 45.294 64.338 45.294 64.338C45.2626 64.3514 45.2402 64.3648 45.2402 64.3648C45.4283 64.3648 45.7641 64.4274 45.997 64.4051C46.8387 64.3648 47.6984 65.067 48.7103 64.9597C48.7506 64.9373 48.773 64.9373 48.8133 64.9373C49.0461 64.897 49.2745 64.9373 49.5297 64.9999C49.8431 65.067 50.161 65.1922 50.4565 65.2951C50.9625 65.4606 51.5311 65.5902 52.1132 65.5455V65.55C52.1266 65.55 52.1356 65.5455 52.1445 65.5455C52.158 65.5455 52.1669 65.55 52.1758 65.55V65.5455C52.7624 65.5902 53.3311 65.4606 53.8325 65.2951C54.1281 65.1922 54.4459 65.0625 54.7594 64.9999C55.0101 64.9373 55.2429 64.897 55.4757 64.9373C55.5205 64.9373 55.5385 64.9373 55.5788 64.9597C56.5907 65.067 57.4503 64.3648 58.2921 64.4051C58.5249 64.4274 58.8608 64.3648 59.0488 64.3648C59.0488 64.3648 59.0264 64.3514 58.9951 64.338Z" fill="#CCA686"/>
<path d="M48.0527 64.9104C48.0975 64.9239 52.6153 66.3013 56.148 64.9417L55.7406 64.6689H50.9676L48.0527 64.9104Z" fill="#CCA686"/>
<path d="M52.3332 94.7987V99.9955H36.953V93.9535C36.953 93.9535 34.7053 93.4168 32.1621 92.813C32.4711 91.1449 32.8785 89.6556 33.3576 88.3452C34.9337 84.034 37.3157 81.5295 39.4246 80.0715L52.257 94.8703L52.3332 94.7987Z" fill="#CA0241"/>
<path d="M72.6195 92.6476C69.8166 93.314 67.1435 93.9535 67.1435 93.9535V99.9955H52.332V94.7988L66.0958 80.6172C68.0122 82.1288 70.0494 84.5304 71.4508 88.3453C71.9165 89.6154 72.315 91.051 72.6195 92.6476Z" fill="#AD0D3A"/>
<path d="M39.4248 80.0715C39.4248 80.0715 50.4529 96.5608 66.0972 80.6127L52.1901 96.0107L39.4248 80.0715Z" fill="#F5B436"/>
<path d="M84.1811 23.5061C84.1049 23.6984 83.9571 23.8818 83.7512 24.0607C84.0333 23.7297 84.1811 23.5061 84.1811 23.5061C83.7199 23.8058 83.281 24.0562 82.8512 24.2843C74.7917 28.5687 72.5485 21.0419 72.5485 21.0419C73.3903 13.9489 82.0408 14.0473 82.0408 14.0473C82.0408 14.0473 74.6843 10.5007 71.8545 17.4551C71.474 13.7118 73.5112 10.0759 73.5112 10.0759C70.2292 10.7736 68.8502 13.4256 68.2726 15.6886C66.2443 11.8022 68.3442 8.91309 68.3442 8.91309L57.0878 13.3809C58.5475 12.2226 60.831 10.0759 60.831 10.0759C60.831 10.0759 57.3386 10.4337 51.9432 11.9587C48.1508 13.032 45.8807 14.9372 44.6091 15.8138L44.5777 12.6474C44.5777 12.6474 39.066 16.431 33.8452 21.4041C28.629 26.3684 26.623 31.0419 26.623 36.2968C26.623 41.5473 28.9648 46.8111 30.5006 48.3764C32.0319 49.9417 31.5438 52.2047 32.0005 52.2047C32.0005 52.2047 33.1064 52.2449 32.9408 47.066C33.5452 41.185 36.2586 38.8371 37.7765 37.9739C40.445 36.5696 44.4658 36.3147 50.4835 39.3603L50.4791 39.3514C54.1954 41.5115 55.6864 38.6447 60.934 37.2002C69.88 34.736 73.5918 41.2029 72.8396 44.5347C71.6844 49.6734 73.2918 52.6295 73.9052 52.4909C73.9052 52.4909 73.9321 51.185 74.4873 50.0267C76.1395 46.5607 77.523 48.9712 77.7827 44.2753C78.0827 38.7789 79.0454 36.7664 78.7364 33.8326C78.5618 32.1734 77.9663 30.1966 77.4917 28.8147C83.487 28.7208 84.1811 23.5061 84.1811 23.5061Z" fill="black"/>
<path d="M59.0937 61.212C57.3295 60.6619 54.3117 60.5099 52.3372 60.4741L52.3327 60.4696C52.3327 60.4696 51.9655 60.4607 51.3655 60.4607C50.77 60.4607 50.3984 60.4696 50.3984 60.4696L50.3939 60.4741C48.4193 60.5099 45.4015 60.6619 43.6374 61.212C40.8569 62.0841 39.9927 65.5009 36.7734 68.1262C36.7734 68.1262 41.2061 67.7729 43.8165 66.7353C46.4269 65.6933 46.7537 64.8525 50.4521 63.7389C50.8148 63.6315 51.1103 63.5063 51.37 63.3721C51.6252 63.5063 51.9252 63.6315 52.2879 63.7389C55.9863 64.8569 56.3131 65.6977 58.9235 66.7353C61.5339 67.7773 65.9666 68.1262 65.9666 68.1262C62.7428 65.5009 61.8787 62.0841 59.0937 61.212Z" fill="black"/>
</svg>
