<svg width="100" height="100" viewBox="0 0 100 100" fill="none" xmlns="http://www.w3.org/2000/svg">
<path d="M95 0H5C2.23858 0 0 2.23858 0 5V95C0 97.7614 2.23858 100 5 100H95C97.7614 100 100 97.7614 100 95V5C100 2.23858 97.7614 0 95 0Z" fill="#BE0549"/>
<path d="M51.4466 62.5357V99.9954H31.1591C30.8278 99.8657 30.6621 99.7986 30.6621 99.7986C30.6621 95.0178 31.3651 91.2879 32.4352 88.3809C35.0187 81.3639 39.7424 79.1367 41.9185 78.4659C42.6304 78.2467 43.0737 78.1931 43.0737 78.1931C43.1498 78.1931 43.2215 78.1841 43.2976 78.1752C43.9379 78.0723 44.4573 77.5178 44.8692 76.6323C45.1781 75.9748 45.4378 75.1385 45.6483 74.168C45.7333 73.7879 45.796 73.4078 45.8632 72.9963C45.9617 72.3031 46.0602 71.5786 46.1453 70.8183C46.1766 70.3577 46.2258 69.9104 46.2751 69.4319C46.4542 67.1421 46.5079 64.6332 46.5079 62.2539C46.5124 62.2584 49.2392 62.5357 51.4466 62.5357Z" fill="#E5C69F"/>
<path d="M72.3113 99.7986C72.3113 99.7986 72.1278 99.8657 71.8323 99.9954H51.4463V62.5357H51.4955C53.6895 62.5357 56.4477 62.2539 56.4477 62.2539C56.4477 64.6108 56.4969 67.0884 56.676 69.3782C56.7253 69.8255 56.7745 70.2861 56.8058 70.7289C56.8909 71.5205 56.9894 72.2629 57.1058 72.9561V72.9695C57.1372 73.2825 57.2043 73.5643 57.2536 73.8595C57.4551 74.8344 57.6968 75.6931 57.9879 76.3773C58.3506 77.2316 58.7938 77.8308 59.3356 78.0634C59.5057 78.1394 59.6893 78.1797 59.8774 78.1797C59.8774 78.1797 60.6564 78.2736 61.8295 78.7342C64.216 79.6689 68.2279 82.1197 70.5338 88.372C71.6084 91.2879 72.3113 95.0178 72.3113 99.7986Z" fill="#F2DAB5"/>
<mask id="mask0_732_8193" style="mask-type:luminance" maskUnits="userSpaceOnUse" x="45" y="69" width="13" height="7">
<path d="M57.1092 69.3379H45.8662V75.9569H57.1092V69.3379Z" fill="white"/>
</mask>
<g mask="url(#mask0_732_8193)">
<path d="M57.1092 72.8934V72.9112C56.5987 73.6984 54.8793 75.9613 51.4809 75.9613H51.4451C48.2258 75.9434 46.3453 73.6179 45.8662 72.9291C45.9647 72.2404 46.0632 71.5204 46.1483 70.7645C46.1796 70.3218 46.2289 69.8612 46.2781 69.3871C47.8452 69.7807 49.5646 70.0266 51.378 70.0579H51.4451C53.3257 70.0266 55.0584 69.7628 56.6793 69.3379C56.7285 69.7806 56.7778 70.2413 56.8136 70.6796C56.8942 71.4667 56.9927 72.2046 57.1092 72.8934Z" fill="#C69F82"/>
</g>
<path d="M51.2182 19.8479C29.7263 19.8479 29.6099 37.7906 30.5681 49.5393C29.0995 46.7531 24.725 47.6073 25.0877 51.9991C25.4324 56.2253 31.683 58.381 31.5084 57.9159C34.7635 66.6055 43.3782 73.1574 51.2182 73.1574H51.3839V19.8479H51.2182Z" fill="#D7AE89"/>
<path d="M26.4577 50.1475C27.5144 48.4436 29.1666 49.1815 29.5606 49.5572C29.9904 49.9686 30.3352 50.4919 30.071 51.4892C29.9233 52.0617 29.3278 52.1108 29.4621 52.965C29.6278 53.9311 30.071 53.9803 30.3352 54.2083C30.5815 54.423 30.8949 54.584 31.0471 54.9955C31.2128 55.4069 31.2307 55.8318 31.1456 56.2074C30.98 56.8962 29.9725 56.3371 29.2964 56.042C28.8487 55.8273 27.4293 54.6332 27.0667 54.2396C26.1757 53.2289 25.7458 51.2611 26.4577 50.1475Z" fill="#B48E76"/>
<path d="M51.3303 19.8479C72.8222 19.8479 72.9386 37.7906 71.9939 49.5393C73.4625 46.7531 77.8191 47.6073 77.4564 51.9991C77.125 56.2253 70.8655 58.381 71.0357 57.9159C67.8656 66.6055 59.1659 73.1574 51.3258 73.1574C51.2766 73.1574 51.2094 73.1574 51.2094 73.1574L51.1602 19.8524C51.1691 19.8479 51.2811 19.8479 51.3303 19.8479Z" fill="#E1BE9D"/>
<path d="M76.0907 50.1475C75.034 48.4436 73.3997 49.1815 72.9878 49.5572C72.5579 49.9686 72.2266 50.4919 72.4773 51.4892C72.6251 52.0617 73.2206 52.1108 73.0862 52.965C72.9206 53.9311 72.4773 53.9803 72.2266 54.2083C71.9803 54.423 71.649 54.584 71.5013 54.9955C71.3535 55.4069 71.3176 55.8318 71.4027 56.2074C71.5684 56.8962 72.5758 56.3371 73.2519 56.042C73.7131 55.8273 75.1191 54.6332 75.4817 54.2396C76.3907 53.2289 76.8026 51.2611 76.0907 50.1475Z" fill="#B48E76"/>
<path d="M51.0482 24.9106C43.9828 24.9106 38.8023 26.9589 35.6815 30.9885C31.307 36.6414 31.4727 45.2595 33.0756 51.4536C33.5726 53.3543 33.8368 58.4527 34.1637 60.3176C35.6994 68.6897 44.9588 73.1486 51.0482 73.1486C51.0482 73.1486 51.1646 73.1486 51.2139 73.1486V24.9106C51.1646 24.9106 51.1154 24.9106 51.1154 24.9106" fill="#E5C69F"/>
<path d="M66.3966 31.0064C63.2937 26.9903 58.1759 24.942 51.209 24.9106V73.153C58.1759 73.0725 66.5086 68.1888 67.9279 60.3221C68.2727 58.4527 68.5234 53.3588 69.0159 51.4581C70.6413 45.2818 70.8069 36.6772 66.3966 31.0064Z" fill="#F2DAB5"/>
<path d="M50.0844 64.602C50.0486 64.593 50.0173 64.5885 49.9814 64.5796C50.0173 64.5885 50.0441 64.593 50.0844 64.602Z" fill="#C3987D"/>
<path d="M49.8215 64.544C49.7902 64.535 49.7634 64.526 49.732 64.5171H49.7275C49.732 64.5216 49.7633 64.5305 49.8215 64.544Z" fill="#C3987D"/>
<path d="M43.1491 25.0312L43.0596 25.1208L43.073 25.1521C43.1044 25.1074 43.1222 25.0626 43.1491 25.0312Z" fill="#473217"/>
<path d="M50.144 63.6225C50.1082 63.6135 50.0768 63.6091 50.041 63.6001C50.0768 63.6091 50.1037 63.6135 50.144 63.6225Z" fill="#C1977D"/>
<path d="M49.8749 63.5645C49.8435 63.5555 49.8122 63.5466 49.7808 63.5376H49.7764C49.7808 63.5376 49.8167 63.551 49.8749 63.5645Z" fill="#C1977D"/>
<path d="M47.0143 57.4956C46.9293 55.7827 50.162 56.8695 51.2277 56.9231C52.0694 56.9679 54.6305 56.382 54.8499 56.5341C56.3588 57.5493 53.2515 59.5931 51.1739 59.5931C50.6187 59.5931 47.0636 58.5287 47.0143 57.4956Z" fill="#E1BD9C"/>
<path d="M35.7979 43.7387C35.7979 43.7387 37.4366 50.4561 40.2529 51.0062C43.0693 51.5563 46.1139 50.465 46.1139 50.465C46.1139 50.465 46.405 42.5715 44.9632 41.5384C43.5215 40.5008 40.1992 39.0071 35.7979 43.7387Z" fill="white"/>
<path d="M46.1139 50.4472C46.1139 50.4472 46.0513 50.4651 45.9035 50.5277C45.8677 48.1082 45.6438 44.7809 44.7438 44.1413C43.4051 43.1619 40.3828 41.7844 36.3486 45.5546C35.9814 44.5125 35.7979 43.7254 35.7979 43.7254C40.2126 38.9803 43.5349 40.4741 44.9632 41.5116C46.405 42.5447 46.1139 50.4472 46.1139 50.4472Z" fill="#DCBC9B"/>
<path d="M41.6769 49.7942C43.2076 49.7942 44.4484 48.5548 44.4484 47.0259C44.4484 45.497 43.2076 44.2576 41.6769 44.2576C40.1462 44.2576 38.9053 45.497 38.9053 47.0259C38.9053 48.5548 40.1462 49.7942 41.6769 49.7942Z" fill="#4D2A12"/>
<path d="M41.5511 48.8687C40.7496 48.8016 40.1362 47.9966 40.2078 47.1111C40.2795 46.2256 41.0183 45.5324 41.8197 45.5995C42.6212 45.6665 43.2346 46.4715 43.163 47.3571C43.0868 48.2381 42.3481 48.9358 41.5511 48.8687Z" fill="#80401C"/>
<path d="M41.6177 48.5464C41.0625 48.4972 40.4849 47.889 40.5431 47.1377C40.6058 46.3818 41.273 45.8765 41.8326 45.9212C42.3878 45.9704 42.9654 46.5831 42.9028 47.3344C42.8446 48.0858 42.1729 48.5911 41.6177 48.5464Z" fill="#241C09"/>
<path d="M41.1656 46.6904C41.1432 46.9632 40.8612 47.16 40.5432 47.1332C40.2209 47.1063 39.979 46.8648 40.0014 46.592C40.0238 46.3192 40.3014 46.1224 40.6238 46.1448C40.9462 46.1761 41.188 46.4176 41.1656 46.6904Z" fill="white"/>
<path d="M42.9615 48.2649C42.948 48.3993 42.8092 48.5023 42.6525 48.4888C42.4913 48.4754 42.3704 48.3545 42.3794 48.2202C42.3928 48.0858 42.5316 47.9829 42.6883 47.9963C42.854 48.0053 42.9749 48.1261 42.9615 48.2649Z" fill="white"/>
<path d="M50.1879 64.4142C50.1521 64.4053 50.1208 64.4008 50.085 64.3918C50.1163 64.4008 50.1476 64.4098 50.1879 64.4142Z" fill="#C1977D"/>
<path d="M49.9198 64.356C49.8884 64.347 49.8571 64.3381 49.8258 64.3291H49.8213C49.8213 64.3336 49.8571 64.3425 49.9198 64.356Z" fill="#C1977D"/>
<path d="M50.0631 64.2262C50.0273 64.2173 49.987 64.2128 49.9512 64.2039C49.987 64.2128 50.0183 64.2173 50.0631 64.2262Z" fill="#C3987D"/>
<path d="M49.7719 64.1636C49.7361 64.1546 49.7048 64.1457 49.6734 64.1367H49.6689C49.6689 64.1367 49.7092 64.1457 49.7719 64.1636Z" fill="#C3987D"/>
<path d="M49.9781 63.9445C49.9423 63.9355 49.902 63.9311 49.8662 63.9221C49.9065 63.9311 49.9379 63.9355 49.9781 63.9445Z" fill="#C3987D"/>
<path d="M49.6909 63.8821C49.655 63.8731 49.6237 63.8642 49.5924 63.8552H49.5879C49.5879 63.8552 49.6237 63.8642 49.6909 63.8821Z" fill="#C3987D"/>
<path d="M50.2373 63.9089C50.2015 63.8999 50.1657 63.8954 50.1299 63.8865C50.1657 63.891 50.197 63.8999 50.2373 63.9089Z" fill="#C3987D"/>
<path d="M49.9602 63.8462C49.9289 63.8372 49.8975 63.8283 49.8661 63.8193H49.8617C49.8572 63.8193 49.8975 63.8283 49.9602 63.8462Z" fill="#C3987D"/>
<path d="M66.8002 43.5108C66.8002 43.5108 65.1614 50.2282 62.345 50.7783C59.5287 51.3284 56.484 50.2371 56.484 50.2371C56.484 50.2371 56.193 42.3436 57.6347 41.3105C59.072 40.2729 62.3943 38.7747 66.8002 43.5108Z" fill="white"/>
<path d="M56.4801 50.2148C56.4801 50.2148 56.5428 50.2327 56.6906 50.2953C56.7264 47.8758 56.9503 44.5484 57.8503 43.9089C59.189 42.9295 62.2113 41.552 66.2455 45.3221C66.6127 44.2801 66.7963 43.493 66.7963 43.493C62.3815 38.7479 59.0592 40.2416 57.6309 41.2792C56.1891 42.3123 56.4801 50.2148 56.4801 50.2148Z" fill="#DCBC9B"/>
<path d="M58.1445 46.7935C58.1445 48.323 59.3848 49.5618 60.9161 49.5618C62.4474 49.5618 63.6877 48.323 63.6877 46.7935C63.6877 45.264 62.4474 44.0251 60.9161 44.0251C59.3848 44.0251 58.1445 45.2684 58.1445 46.7935Z" fill="#4D2A12"/>
<path d="M61.0463 48.636C61.8478 48.5689 62.4612 47.7639 62.3895 46.8784C62.3179 45.9929 61.5791 45.2997 60.7776 45.3668C59.9762 45.4339 59.3628 46.2389 59.4344 47.1244C59.506 48.0099 60.2448 48.7031 61.0463 48.636Z" fill="#80401C"/>
<path d="M60.9753 48.3184C61.5305 48.2692 62.1081 47.661 62.0499 46.9096C61.9872 46.1538 61.32 45.6485 60.7604 45.6932C60.2051 45.7424 59.6275 46.3551 59.6902 47.1064C59.7484 47.8578 60.4201 48.3631 60.9753 48.3184Z" fill="#241C09"/>
<path d="M61.4272 46.4624C61.4496 46.7352 61.7317 46.932 62.0496 46.9052C62.372 46.8783 62.6137 46.6368 62.5914 46.364C62.569 46.0912 62.2914 45.8944 61.969 45.9168C61.6466 45.9481 61.4048 46.1896 61.4272 46.4624Z" fill="white"/>
<path d="M59.6309 48.0369C59.6443 48.1712 59.7831 48.2742 59.9398 48.2608C60.101 48.2474 60.2219 48.1265 60.2129 47.9921C60.1995 47.8578 60.0607 47.7548 59.904 47.7683C59.7384 47.7772 59.6175 47.8981 59.6309 48.0369Z" fill="white"/>
<path d="M47.8031 40.2013C47.7808 40.17 47.2703 39.3918 46.2271 38.5913C45.5734 38.0904 44.9331 37.7103 44.2659 37.424C43.4555 37.0842 42.5869 36.8427 41.7451 36.7308C40.9839 36.6459 40.1377 36.6682 39.1482 36.8024C38.396 36.9455 37.6616 37.1691 37.0393 37.4419C36.596 37.594 36.2423 37.8087 35.9602 37.9831C35.8528 38.0502 35.7542 38.1083 35.6557 38.162L34.3125 39.0072L35.8617 38.645C35.9333 38.6271 36.0139 38.6047 36.0945 38.5824C36.4169 38.4974 36.8154 38.3901 37.2811 38.323C37.3885 38.3051 37.5005 38.2872 37.6169 38.2604C37.8139 38.2201 38.0154 38.1799 38.2258 38.1709C38.4586 38.1575 38.7049 38.1396 38.9556 38.1217L39.2825 38.0994C40.1422 38.0904 40.8676 38.153 41.5078 38.3006C42.2108 38.4214 42.9361 38.6495 43.5988 38.9536C44.2256 39.2532 44.8256 39.5484 45.2958 39.8927C46.2405 40.5233 46.7689 41.0511 46.7734 41.0555C46.9032 41.1852 47.0778 41.2523 47.2524 41.2523C47.3778 41.2523 47.5076 41.2165 47.6196 41.145C47.933 40.9393 48.0181 40.5189 47.8211 40.2192L47.8031 40.2013Z" fill="black"/>
<path d="M67.0787 38.1575C66.9891 38.1083 66.8906 38.0502 66.7832 37.9831C66.5011 37.8087 66.1518 37.594 65.7175 37.4464C65.0817 37.1647 64.3474 36.9411 63.5862 36.798C62.6101 36.6683 61.7639 36.6459 60.9982 36.7309C60.1609 36.8472 59.2878 37.0842 58.4774 37.4241C57.8237 37.7058 57.161 38.0949 56.5163 38.5913C55.4909 39.3784 54.9806 40.1387 54.9447 40.1969L54.9358 40.2103C54.7611 40.4786 54.8014 40.8319 55.0253 41.0556C55.1507 41.1852 55.3208 41.2523 55.5044 41.2523C55.6835 41.2523 55.8536 41.1808 55.979 41.0556L55.9835 41.0511C56.0327 41.0019 56.5432 40.501 57.4611 39.8883C57.9223 39.5484 58.5222 39.2532 59.149 38.9536C59.8162 38.645 60.5371 38.4169 61.2535 38.2962C61.8893 38.1486 62.6146 38.086 63.4608 38.0949L63.8011 38.1173C64.0474 38.1352 64.2892 38.1531 64.5265 38.1665C64.7325 38.1754 64.934 38.2157 65.131 38.2559C65.2429 38.2783 65.3549 38.3006 65.4668 38.3185C65.9369 38.3856 66.3354 38.4929 66.6533 38.5779C66.7384 38.6003 66.8145 38.6226 66.8906 38.6405L68.4398 39.0028L67.0787 38.1575Z" fill="black"/>
<path d="M49.1948 66.7621C49.159 66.7532 49.1276 66.7487 49.0918 66.7397C49.1231 66.7487 49.1545 66.7532 49.1948 66.7621Z" fill="#C5997D"/>
<path d="M48.9256 66.6995C48.8943 66.6905 48.863 66.6816 48.8316 66.6726H48.8271C48.8316 66.6771 48.8674 66.686 48.9256 66.6995Z" fill="#C5997D"/>
<path d="M49.1177 66.5029C49.0819 66.4939 49.0505 66.4894 49.0146 66.4805C49.046 66.4849 49.0774 66.4939 49.1177 66.5029Z" fill="#C5997D"/>
<path d="M48.8495 66.4402C48.8181 66.4312 48.7868 66.4223 48.7555 66.4133H48.751C48.7555 66.4178 48.7913 66.4268 48.8495 66.4402Z" fill="#C5997D"/>
<path d="M49.3553 66.467C49.324 66.458 49.2882 66.4535 49.2568 66.4446C49.2882 66.4491 49.3195 66.458 49.3553 66.467Z" fill="#C5997D"/>
<path d="M49.095 66.4087C49.0636 66.3997 49.0368 66.3908 49.0055 66.3818H49.001C49.0055 66.3818 49.0368 66.3953 49.095 66.4087Z" fill="#C5997D"/>
<path d="M47.1031 67.2628C47.0225 66.194 50.0806 67.4865 51.0836 67.5178C51.885 67.5446 54.2894 67.3612 54.5133 67.2763C56.1969 66.6501 54.4193 69.0607 51.0343 69.1859C49.4851 69.2485 47.1524 67.9113 47.1031 67.2628Z" fill="#F3DBB5"/>
<path d="M57.1809 64.7003C55.2422 64.3381 51.1587 64.7227 51.1587 64.7227C47.7916 65.2817 45.1544 64.6869 45.1365 64.7093C45.0559 64.7182 47.8274 68.3855 51.1139 68.22C54.4004 68.3899 57.2615 64.7137 57.1809 64.7003Z" fill="#C56B70"/>
<path d="M53.1076 63.9267C52.2345 63.8283 51.6121 64.4589 51.1644 64.4142C50.7077 64.4544 50.1166 64.0519 49.239 64.043C48.0032 64.0296 47.3988 63.9222 45.1377 64.7138C45.2183 64.8659 46.6645 65.7067 49.3779 65.7514C49.4182 65.7514 50.1435 66.1628 51.1778 66.1584C51.827 66.1539 52.7136 65.7246 52.7494 65.7246C55.4672 65.6843 57.1239 64.8748 57.2 64.7272C54.2135 63.7925 54.4508 63.9133 53.1076 63.9267Z" fill="#D87A77"/>
<path d="M73.2788 96.3012C73.1669 94.7449 72.9833 93.3093 72.737 91.99C72.3027 89.6689 71.6804 87.7055 70.9416 86.0284C69.9028 83.6671 68.6401 81.905 67.3506 80.5767H67.3596C67.3193 80.5365 67.279 80.5007 67.2387 80.4605C67.2253 80.447 67.2074 80.4291 67.1939 80.4113H67.1894C64.7224 78.0186 62.2373 77.1957 61.1717 76.9408C61.1896 77.0079 60.5046 76.7127 60.3613 76.4444C59.9449 75.7422 59.4479 75.0535 58.8479 74.3245C58.7942 74.2708 58.7404 74.2216 58.7046 74.168L58.4807 75.4828L54.3032 80.4113H53.9943L51.7063 83.108L49.5258 80.5767H49.5526L45.3751 75.7243L45.0483 74.1724C45.0214 74.1993 44.9946 74.235 44.9587 74.2619C44.0856 75.2994 42.5767 77.0123 42.5901 76.9452C41.529 77.2002 38.7037 78.0231 36.2321 80.4157C34.8889 81.7574 33.5636 83.5776 32.4845 86.0329C31.7457 87.7055 31.1233 89.6733 30.689 91.9944C30.4428 93.3138 30.2592 94.7494 30.1473 96.3057C30.0667 97.4014 30.0264 98.5553 30.0264 99.7717C30.0264 99.7717 30.2055 99.8522 30.5413 99.9998H72.8893C73.2206 99.8522 73.3997 99.7717 73.3997 99.7717C73.3997 98.5463 73.3549 97.3969 73.2788 96.3012Z" fill="black"/>
<path d="M61.2257 78.2424C60.9839 74.4722 59.0362 73.7567 59.0362 73.7567V73.7611C58.9197 73.6717 58.7899 73.5957 58.6556 73.5286C58.0646 73.2424 57.3527 73.551 57.1646 74.1815C56.9407 74.9374 56.6452 75.8855 56.3855 76.5697C56.1975 77.0617 55.9333 77.5179 55.5975 77.9248C55.0691 78.5688 54.205 79.6198 53.4259 80.5903C52.5439 81.6905 50.8692 81.695 49.9737 80.6037C49.132 79.5796 48.1962 78.457 47.6679 77.8264C47.3813 77.4821 47.144 77.1019 46.9604 76.6905C46.7231 76.1628 46.5664 75.2504 46.4366 74.4678C46.3291 73.8148 45.662 73.4168 45.0351 73.6315C44.9008 73.6762 44.7754 73.7209 44.6679 73.7522C44.4754 73.7835 42.4247 74.2128 42.1606 77.8667C41.9636 79.3336 41.874 81.4803 41.8382 83.2021C41.8158 84.1636 42.9934 84.6601 43.665 83.9669C44.068 83.551 44.453 83.1842 44.7262 82.983C44.8963 82.8577 45.1023 82.7325 45.3306 82.6073C45.8589 82.3211 46.5261 82.5536 46.7858 83.0948L50.9096 91.7397C51.2902 92.5358 52.4229 92.5492 52.8214 91.762L57.0706 83.3765C57.3572 82.813 58.0869 82.6073 58.5974 82.974C58.6019 82.974 58.6019 82.9785 58.6063 82.9785C58.8795 83.1753 59.2645 83.5465 59.6675 83.9624C60.3391 84.6556 61.5122 84.1592 61.4943 83.1932C61.4674 81.6234 61.3913 79.6824 61.2257 78.2424Z" fill="#F09300"/>
<path d="M37.3691 90.3848H45.1778V91.8427L41.2735 94.3293L37.3691 91.8427V90.3848Z" fill="#E5C69F"/>
<path d="M56.9619 90.0356H64.7751V91.4936L60.8663 93.9802L56.9619 91.4936V90.0356Z" fill="#E5C69F"/>
<path d="M79.7489 22.2674C79.7489 22.2674 76.7312 18.4526 71.5059 19.356C73.0731 16.0465 70.8567 13.8506 70.8567 13.8506C70.6507 16.5921 69.4866 17.7862 68.4747 18.3139C68.0045 16.0017 65.7837 12.5268 58.3242 10.8586C58.3242 10.8586 60.6346 12.4642 62.0092 14.432C62.8106 15.5814 61.4719 16.9812 60.1734 16.3461C58.8346 15.6887 56.869 15.2504 55.0825 13.8908C51.102 10.8586 44.0008 12.1422 40.2173 14.432C37.0652 16.3372 32.2966 20.5456 30.9579 23.3765C30.64 24.0518 30.2056 24.9195 29.7176 25.8989C29.7131 25.9034 29.7086 25.9078 29.7042 25.9078C24.5058 27.5849 23.0059 25.5545 23.0059 25.5545C23.0059 25.5545 24.3715 27.7191 26.8565 28.618C27.5639 28.8729 27.9311 29.6019 27.6356 30.2549C26.6326 32.4776 25.7013 34.8077 25.2178 36.7978C24.3088 40.5679 26.758 44.2352 28.8893 45.8273C28.8938 45.8855 28.8982 45.9391 28.9027 45.9973C29.6057 46.7799 30.6892 48.1216 31.4683 49.6556C31.6429 50 31.7952 50.3488 31.9295 50.7066C32.2519 51.5563 32.4489 52.4373 32.4041 53.3005C32.8294 53.3989 33.7831 51.7799 33.7473 48.8327C35.6458 42.3211 38.9546 38.7254 42.5321 36.601C43.0694 36.2835 43.7321 36.8112 43.459 37.3434C40.0293 43.9937 43.4008 51.2388 43.4008 51.2388C43.2127 42.4552 51.1244 36.5742 53.5736 34.9687C53.802 34.8434 54.0393 34.6959 54.2855 34.5214C55.1452 33.9221 56.0989 33.3944 57.0974 32.9696C58.0421 32.5715 59.166 33.0053 59.5108 33.9177C60.16 35.644 60.4734 37.6118 60.0794 39.7361C60.0794 39.7361 61.5525 37.5268 62.0047 34.5438C62.1345 33.6941 63.2808 33.4212 63.8136 34.1189C65.5777 36.4177 67.3463 39.839 66.6523 43.8103C66.6478 43.8461 66.6434 43.8774 66.6389 43.9132C66.6389 43.9132 66.7732 43.7075 66.9703 43.3497C67.6105 42.3524 68.009 41.2298 68.2553 40.161C68.3269 39.8971 68.3851 39.6198 68.4433 39.3381L68.4478 39.347C68.4478 39.347 69.0702 36.9096 69.9522 39.7987C70.1985 41.2924 70.2522 42.9964 70.0731 44.9239C69.9388 46.3595 69.8761 47.5357 69.8582 48.5107C69.8403 49.4633 69.8672 50.2146 69.9254 50.805C70.1358 53.0366 70.7313 53.0143 70.7313 53.0143C71.1522 53.0143 70.7 50.8452 72.1059 49.347C73.5074 47.8533 75.6476 42.813 75.6476 37.7862C75.6476 35.1073 75.1193 32.5849 73.9103 30.0939C69.7284 24.6556 75.0207 20.8273 79.7489 22.2674Z" fill="#623F37"/>
<path opacity="0.66" d="M35.0338 55.5144C37.0397 56.1182 44.9738 56.9903 47.432 50.2372C41.4993 47.8803 35.795 49.0028 31.416 50.8677C32.3876 54.544 34.2816 55.2685 35.0338 55.5144Z" fill="url(#paint0_linear_732_8193)"/>
<path opacity="0.66" d="M66.5993 55.5144C64.5934 56.1182 56.6593 56.9903 54.2012 50.2372C60.1338 47.8803 65.8382 49.0028 70.2171 50.8677C69.2455 54.544 67.3515 55.2685 66.5993 55.5144Z" fill="url(#paint1_linear_732_8193)"/>
<path opacity="0.62" d="M47.4309 50.2326C47.5249 49.9776 47.6099 49.7093 47.686 49.432C47.7398 49.2442 47.7891 49.0564 47.8338 48.8551C48.2458 47.0394 48.1428 45.5814 47.7801 44.2979C47.4353 43.0412 43.8578 42.2853 42.3086 42.0617C40.7773 41.8918 38.5072 41.7531 35.9596 42.0617C32.8119 42.4553 30.591 42.7594 30.8821 47.4016C30.9313 48.1485 31.0119 48.8193 31.1104 49.432C31.1955 49.9553 31.2985 50.4293 31.4149 50.8632C35.7939 48.9982 41.4982 47.8802 47.4309 50.2326Z" fill="url(#paint2_linear_732_8193)"/>
<path opacity="0.62" d="M54.2008 50.2326C54.1068 49.9776 54.0217 49.7093 53.9455 49.432C53.8918 49.2442 53.8426 49.0564 53.7978 48.8551C53.3859 47.0394 53.4889 45.5814 53.8515 44.2979C54.1963 43.0412 57.7738 42.2853 59.323 42.0617C60.8543 41.8918 63.1244 41.7531 65.6721 42.0617C68.8198 42.4553 71.0406 42.7594 70.7495 47.4016C70.7003 48.1485 70.6197 48.8193 70.5212 49.432C70.4361 49.9553 70.3332 50.4293 70.2167 50.8632C65.8378 48.9982 60.1334 47.8802 54.2008 50.2326Z" fill="url(#paint3_linear_732_8193)"/>
<path d="M72.8989 42.0931C72.7735 41.8292 70.396 41.4893 67.3065 41.1763C64.6961 40.9392 60.4828 41.0958 58.8396 41.3328C58.1545 41.4357 56.9277 41.6727 55.7009 42.0171C54.3487 42.3838 52.9965 42.8847 52.4368 43.0144C51.895 43.1262 51.4697 43.1799 51.0219 43.1575V43.1485C50.9861 43.153 50.9547 43.153 50.9234 43.153C50.8876 43.1485 50.8562 43.153 50.8204 43.1485C50.7846 43.153 50.7533 43.153 50.7174 43.153C50.6861 43.1485 50.6503 43.153 50.6189 43.1485V43.1575C50.1712 43.1799 49.7458 43.1307 49.204 43.0144C48.6444 42.8847 47.2921 42.3838 45.9399 42.0171C44.7131 41.6772 43.4863 41.4401 42.8012 41.3328C41.1535 41.0958 36.9447 40.9392 34.3344 41.1763C31.2404 41.4893 28.8629 41.8337 28.742 42.0931C28.6659 42.2765 28.4778 44.6646 28.7285 44.9017C28.9793 45.1655 29.8479 45.662 30.0628 46.5027C30.13 46.789 30.2777 47.6745 30.5151 48.7881C30.5912 49.1503 30.8464 49.4053 31.1329 49.4053C31.5091 49.4053 31.8001 48.9714 31.7464 48.484C31.7105 48.1709 31.6837 47.8444 31.6613 47.5001C31.3971 43.1441 33.4031 42.8578 36.2462 42.4867C38.5477 42.196 40.5983 42.3301 41.9819 42.4867C43.3788 42.6968 46.6116 43.4035 46.925 44.5841C47.2519 45.7917 47.3459 47.1557 46.9698 48.8596V48.8641C46.9116 49.1324 47.0638 49.4008 47.2787 49.4008H48.2906C48.4294 48.9401 48.5548 48.4571 48.6488 47.9428C48.8817 46.6056 49.2219 45.8185 49.7995 45.5815C50.0279 45.5099 50.3682 45.4428 50.7219 45.4294C50.7577 45.4294 50.7891 45.4249 50.8249 45.4249C50.8607 45.4249 50.892 45.4294 50.9279 45.4294C51.2816 45.4428 51.6264 45.5099 51.8503 45.5815C52.4234 45.8185 52.7681 46.6056 53.0009 47.9428C53.095 48.4571 53.2204 48.9401 53.3592 49.4008H54.3711C54.5815 49.4008 54.7382 49.1369 54.68 48.8641V48.8596C54.3084 47.1557 54.4024 45.7917 54.7248 44.5841C55.0337 43.4035 58.2665 42.6968 59.6679 42.4867C61.0515 42.3301 63.1022 42.196 65.4036 42.4867C68.2468 42.8534 70.2527 43.1441 69.9885 47.5001C69.9661 47.8444 69.9392 48.1709 69.9034 48.484C69.8497 48.9714 70.1407 49.4053 70.5168 49.4053C70.8034 49.4053 71.0541 49.1503 71.1347 48.7881C71.372 47.6745 71.5198 46.789 71.587 46.5027C71.8064 45.662 72.675 45.1655 72.9212 44.9017C73.163 44.6646 72.975 42.2765 72.8989 42.0931Z" fill="#393B36"/>
<defs>
<linearGradient id="paint0_linear_732_8193" x1="39.763" y1="60.4672" x2="38.6301" y2="27.1959" gradientUnits="userSpaceOnUse">
<stop stop-color="white"/>
<stop offset="1" stop-color="#488AB1"/>
</linearGradient>
<linearGradient id="paint1_linear_732_8193" x1="62.5171" y1="59.563" x2="61.3874" y2="26.387" gradientUnits="userSpaceOnUse">
<stop stop-color="white"/>
<stop offset="1" stop-color="#488AB1"/>
</linearGradient>
<linearGradient id="paint2_linear_732_8193" x1="39.2328" y1="54.2634" x2="39.6086" y2="42.5988" gradientUnits="userSpaceOnUse">
<stop stop-color="white"/>
<stop offset="1" stop-color="#488AB1"/>
</linearGradient>
<linearGradient id="paint3_linear_732_8193" x1="61.8758" y1="55.1954" x2="62.2545" y2="43.4419" gradientUnits="userSpaceOnUse">
<stop stop-color="white"/>
<stop offset="1" stop-color="#488AB1"/>
</linearGradient>
</defs>
</svg>
