<svg width="100" height="100" viewBox="0 0 100 100" fill="none" xmlns="http://www.w3.org/2000/svg">
<path d="M95 0H5C2.23858 0 0 2.23858 0 5V95C0 97.7614 2.23858 100 5 100H95C97.7614 100 100 97.7614 100 95V5C100 2.23858 97.7614 0 95 0Z" fill="#C5B3CF"/>
<path d="M71.9538 63.6628C72.6434 64.4634 75.5 65.644 75.5 65.644C75.5 65.644 73.6508 64.8345 73.0329 61.7442C72.8001 60.6172 72.6926 59.9777 72.6702 59.526H72.4464C73.212 58.4034 73.7985 57.2094 74.1791 55.9616L74.1836 55.9661C74.2015 55.899 74.2194 55.8319 74.2329 55.7693C74.3761 55.2684 74.4926 54.763 74.5687 54.2442C75.5537 48.4168 73.7493 41.2299 72.8583 38.2201C72.8449 38.1798 72.8359 38.1396 72.8225 38.0993C72.5762 37.2675 72.4061 36.7845 72.4061 36.7845C72.4195 36.8739 72.424 36.9678 72.4374 37.0573C69.7778 30.7693 61.1855 26.1628 50.9813 26.1628C39.0981 26.1628 29.391 32.4106 28.7149 40.2863C27.8194 43.8462 26.7671 49.4991 27.5686 54.2487C27.6447 54.7675 27.7566 55.2728 27.8999 55.7737C27.9178 55.8408 27.9357 55.9079 27.9536 55.9705L27.9581 55.9661C28.3387 57.2138 28.9208 58.4079 29.6864 59.5305H29.4626C29.4402 59.9822 29.3283 60.6217 29.0999 61.7487C28.482 64.839 26.6328 65.6485 26.6328 65.6485C26.6328 65.6485 29.4895 64.4678 30.1745 63.6673C30.5103 63.2782 31.3924 62.2183 31.661 61.8829C31.67 61.8918 31.6789 61.8963 31.6878 61.9052C31.5267 62.263 31.1551 63.4124 31.6789 65.6262C32.3685 68.5197 35.1982 70.4741 35.1982 70.4741C35.1982 70.4741 33.5013 68.1709 33.9714 65.6485C33.9714 65.6485 33.8729 66.6592 36.631 69.4678C39.2638 72.1557 42.5278 75.0403 42.9577 75.0716C42.9219 74.9866 44.4129 72.2227 44.3771 71.0823C46.3875 71.6727 48.4874 75.5099 50.6679 75.5099C50.7977 75.5099 50.9276 75.5054 51.0529 75.5009H51.0574C51.1828 75.5054 51.3127 75.5099 51.4425 75.5099C53.6231 75.5099 55.7185 71.6771 57.7334 71.0823C57.6975 72.2227 59.1214 75.4651 59.0856 75.5546C59.5109 75.5188 62.8467 72.1557 65.4794 69.4678C68.2375 66.6592 68.139 65.6485 68.139 65.6485C68.6092 68.1709 66.9122 70.4741 66.9122 70.4741C66.9122 70.4741 69.742 68.5242 70.4315 65.6262C70.9598 63.4124 70.5837 62.263 70.427 61.9052C70.436 61.8963 70.4449 61.8873 70.4539 61.8829C70.7405 62.2094 71.6225 63.2737 71.9538 63.6628ZM37.0967 54.7585C37.1638 56.0734 37.4549 56.9723 37.9653 57.661L37.9922 57.6879C37.9922 57.6879 38.0862 57.7863 38.225 57.9205C38.3549 58.0501 38.5608 58.2245 38.8474 58.3945C38.8474 58.3945 38.8563 58.399 38.8608 58.4034C39.1429 58.5644 39.5056 58.7299 39.9578 58.8462C40.316 58.9625 40.804 58.9848 41.413 58.958C41.3279 59.441 41.2786 59.9508 41.2786 60.4786C41.2786 61.4491 41.4354 62.3614 41.704 63.1575C37.7146 61.0868 34.5445 57.7281 32.7669 53.627C32.6371 53.2737 32.2431 52.2048 31.7819 50.72C31.5088 49.848 31.2177 48.8328 30.9312 47.7371C33.4207 51.1628 37.7952 53.8551 43.1458 55.2058C43.1323 55.2236 43.1233 55.2371 43.1233 55.2371C39.4563 58.8999 37.0967 54.7585 37.0967 54.7585ZM70.3554 50.72C69.8942 52.2048 69.5047 53.2737 69.3748 53.627C67.5972 57.7281 64.4272 61.0868 60.4378 63.1575C60.702 62.3569 60.8631 61.4491 60.8631 60.4786C60.8631 60.0492 60.8228 59.6378 60.7691 59.2397C61.1631 59.1906 61.5437 59.128 61.8974 59.0296C62.4616 58.9178 62.9765 58.712 63.4198 58.3945C64.3332 57.7371 64.9421 56.5922 65.0406 54.763C65.0406 54.763 62.6854 58.9043 59.0139 55.2415C59.0139 55.2415 58.996 55.2192 58.9602 55.1745C64.4496 53.7612 68.8913 50.9303 71.3091 47.3435C70.9912 48.5868 70.6554 49.7451 70.3554 50.72Z" fill="#9B372E"/>
<path d="M50.7975 60.8723V99.951H24.7027C24.2774 99.8123 24.0625 99.7452 24.0625 99.7452C24.0625 97.0082 24.3356 94.5976 24.8057 92.4822C25.2042 90.7515 25.7281 89.1996 26.346 87.8355C27.7295 84.7944 29.5742 82.6164 31.4727 81.0511C32.104 80.5368 32.7354 80.0896 33.3622 79.705C33.4742 79.6379 33.5816 79.5663 33.6936 79.5037C34.6294 78.9402 35.5338 78.5154 36.3621 78.1934C36.8367 78.001 37.289 77.8445 37.7009 77.7282C37.8442 77.679 37.974 77.6388 38.1128 77.603C38.2695 77.5627 38.4083 77.5225 38.5516 77.4868C38.9501 77.3928 39.2725 77.3168 39.5188 77.281C39.8501 77.2184 40.0336 77.205 40.0336 77.205C40.1277 77.205 40.2172 77.196 40.3157 77.1826C40.3694 77.1737 40.4277 77.1692 40.4814 77.1469C41.2291 76.9903 41.8336 76.4313 42.344 75.5681C42.7425 74.8883 43.0783 74.0118 43.3425 73.0011C43.4544 72.603 43.544 72.2095 43.6291 71.7712C43.7544 71.0511 43.8753 70.2953 43.9873 69.4992C44.0231 69.0252 44.0813 68.5601 44.1574 68.0592C44.3858 65.671 44.444 63.0458 44.444 60.5681C44.4485 60.5771 47.9588 60.8723 50.7975 60.8723Z" fill="#E5C69F"/>
<path d="M77.6493 99.745C77.6493 99.745 77.4209 99.8122 77.0314 99.9508H50.7979V60.8721H50.874C53.6903 60.8721 57.2365 60.5769 57.2365 60.5769C57.2365 63.0411 57.2992 65.6216 57.541 68.0188C57.6036 68.4839 57.6663 68.958 57.7066 69.4275C57.8186 70.2594 57.9394 71.0286 58.0917 71.7531V71.7665C58.132 72.0975 58.217 72.3926 58.2842 72.6923C58.5394 73.7075 58.8483 74.6064 59.2334 75.322C59.6991 76.2164 60.2722 76.8381 60.9662 77.0841C60.9886 77.093 61.0155 77.0975 61.0334 77.1064C61.2348 77.169 61.4408 77.2093 61.6647 77.2093C61.6647 77.2093 61.7901 77.2227 62.0095 77.2585C62.3677 77.3122 62.99 77.4284 63.7825 77.6654C63.9079 77.7012 64.0288 77.7415 64.1676 77.7817C64.2348 77.8041 64.3064 77.822 64.3825 77.8488C64.5661 77.9114 64.7541 77.9785 64.9467 78.05C65.8556 78.3855 66.8989 78.8551 67.9914 79.4991V79.508C68.0585 79.5438 68.1347 79.5885 68.2063 79.6332C68.6451 79.9016 69.0839 80.1968 69.5406 80.5277V80.5367C71.6763 82.1154 73.83 84.4365 75.3747 87.8488C75.9792 89.1726 76.4896 90.6619 76.8792 92.3256C77.3672 94.4678 77.6493 96.932 77.6493 99.745Z" fill="#F2DAB5"/>
<mask id="mask0_732_8198" style="mask-type:luminance" maskUnits="userSpaceOnUse" x="43" y="67" width="16" height="9">
<path d="M58.1686 67.1511H43.666V75.975H58.1686V67.1511Z" fill="white"/>
</mask>
<g mask="url(#mask0_732_8198)">
<path d="M58.1681 71.8918V71.9141C57.5099 72.9606 55.2936 75.975 50.9057 75.975H50.8609C46.7058 75.9526 44.279 72.8533 43.6611 71.932C43.791 71.0152 43.9163 70.0537 44.0238 69.0474C44.0686 68.4571 44.1312 67.8444 44.1939 67.2138C46.2177 67.737 48.4341 68.0635 50.7758 68.1082H50.8609C53.2877 68.0635 55.5264 67.7147 57.6129 67.1467C57.6756 67.7371 57.7428 68.3497 57.7831 68.9401C57.8905 69.991 58.0159 70.975 58.1681 71.8918Z" fill="#C69F82"/>
</g>
<path d="M51.0079 19.1772C30.0936 19.1772 29.9817 36.6951 30.913 48.1665C29.4847 45.4473 25.2266 46.2792 25.5804 50.5681C25.9162 54.696 32.001 56.798 31.8309 56.3418C34.9965 64.8257 43.3828 71.2211 51.0124 71.2211H51.1736V19.1772H51.0079Z" fill="#D7AE89"/>
<path d="M26.9101 48.7612C27.9399 47.0975 29.5428 47.8176 29.9324 48.1843C30.3488 48.5824 30.6891 49.0967 30.4294 50.0716C30.2861 50.6307 29.7085 50.6798 29.8339 51.5117C29.9951 52.4553 30.4293 52.5045 30.6846 52.7281C30.9263 52.9383 31.2308 53.0949 31.3741 53.4974C31.5353 53.8954 31.5487 54.3113 31.4726 54.6825C31.3114 55.3534 30.3308 54.8122 29.6726 54.5215C29.2383 54.3158 27.8593 53.1441 27.5056 52.7639C26.6369 51.7666 26.2205 49.848 26.9101 48.7612Z" fill="#B48E76"/>
<path d="M51.1192 19.1772C72.0335 19.1772 72.1455 36.6951 71.232 48.1665C72.6604 45.4473 76.905 46.2792 76.5513 50.5681C76.2289 54.696 70.1351 56.8025 70.3007 56.3418C67.2158 64.8257 58.7488 71.2211 51.1192 71.2211C51.0699 71.2211 51.0073 71.2211 51.0073 71.2211L50.958 19.1772C50.958 19.1772 51.0699 19.1772 51.1192 19.1772Z" fill="#E1BE9D"/>
<path d="M75.2171 48.7612C74.1873 47.0975 72.5978 47.8176 72.1993 48.1843C71.7829 48.5824 71.4605 49.0967 71.7023 50.0716C71.8456 50.6307 72.4231 50.6798 72.2978 51.5117C72.1366 52.4553 71.7023 52.5045 71.4605 52.7281C71.2187 52.9383 70.8963 53.0949 70.753 53.4974C70.6097 53.8954 70.5784 54.3113 70.6545 54.6825C70.8157 55.3534 71.7963 54.8122 72.4545 54.5215C72.9022 54.3158 74.2678 53.1441 74.6215 52.7639C75.5036 51.7666 75.9066 49.848 75.2171 48.7612Z" fill="#B48E76"/>
<path d="M50.8426 24.1235C43.9652 24.1235 38.9236 26.1226 35.8878 30.0582C31.6298 35.577 31.791 43.9939 33.3491 50.0404C33.8327 51.8964 34.0879 56.8695 34.4103 58.6942C35.9058 66.8695 44.9144 71.2211 50.8426 71.2211C50.8426 71.2211 50.9546 71.2211 51.0038 71.2211V24.1235C50.9546 24.1235 50.9053 24.1235 50.9053 24.1235" fill="#E5C69F"/>
<path d="M65.7831 30.0715C62.7608 26.1538 57.7818 24.1502 51.0029 24.1189V71.2164C57.7818 71.1359 65.8951 66.3685 67.2741 58.6896C67.6099 56.8649 67.8517 51.8917 68.3353 50.0357C69.9114 44.0071 70.0725 35.6082 65.7831 30.0715Z" fill="#F2DAB5"/>
<path d="M49.9061 62.8713C49.8748 62.8623 49.839 62.8578 49.8076 62.8489C49.839 62.8578 49.8658 62.8623 49.9061 62.8713Z" fill="#C3987D"/>
<path d="M49.6507 62.8132C49.6194 62.8043 49.5925 62.7953 49.5611 62.7864H49.5566C49.5611 62.7909 49.5925 62.7998 49.6507 62.8132Z" fill="#C3987D"/>
<path d="M47.0982 56.7622C47.0176 55.1343 50.0803 56.1674 51.0922 56.2166C51.8892 56.2569 54.3159 55.7023 54.5264 55.8454C55.9547 56.8114 53.013 58.7524 51.0429 58.7524C50.5191 58.7569 47.1475 57.7416 47.0982 56.7622Z" fill="#E1BE9D"/>
<path d="M45.1642 24.2397L45.0791 24.3248L45.0925 24.3517C45.1194 24.3114 45.1329 24.2666 45.1642 24.2397Z" fill="#473217"/>
<path d="M49.9643 61.9142C49.9285 61.9052 49.8971 61.9008 49.8613 61.8918C49.8927 61.9008 49.924 61.9097 49.9643 61.9142Z" fill="#C1977D"/>
<path d="M49.6995 61.8559C49.6682 61.847 49.6413 61.8381 49.61 61.8291H49.6055C49.6055 61.8336 49.6413 61.8425 49.6995 61.8559Z" fill="#C1977D"/>
<path d="M36 44.052C36 44.052 37.594 49.2085 40.3342 49.6289C43.0744 50.0493 46.0385 49.213 46.0385 49.213C46.0385 49.213 46.3206 43.1531 44.9192 42.3615C43.5177 41.5699 40.2849 40.4205 36 44.052Z" fill="white"/>
<path d="M46.0424 49.1994C46.0424 49.1994 45.9798 49.2128 45.841 49.262C45.8051 47.4015 45.5857 44.8523 44.7126 44.3604C43.4097 43.6091 40.468 42.5536 36.5412 45.4427C36.183 44.6422 36.0039 44.0384 36.0039 44.0384C40.2978 40.398 43.535 41.5429 44.9231 42.3389C46.3245 43.135 46.0424 49.1994 46.0424 49.1994Z" fill="#DCBC9B"/>
<path d="M44.4212 46.5743C44.4212 47.746 43.2122 48.6986 41.7257 48.6986C40.2347 48.6986 39.0303 47.746 39.0303 46.5743C39.0303 45.4025 40.2392 44.45 41.7257 44.45C43.2122 44.45 44.4212 45.4025 44.4212 46.5743Z" fill="#508FC8"/>
<path d="M41.5958 47.9875C40.8167 47.9383 40.2212 47.3167 40.2884 46.6369C40.36 45.9571 41.0764 45.4249 41.8555 45.4741C42.6346 45.5233 43.23 46.145 43.1629 46.8247C43.0957 47.5045 42.3748 48.0412 41.5958 47.9875Z" fill="#355877"/>
<path d="M41.6623 47.7417C41.1205 47.7059 40.5564 47.2363 40.619 46.6594C40.6817 46.0824 41.3309 45.6889 41.8727 45.7247C42.4145 45.7604 42.9742 46.23 42.916 46.8069C42.8578 47.3883 42.2041 47.7774 41.6623 47.7417Z" fill="#241C09"/>
<path d="M41.2246 46.3194C41.2022 46.5296 40.9291 46.6817 40.6202 46.6593C40.3067 46.637 40.0739 46.4536 40.0918 46.2434C40.1142 46.0332 40.3829 45.8812 40.6963 45.9035C41.0142 45.9259 41.247 46.1092 41.2246 46.3194Z" fill="white"/>
<path d="M42.9754 47.5272C42.9619 47.6302 42.8276 47.7063 42.6709 47.6974C42.5142 47.6884 42.3978 47.5944 42.4067 47.4914C42.4202 47.3884 42.5545 47.3123 42.7112 47.3213C42.8679 47.3302 42.9843 47.4198 42.9754 47.5272Z" fill="white"/>
<path d="M50.0043 62.6879C49.9685 62.6789 49.9372 62.6745 49.9014 62.6655C49.9372 62.6745 49.9685 62.6834 50.0043 62.6879Z" fill="#C1977D"/>
<path d="M49.7444 62.6296C49.7131 62.6207 49.6862 62.6117 49.6548 62.6028H49.6504C49.6504 62.6073 49.6862 62.6162 49.7444 62.6296Z" fill="#C1977D"/>
<path d="M49.8838 62.5046C49.848 62.4956 49.8122 62.4911 49.7764 62.4822C49.8122 62.4911 49.8435 62.4956 49.8838 62.5046Z" fill="#C3987D"/>
<path d="M49.601 62.4419C49.5697 62.433 49.5383 62.424 49.5025 62.415H49.498C49.5025 62.415 49.5383 62.4285 49.601 62.4419Z" fill="#C3987D"/>
<path d="M49.8028 62.2318C49.7669 62.2229 49.7311 62.2184 49.6953 62.2095C49.7311 62.214 49.7625 62.2229 49.8028 62.2318Z" fill="#C3987D"/>
<path d="M49.5209 62.1692C49.4896 62.1603 49.4583 62.1513 49.4225 62.1423H49.418C49.4224 62.1423 49.4583 62.1513 49.5209 62.1692Z" fill="#C3987D"/>
<path d="M50.0541 62.1915C50.0183 62.1826 49.9825 62.1781 49.9512 62.1692C49.9825 62.1781 50.0138 62.1826 50.0541 62.1915Z" fill="#C3987D"/>
<path d="M49.7811 62.1333C49.7498 62.1243 49.7184 62.1154 49.6871 62.1064H49.6826C49.6871 62.1064 49.7229 62.1154 49.7811 62.1333Z" fill="#C3987D"/>
<path d="M66.173 43.8775C66.173 43.8775 64.5791 49.034 61.8389 49.4544C59.0987 49.8748 56.1346 49.0384 56.1346 49.0384C56.1346 49.0384 55.8525 42.9785 57.2539 42.1869C58.6509 41.3953 61.8836 40.246 66.173 43.8775Z" fill="white"/>
<path d="M56.1295 49.0251C56.1295 49.0251 56.1922 49.0385 56.331 49.0877C56.3668 47.2273 56.5862 44.678 57.4593 44.1861C58.7622 43.4347 61.7039 42.3793 65.6307 45.2684C65.9889 44.4679 66.168 43.8641 66.168 43.8641C61.8741 40.2237 58.6369 41.3685 57.2489 42.1646C55.8429 42.9607 56.1295 49.0251 56.1295 49.0251Z" fill="#DCBC9B"/>
<path d="M57.75 46.3997C57.75 47.5715 58.9589 48.524 60.4455 48.524C61.9365 48.524 63.1408 47.5715 63.1408 46.3997C63.1408 45.228 61.932 44.2754 60.4455 44.2754C58.9545 44.2754 57.75 45.2235 57.75 46.3997Z" fill="#508FC8"/>
<path d="M60.5713 47.8132C61.3504 47.764 61.9459 47.1424 61.8788 46.4626C61.8071 45.7828 61.0907 45.2506 60.3116 45.2998C59.5326 45.349 58.937 45.9706 59.0042 46.6504C59.0758 47.3302 59.7922 47.8624 60.5713 47.8132Z" fill="#355877"/>
<path d="M60.504 47.5671C61.0458 47.5313 61.6099 47.0617 61.5472 46.4848C61.4845 45.9079 60.8353 45.5143 60.2935 45.5501C59.7517 45.5859 59.1921 46.0554 59.2503 46.6324C59.313 47.2138 59.9622 47.6029 60.504 47.5671Z" fill="#241C09"/>
<path d="M60.9429 46.1449C60.9653 46.3551 61.2384 46.5071 61.5473 46.4848C61.8607 46.4624 62.0936 46.2791 62.0712 46.0689C62.0488 45.8587 61.7801 45.7066 61.4667 45.729C61.1578 45.7469 60.9205 45.9347 60.9429 46.1449Z" fill="white"/>
<path d="M59.1973 47.3527C59.2107 47.4557 59.3451 47.5318 59.5018 47.5229C59.6585 47.5139 59.7749 47.4198 59.766 47.3169C59.7525 47.2139 59.6182 47.1378 59.4615 47.1467C59.3048 47.1512 59.1839 47.2453 59.1973 47.3527Z" fill="white"/>
<path d="M47.6856 43.9712C47.6632 43.9444 47.1662 43.3496 46.1498 42.7369C45.514 42.3522 44.8872 42.0571 44.2424 41.8424C43.4544 41.583 42.6081 41.3997 41.7888 41.3102C41.0455 41.2431 40.2216 41.261 39.2635 41.3639C38.5291 41.4757 37.8172 41.6456 37.2083 41.8558C36.774 41.9721 36.4337 42.1376 36.1606 42.2717C36.0576 42.3209 35.9591 42.3701 35.8651 42.4104L34.5576 43.0588L36.0665 42.7816C36.1382 42.7682 36.2143 42.7503 36.2949 42.7369C36.6083 42.6698 36.9934 42.5893 37.4501 42.5401C37.5576 42.5267 37.665 42.5088 37.777 42.4953C37.965 42.464 38.162 42.4328 38.368 42.4283C38.5963 42.4149 38.8336 42.4014 39.0754 42.388L39.3933 42.3702C40.2306 42.3612 40.9336 42.4104 41.5604 42.5267C42.2455 42.6206 42.9484 42.795 43.5932 43.0276C44.2021 43.2557 44.7887 43.4837 45.2454 43.7476C46.1677 44.2306 46.6782 44.6376 46.6827 44.6376C46.808 44.736 46.9781 44.7896 47.1483 44.7896C47.2737 44.7896 47.3946 44.7628 47.5065 44.7047C47.811 44.5481 47.896 44.2262 47.7035 43.9936L47.6856 43.9712Z" fill="#9A6443"/>
<path d="M66.4413 42.4015C66.3562 42.3658 66.2577 42.3211 66.1547 42.2674C65.8816 42.1332 65.5368 41.9722 65.1204 41.8559C64.5025 41.6413 63.7861 41.4713 63.0428 41.3595C62.0891 41.2567 61.2698 41.2432 60.522 41.3059C59.7071 41.3953 58.8564 41.5786 58.0684 41.838C57.4281 42.0527 56.7878 42.3523 56.161 42.7325C55.1625 43.3362 54.6655 43.9221 54.6297 43.9668L54.6207 43.9758C54.4506 44.1815 54.4864 44.4543 54.7058 44.6242C54.8311 44.7226 54.9968 44.7763 55.1715 44.7763C55.3461 44.7763 55.5118 44.7226 55.6326 44.6242L55.6371 44.6198C55.6864 44.584 56.1834 44.1994 57.0744 43.7298C57.5221 43.4704 58.1087 43.2423 58.7176 43.0142C59.3669 42.7772 60.0698 42.6028 60.7638 42.5089C61.3817 42.3971 62.0892 42.3479 62.913 42.3568L63.2444 42.3747C63.4861 42.3881 63.719 42.4015 63.9518 42.415C64.1533 42.4239 64.3503 42.4552 64.5384 42.4821C64.6503 42.4999 64.7577 42.5178 64.8652 42.5268C65.3219 42.5804 65.707 42.6609 66.0204 42.7235C66.101 42.7414 66.1771 42.7549 66.2487 42.7728L67.7576 43.05L66.4413 42.4015Z" fill="#9A6443"/>
<path d="M49.5303 63.466C49.4945 63.457 49.4587 63.4526 49.4229 63.4436C49.4631 63.4526 49.49 63.457 49.5303 63.466Z" fill="#C5997D"/>
<path d="M49.2567 63.4033C49.2254 63.3943 49.194 63.3854 49.1627 63.3765H49.1582C49.1582 63.3809 49.1985 63.3899 49.2567 63.4033Z" fill="#C5997D"/>
<path d="M47.1393 64.8211C47.0587 63.7656 50.072 65.0403 51.0571 65.0716C51.8451 65.0984 54.2137 64.915 54.4331 64.83C56.0898 64.2084 54.3436 66.5921 51.0078 66.7173C49.481 66.7799 47.1841 65.4606 47.1393 64.8211Z" fill="#F3DBB5"/>
<path d="M56.9399 62.7864C56.125 62.7461 55.2832 63.4304 54.3027 63.323C54.2624 63.3051 54.2445 63.3051 54.1997 63.3051C53.9758 63.2649 53.752 63.3051 53.5057 63.3633C53.2013 63.4259 52.8923 63.5511 52.6057 63.654C52.1132 63.815 51.5625 63.9402 50.9894 63.9V63.9045C50.9759 63.9045 50.9714 63.9 50.958 63.9C50.9446 63.9 50.9401 63.9045 50.9267 63.9045V63.9C50.358 63.9447 49.8028 63.815 49.3103 63.654C49.0238 63.5556 48.7148 63.4304 48.4103 63.3633C48.1641 63.3051 47.9402 63.2649 47.7163 63.3051C47.676 63.3051 47.6536 63.3051 47.6133 63.323C46.6283 63.4259 45.791 62.7461 44.9761 62.7864C44.7522 62.8043 44.4209 62.7461 44.2373 62.7461C44.2776 62.764 44.3179 62.7863 44.3627 62.8042C46.691 63.9402 48.7014 66.0735 50.9267 66.0064C50.9401 66.0064 50.9446 66.0064 50.958 66.0064C50.9714 66.0064 50.9759 66.0064 50.9894 66.0064C53.2147 66.0735 55.225 63.9447 57.5533 62.8042C57.5936 62.7863 57.6384 62.764 57.6787 62.7461C57.4907 62.7461 57.1638 62.8087 56.9399 62.7864Z" fill="#E2C8A4"/>
<path d="M57.6256 62.7236C57.6256 62.7236 55.2569 61.8112 53.5734 62.3479C53.5734 62.3479 52.9466 62.5939 52.2973 62.7414C51.9033 62.8935 51.4242 62.9427 50.9586 62.9203C50.6049 62.9069 50.269 62.8622 49.9914 62.813C49.8974 62.7996 49.8079 62.7817 49.7138 62.7594C49.6735 62.7504 49.6422 62.7459 49.6064 62.737C49.5482 62.7236 49.4944 62.7146 49.4362 62.6967C49.3735 62.6833 49.3377 62.6699 49.3377 62.6699H49.3422C48.8049 62.5223 48.3393 62.3434 48.3393 62.3434C46.6557 61.8067 44.2871 62.7191 44.2871 62.7191C44.2558 62.7325 44.2334 62.7459 44.2334 62.7459C44.417 62.7459 44.7438 62.8041 44.9722 62.7862C45.7871 62.746 46.6289 63.4302 47.6094 63.3229C47.6497 63.305 47.6676 63.305 47.7124 63.305C47.9363 63.2647 48.1602 63.305 48.4064 63.3631C48.7109 63.4257 49.0199 63.5509 49.3064 63.6538C49.7989 63.8148 50.3497 63.9401 50.9228 63.8998V63.9043C50.9362 63.9043 50.9407 63.8998 50.9541 63.8998C50.9675 63.8998 50.972 63.9043 50.9855 63.9043V63.8998C51.5541 63.9445 52.1093 63.8148 52.6018 63.6538C52.8884 63.5554 53.1973 63.4302 53.5018 63.3631C53.7481 63.305 53.9719 63.2647 54.1958 63.305C54.2361 63.305 54.2585 63.305 54.2988 63.3229C55.2838 63.4257 56.1211 62.746 56.936 62.7862C57.1599 62.8041 57.4912 62.7459 57.6748 62.7459C57.6748 62.7459 57.6569 62.737 57.6256 62.7236Z" fill="#CCA686"/>
<path d="M46.9775 63.2781C47.0223 63.287 51.4148 64.6287 54.8535 63.3093L54.4594 63.041H49.8118L46.9775 63.2781Z" fill="#CCA686"/>
<path d="M71.4063 99.9509H30.1553C31.4045 95.1924 32.8373 89.8257 33.3567 79.9286C33.4686 79.7854 33.5761 79.6468 33.688 79.5081C34.6238 78.9446 35.5282 78.5198 36.3566 78.1978C36.8312 78.0055 37.2834 77.8489 37.6953 77.7327C37.8386 77.6835 37.9685 77.6432 38.1073 77.6074C38.264 77.5672 38.4028 77.5269 38.5461 77.4911C38.9446 77.3972 39.267 77.3212 39.5132 77.2854C39.8445 77.2228 40.0281 77.2094 40.0281 77.2094C40.1221 77.2094 40.2117 77.2005 40.3102 77.1871C40.3639 77.1781 40.4221 77.1737 40.4758 77.1513C43.5339 84.3606 48.0786 89.1369 50.6532 89.1772H50.6621C50.7024 89.1772 50.7427 89.1772 50.792 89.1638C53.4247 88.8821 57.9873 84.1727 61.0275 77.1021C61.229 77.1647 61.4349 77.205 61.6588 77.205C61.6588 77.205 61.7842 77.2184 62.0036 77.2541C62.3618 77.3078 62.9841 77.4241 63.7766 77.6611C63.902 77.6969 64.0229 77.7371 64.1617 77.7774C64.2289 77.7997 64.3005 77.8176 64.3766 77.8445C64.5602 77.9071 64.7482 77.9742 64.9408 78.0457C65.8497 78.3812 66.893 78.8508 67.9855 79.4948V79.5037C68.0616 79.5931 68.1288 79.6736 68.2004 79.7631C68.7153 89.7854 70.1436 95.1656 71.4063 99.9509Z" fill="#F5AE25"/>
<path d="M50.5246 31.4445L30.3491 31.2791C26.3418 33.2066 25.5045 35.9078 25.5045 35.9078C24.8956 37.5358 37.0877 40.0313 37.0877 40.0313L50.5246 40.4427V31.4445Z" fill="#8A9EAC"/>
<path d="M50.525 39.9598C27.7481 39.7183 25.5049 35.9124 25.5049 35.9124C26.772 40.9705 43.2088 41.5027 50.525 41.4893V39.9598Z" fill="#554D4C"/>
<path d="M50.5244 31.4445L70.6999 31.2791C74.7072 33.2066 75.5446 35.9078 75.5446 35.9078C76.1535 37.5358 63.9613 40.0313 63.9613 40.0313L50.5244 40.4427V31.4445Z" fill="#8A9EAC"/>
<path d="M50.5244 39.9598C73.3013 39.7183 75.5446 35.9124 75.5446 35.9124C74.2774 40.9705 57.8406 41.5027 50.5244 41.4893V39.9598Z" fill="#554D4C"/>
<path d="M50.6406 10.5636L51.3122 10.0135C51.3122 10.0135 59.9583 9.51707 66.8625 15.2461C66.8625 15.2461 71.4251 17.102 70.6818 27.4196L71.2683 31.2434C71.434 32.3301 70.6236 33.3587 69.3475 33.6673C68.4521 33.8865 67.458 34.1056 66.7416 34.1995L50.6406 10.5636Z" fill="#3E3733"/>
<path d="M69.5396 33.4749C69.5396 33.4749 67.7308 26.5339 69.0024 24.3336C69.0024 24.3336 72.2888 16.4042 61.4936 13.372L50.6357 10.5635V35.0715C50.6402 35.0715 66.392 35.0715 69.5396 33.4749Z" fill="#554D4C"/>
<path d="M50.6404 10.5636L49.9688 10.0135C49.9688 10.0135 41.3228 9.51707 34.4185 15.2461C34.4185 15.2461 29.8559 17.102 30.5992 27.4196L30.0126 31.2434C29.847 32.3301 30.6574 33.3587 31.9335 33.6673C32.829 33.8865 33.823 34.1056 34.5394 34.1995L50.6404 10.5636Z" fill="#3E3733"/>
<path d="M50.6412 10.5635V35.0715C50.6412 35.0715 34.885 35.0715 31.7373 33.4839C31.7373 33.4839 33.2149 27.8175 32.5656 25.0939C32.4985 24.8121 32.3999 24.5482 32.2746 24.3336C32.2746 24.3336 28.9836 16.4087 39.7788 13.3765L50.6412 10.5635Z" fill="#554D4C"/>
<path d="M50.6403 10.5635H50.0723V18.5599H50.6403V10.5635Z" fill="#4D4543"/>
<path d="M50.6412 18.5598V35.0714C50.6412 35.0714 34.885 35.0714 31.7373 33.4838C31.7373 33.4838 33.2149 27.8174 32.5656 25.0938L32.5791 25.0357C32.5791 25.0357 44.9772 18.372 50.3502 18.5643H50.6412V18.5598Z" fill="#4D4543"/>
<path d="M50.3535 18.5598V35.0714C50.3535 35.0714 66.3426 35.0714 69.5395 33.4838C69.5395 33.4838 68.0395 27.8174 68.6977 25.0938L68.6843 25.0357C68.6843 25.0357 56.1026 18.372 50.649 18.5643H50.3535V18.5598Z" fill="#4D4543"/>
<path d="M53.1964 10.0805C53.1964 10.6753 52.0502 11.1583 50.6353 11.1583C49.2204 11.1583 48.0742 10.6753 48.0742 10.0805C48.0742 9.48565 49.2204 9.00269 50.6353 9.00269C52.0502 9.00269 53.1964 9.48118 53.1964 10.0805Z" fill="#372E2C"/>
</svg>
